<?xml version="1.0" encoding="UTF-8"?>
<!DOCTYPE svg PUBLIC "-//W3C//DTD SVG 1.1//EN" "http://www.w3.org/Graphics/SVG/1.1/DTD/svg11.dtd">
<!-- Creator: CorelDRAW 2019 (64-Bit) -->
<svg xmlns="http://www.w3.org/2000/svg" xml:space="preserve" width="0.821933in" height="1.21375in" version="1.1" style="shape-rendering:geometricPrecision; text-rendering:geometricPrecision; image-rendering:optimizeQuality; fill-rule:evenodd; clip-rule:evenodd"
viewBox="0 0 11.31 16.7"
 xmlns:xlink="http://www.w3.org/1999/xlink">
 <defs>
  <style type="text/css">
   <![CDATA[
    .fil0 {fill:#76C04E}
   ]]>
  </style>
 </defs>
 <g id="Layer_x0020_1">
  <metadata id="CorelCorpID_0Corel-Layer"/>
  <g id="_2543056120624">
   <path class="fil0" d="M5.71 6.13c-1.84,0 -2.39,-1.92 -1.29,-2.81 1.28,-1.03 3.06,-0.03 3.06,1.15 0,0.84 -0.84,1.65 -1.77,1.65zm-5.24 -1.52c0,1.44 0.78,2.92 1.45,4.15 0.21,0.39 0.48,0.85 0.72,1.21 0.25,0.38 2.78,4.37 3.07,4.56l3.26 -5.08c0.6,-1 1.18,-1.99 1.55,-3.1 0.63,-1.88 0.28,-3.63 -1.28,-5.04 -3.25,-2.93 -8.77,-0.64 -8.77,3.29z"/>
   <path class="fil0" d="M-0 14.26c0,1.25 1.76,1.9 2.96,2.17 1.51,0.34 3.32,0.34 4.89,0.09 2.96,-0.47 4.44,-2.17 2.73,-3.52 -0.38,-0.3 -1.3,-0.69 -1.87,-0.81 -0.16,0.27 -0.63,0.92 -0.69,1.17 1.17,0.09 3.33,1.11 0.02,1.81 -1.58,0.33 -3.22,0.35 -4.81,0 -0.33,-0.07 -0.72,-0.18 -0.99,-0.29 -0.49,-0.19 -1.12,-0.56 -0.54,-0.97 0.3,-0.22 1.17,-0.52 1.55,-0.55 -0.03,-0.29 -0.14,-0.36 -0.28,-0.58 -0.14,-0.22 -0.27,-0.36 -0.34,-0.6 -0.71,0.05 -2.62,0.85 -2.62,2.07z"/>
  </g>
 </g>
</svg>
