<?xml version="1.0" encoding="UTF-8"?>
<!DOCTYPE svg PUBLIC "-//W3C//DTD SVG 1.1//EN" "http://www.w3.org/Graphics/SVG/1.1/DTD/svg11.dtd">
<!-- Creator: CorelDRAW 2019 (64-Bit) -->
<svg xmlns="http://www.w3.org/2000/svg" xml:space="preserve" width="1.17167in" height="1.05772in" version="1.1" style="shape-rendering:geometricPrecision; text-rendering:geometricPrecision; image-rendering:optimizeQuality; fill-rule:evenodd; clip-rule:evenodd"
viewBox="0 0 22.85 20.63"
 xmlns:xlink="http://www.w3.org/1999/xlink">
 <defs>
  <style type="text/css">
   <![CDATA[
    .fil0 {fill:#76C04E}
   ]]>
  </style>
 </defs>
 <g id="Layer_x0020_1">
  <metadata id="CorelCorpID_0Corel-Layer"/>
  <g id="_2542103702960">
   <path class="fil0" d="M16.34 17.85c0.17,-0.37 0.45,-0.75 0.65,-1.19l1.05 0.04c-0.35,0.36 -1.2,0.9 -1.7,1.14zm-1.36 -1.18c-0.55,1.01 -1.93,2.42 -3.66,2.39 -1.72,-0.04 -2.88,-1.42 -3.52,-2.38l7.18 -0zm-8.51 1.17c-0.64,-0.3 -1.29,-0.73 -1.71,-1.16l1.03 -0c0.16,0.41 0.46,0.81 0.68,1.17zm-1.42 -2.76l-1.87 0.01c-0.15,-0.3 -0.34,-0.55 -0.52,-0.85 -0.54,-0.93 -0.05,-0.74 -2.24,-0.74 0.58,2.06 2.6,4.11 3.93,5 4.27,2.85 10.04,2.85 14.13,-0.06 1.52,-1.08 3.16,-2.73 3.86,-4.94l-1.88 0c-0.13,0.36 -0.28,0.64 -0.49,0.96 -0.51,0.79 -0.31,0.61 -2.26,0.63l0.39 -1.59 -1.77 0.01 -0.48 1.58 -8.94 0 -0.51 -1.59 -1.76 0.02 0.4 1.56z"/>
   <path class="fil0" d="M14.96 3.98l-7.15 -0.01c0.5,-0.96 1.89,-2.35 3.5,-2.39 1.75,-0.04 3.4,1.62 3.65,2.4zm-9.21 -0.01l-0.99 0.01c0.17,-0.32 1.21,-0.99 1.68,-1.17 -0.17,0.35 -0.45,0.79 -0.69,1.16zm10.58 -1.17c0.72,0.31 1.21,0.71 1.71,1.15l-0.47 0.02 -0.1 -0 -0.42 0 -0.71 -1.17zm-4.16 -2.81l-1.52 0c-0.29,0.09 -1.41,0.18 -1.85,0.27 -2.83,0.57 -5.19,2.06 -6.85,4.13 -0.38,0.47 -1.46,2.07 -1.47,2.74l1.76 -0.01c0.09,-0.13 0,0 0.14,-0.21l0.3 -0.58c0.22,-0.37 0.35,-0.44 0.47,-0.8l1.9 0.01 -0.42 1.58 1.77 0 0.53 -1.58 8.75 -0.01c0.35,0.09 0.48,1.01 0.67,1.59l1.77 0 -0.39 -1.59 1.81 0c0.41,0.5 0.65,0.96 0.98,1.59l1.81 0c-0.06,-0.7 -1.05,-2.16 -1.43,-2.67 -0.66,-0.88 -1.32,-1.46 -2.2,-2.13 -1.27,-0.97 -2.89,-1.66 -4.6,-2.04 -0.51,-0.12 -1.59,-0.18 -1.93,-0.3z"/>
   <path class="fil0" d="M7.94 8.72c-0.13,0.39 1.12,2.74 1.37,3.29l1.1 0 0.99 -1.87 0.96 1.85 1.08 0.02c0.28,-0.56 1.6,-2.87 1.48,-3.32 -1.44,-0.15 -1.2,0.06 -1.55,0.87 -0.13,0.31 -0.24,0.75 -0.48,1.02l-0.92 -1.92 -0.86 -0c-0.53,0.25 -0.78,1.46 -1.15,1.92 -0.29,-0.4 -0.55,-1.44 -0.84,-1.9 -0.41,-0.02 -0.87,-0.05 -1.18,0.04z"/>
   <path class="fil0" d="M15.86 8.73c-0.14,0.38 0.4,1.18 0.62,1.64 0.25,0.53 0.57,1.15 0.75,1.65l1.08 0 0.99 -1.87 0.97 1.86c1.39,0.08 1.04,0.08 1.81,-1.44 0.22,-0.44 0.86,-1.4 0.75,-1.87 -1.95,-0.21 -1.08,0.54 -2.01,1.89 -1.06,-1.61 -0.25,-2.03 -1.97,-1.9l-0.97 1.89 -0.84 -1.92c-0.43,-0.01 -0.88,-0.05 -1.18,0.06z"/>
   <path class="fil0" d="M0.02 8.72c-0.12,0.35 0.42,1.2 0.62,1.65 0.24,0.55 0.54,1.11 0.76,1.64l1.08 0 0.98 -1.88 0.97 1.87c1.01,0.04 1.09,0.08 1.38,-0.53 0.3,-0.66 1.28,-2.37 1.19,-2.78 -1.43,-0.19 -1.21,0.12 -1.54,0.87 -0.13,0.3 -0.33,0.82 -0.47,1.01 -0.34,-0.58 -0.64,-1.33 -0.96,-1.92 -1.34,-0.03 -1.01,0.02 -1.44,0.85 -0.19,0.36 -0.36,0.74 -0.54,1.09 -0.27,-0.34 -0.62,-1.47 -0.84,-1.93 -0.41,-0.02 -0.87,-0.05 -1.17,0.05z"/>
  </g>
 </g>
</svg>
