<?xml version="1.0" encoding="UTF-8"?>
<!DOCTYPE svg PUBLIC "-//W3C//DTD SVG 1.1//EN" "http://www.w3.org/Graphics/SVG/1.1/DTD/svg11.dtd">
<!-- Creator: CorelDRAW 2019 (64-Bit) -->
<svg xmlns="http://www.w3.org/2000/svg" xml:space="preserve" width="2.3622in" height="2.3622in" version="1.1" style="shape-rendering:geometricPrecision; text-rendering:geometricPrecision; image-rendering:optimizeQuality; fill-rule:evenodd; clip-rule:evenodd"
viewBox="0 0 133.51 133.51"
 xmlns:xlink="http://www.w3.org/1999/xlink">
 <defs>
  <style type="text/css">
   <![CDATA[
    .fil2 {fill:none}
    .fil0 {fill:url(#id0)}
    .fil1 {fill:url(#id1)}
   ]]>
  </style>
  <linearGradient id="id0" gradientUnits="userSpaceOnUse" x1="67.68" y1="128.45" x2="65.83" y2="40.97">
   <stop offset="0" style="stop-opacity:1; stop-color:#76C04E"/>
   <stop offset="0.129412" style="stop-opacity:1; stop-color:#76C04E"/>
   <stop offset="0.258824" style="stop-opacity:1; stop-color:#A8CF45"/>
   <stop offset="0.521569" style="stop-opacity:1; stop-color:#FFF212"/>
   <stop offset="0.8" style="stop-opacity:1; stop-color:#76C04E"/>
   <stop offset="1" style="stop-opacity:1; stop-color:#76C04E"/>
  </linearGradient>
  <linearGradient id="id1" gradientUnits="userSpaceOnUse" xlink:href="#id0" x1="82.37" y1="106.98" x2="75.17" y2="5.29">
  </linearGradient>
 </defs>
 <g id="Layer_x0020_1">
  <metadata id="CorelCorpID_0Corel-Layer"/>
  <g id="_1815585525040">
   <path class="fil0" d="M118.86 127.55c0.09,-2 0.62,-5.06 0.63,-8.09l-0.01 -19.58c-0,-13.19 -1.97,-15.73 -15.06,-15.87 -0.02,6.01 0.79,16.27 -1.27,21.11 -1.75,4.13 -6.92,9.25 -12.8,9.25l-23.22 0c-5.84,0 -10.37,-4.73 -12.27,-8.39 -2.57,-4.94 -1.62,-15.08 -1.63,-21.96l-20.59 -0.02c-0.74,-5.62 -0.91,-25.73 -1.11,-33.93 -0.09,-3.71 0.83,-8.95 -3.04,-9.11 -4.04,-0.17 -3.28,4.67 -3.34,8.55 -0.06,3.92 -0.16,7.85 -0.22,11.77 -0.08,5.38 0.14,17.84 -0.79,22.36 -2.4,1.06 -3.41,0.58 -5.64,2.28 -1.33,1.01 -2.83,2.41 -3.62,4.24 -1.2,2.76 -0.68,18.7 -0.7,24.25 -0.04,11.22 -1.28,13.5 3.66,13.64 19.72,0.55 97.79,0.63 101.01,-0.51z"/>
   <path class="fil1" d="M84.96 83.66c-0.24,-3.17 0.56,-3.32 3.43,-3.32 4.08,0 3.67,2.19 3.03,6.29 -2.29,0.98 -3.23,0.56 -6.27,0.23l-0.19 -3.2zm-9.2 3.12c-1.48,-4.33 -0.89,-6.59 3.13,-6.53 2.23,0.03 2.9,-0.03 3.33,1.75 0.35,1.47 0.01,3.68 -0.35,4.63 -1.9,0.77 -3.74,0.67 -6.1,0.15zm-9.62 0.11c-0.43,-2.83 -1.23,-6.03 1.58,-6.57 5.94,-1.15 5.09,2.33 4.73,6.29 -2.32,0.94 -3.64,0.59 -6.31,0.29zm18.83 -13.31c-0.01,-4.08 2.1,-4.86 6.6,-3.1 0.32,4.38 0.86,6.34 -3.17,6.38 -2.9,0.03 -3.43,-0.38 -3.43,-3.28zm-9.71 -0.56c-0.3,-3.12 1.49,-3.33 4.19,-3.19 4.06,0.22 3.03,3.01 2.24,6.51 -2,0.77 -4.3,0.51 -6.18,-0.01l-0.25 -3.31zm-9.43 0c-0.2,-2.33 0.43,-2.97 2.46,-3.18l3.02 0.22c0.12,0.03 0.31,0.13 0.4,0.16 1.88,0.64 0.78,4.57 0.41,6.15 -2,0.7 -4.43,0.42 -6.07,-0.1l-0.22 -3.26zm25.61 -13.03c0.22,0.86 0.4,1.79 0.37,2.98 -0.02,0.6 -0.05,0.96 -0.19,1.53 -0.38,1.53 0.16,0.24 -0.59,1.09 -0.02,0.02 -7.73,4.53 -5.76,-5.76 2.37,-0.44 4.31,-0.55 6.17,0.16zm-15.57 -0.26c5.4,-0.31 6.18,-0.94 6.5,2.08 0.49,4.75 -2.28,5.31 -6.34,4.14 -1.05,-2.02 -1.1,-4.12 -0.16,-6.22zm-9.59 0.13c2.3,-0.53 4.35,-0.55 6.09,0.19 0.24,0.85 0.4,1.71 0.36,2.92 -0.06,2.07 0.17,1.53 -0.74,2.55 -0.97,0.96 0.56,0.13 -1.08,0.65 -0.43,0.14 -1.08,0.21 -1.54,0.24 -4.33,0.22 -4.2,-2.9 -3.09,-6.54zm0.06 -7.96c-1.28,-2.93 -0.86,-6.81 -0.89,-10.77 -0.03,-4.16 -0.49,-6.77 3.93,-7.15 3.32,-0.29 19.56,-0.64 21.48,0.78 2.05,1.52 1.41,7.33 1.41,10.3 0.01,4.41 0.58,6.9 -3.85,7.31 -4.69,0.43 -18.07,0.37 -22.09,-0.47zm0.77 -39.86c-0.9,2.63 -1.56,0.7 -4.28,3.52 -1.4,1.45 -1.9,3.23 -2.03,5.9 -0.48,9.88 -0.52,73.41 0.12,79.03 0.6,5.33 4.74,6.57 9.57,6.66 5.31,0.11 10.95,0.07 16.26,-0.06 12.77,-0.3 10.16,-6.8 10.16,-21.77l0.03 -63.81c-0.17,-12.45 -13.79,-7.24 -23.78,-8.78l-0.36 -6.71c-5.51,-2.8 -5.69,0.86 -5.69,6.02z"/>
  </g>
  <rect class="fil2" width="133.51" height="133.51"/>
 </g>
</svg>
