<?xml version="1.0" encoding="UTF-8"?>
<!DOCTYPE svg PUBLIC "-//W3C//DTD SVG 1.1//EN" "http://www.w3.org/Graphics/SVG/1.1/DTD/svg11.dtd">
<!-- Creator: CorelDRAW 2019 (64-Bit) -->
<svg xmlns="http://www.w3.org/2000/svg" xml:space="preserve" width="0.557791in" height="0.719634in" version="1.1" style="shape-rendering:geometricPrecision; text-rendering:geometricPrecision; image-rendering:optimizeQuality; fill-rule:evenodd; clip-rule:evenodd"
viewBox="0 0 48.04 61.97"
 xmlns:xlink="http://www.w3.org/1999/xlink">
 <defs>
  <style type="text/css">
   <![CDATA[
    .fil1 {fill:#FEFEFE}
    .fil0 {fill:#088A4E;fill-rule:nonzero}
   ]]>
  </style>
 </defs>
 <g id="Layer_x0020_1">
  <metadata id="CorelCorpID_0Corel-Layer"/>
  <g id="_2364297988960">
   <g>
    <path class="fil0" d="M15.28 11.38l10.32 10.19 0 -0 0.17 -0.15 0.15 -0.16 0.14 -0.17 0.12 -0.17 0.1 -0.17 0.08 -0.17 0.06 -0.16 0.04 -0.15 0.03 -0.15 0.02 -0.14 0.01 -0.13 -0 -0.13 -0.01 -0.13 -0.02 -0.13 -0.03 -0.13 -0.04 -0.12 -0.06 -0.13 -0.07 -0.13 -0.09 -0.14 -0.1 -0.14 -0.12 -0.14 -0.14 -0.14 -0.16 -0.13 -0.18 -0.13 -0.19 -0.11 -0.19 -0.1 -0.2 -0.08 -0.19 -0.06 -0.17 -0.04 -0.15 -0.03 -0.12 -0.01 -0.08 -0 0 13.74 -1.06 -0.03 -1.05 -0.11 -1.04 -0.18 -1.02 -0.25 -0.99 -0.32 -0.95 -0.39 -0.9 -0.45 -0.84 -0.51 -0.79 -0.57 -0.72 -0.61 -0.66 -0.65 -0.59 -0.68 -0.52 -0.71 -0.46 -0.73 -0.39 -0.75 -0.33 -0.76 -0.27 -0.77 -0.21 -0.78 -0.15 -0.79 -0.09 -0.8 -0.03 -0.81 0.04 -0.81 0.1 -0.81 0.16 -0.81 0.23 -0.81 0.3 -0.8 0.37 -0.79 0.44 -0.77 0.52 -0.75 0.59 -0.72 0.66 -0.69 0.73 -0.64 0 -0zm-0 0c3.15,-2.55 8.01,-2.33 10.86,0.48 2.85,2.81 2.61,7.16 -0.54,9.71l-10.32 -10.19zm21.7 8.42l-15.38 0 0 0 0.01 0.25 0.03 0.24 0.05 0.22 0.06 0.2 0.07 0.18 0.08 0.16 0.08 0.14 0.09 0.12 0.09 0.1 0.09 0.09 0.09 0.08 0.09 0.07 0.09 0.07 0.1 0.06 0.1 0.06 0.11 0.05 0.12 0.05 0.13 0.05 0.15 0.04 0.17 0.03 0.18 0.02 0.19 0.01 0.21 0 0.22 -0.01 0.22 -0.03 0.22 -0.05 0.21 -0.06 0.21 -0.07 0.18 -0.08 0.15 -0.08 0.13 -0.08 0.09 -0.07 -10.32 -10.19 0.79 -0.59 0.84 -0.54 0.88 -0.47 0.92 -0.41 0.95 -0.34 0.96 -0.27 0.97 -0.2 0.98 -0.13 0.97 -0.06 0.95 0.01 0.93 0.07 0.91 0.13 0.88 0.18 0.85 0.23 0.82 0.28 0.79 0.32 0.75 0.36 0.72 0.4 0.69 0.44 0.66 0.48 0.62 0.51 0.59 0.55 0.55 0.58 0.51 0.62 0.47 0.66 0.42 0.7 0.38 0.73 0.32 0.77 0.26 0.81 0.19 0.84 0.12 0.87 0.04 0.89 0 0zm0 0c0,3.79 -3.44,6.87 -7.69,6.87 -4.25,0 -7.69,-3.08 -7.69,-6.87l15.38 0zm-12.81 11.65l0 -13.74 0 0 -0.21 0.01 -0.21 0.02 -0.19 0.03 -0.18 0.03 -0.17 0.04 -0.15 0.04 -0.14 0.05 -0.13 0.05 -0.11 0.05 -0.1 0.05 -0.09 0.05 -0.08 0.05 -0.07 0.05 -0.07 0.05 -0.06 0.05 -0.05 0.05 -0.05 0.05 -0.05 0.06 -0.05 0.05 -0.04 0.06 -0.04 0.06 -0.04 0.07 -0.04 0.07 -0.04 0.08 -0.04 0.09 -0.03 0.09 -0.03 0.1 -0.03 0.12 -0.03 0.12 -0.02 0.13 -0.01 0.14 -0 0.15 15.38 0 -0.02 0.6 -0.05 0.59 -0.09 0.58 -0.12 0.57 -0.15 0.56 -0.18 0.53 -0.2 0.52 -0.23 0.51 -0.25 0.5 -0.28 0.48 -0.3 0.46 -0.32 0.45 -0.34 0.44 -0.36 0.42 -0.38 0.41 -0.4 0.39 -0.42 0.38 -0.44 0.37 -0.46 0.35 -0.48 0.33 -0.5 0.31 -0.52 0.29 -0.54 0.28 -0.56 0.25 -0.59 0.23 -0.61 0.21 -0.63 0.18 -0.65 0.15 -0.67 0.12 -0.69 0.09 -0.71 0.06 -0.71 0.02 0 0zm0 0c-4.25,0 -7.69,-3.08 -7.69,-6.87 0,-3.79 3.44,-6.87 7.69,-6.87l0 13.74zm-4.04 -2.28l-13.83 6.02 0 0 -0.19 -0.34 -0.19 -0.35 -0.2 -0.36 -0.2 -0.37 -0.2 -0.38 -0.2 -0.39 -0.2 -0.39 -0.2 -0.4 -0.2 -0.41 -0.2 -0.42 -0.2 -0.42 -0.2 -0.43 -0.2 -0.44 -0.2 -0.45 -0.19 -0.46 -0.19 -0.46 -0.18 -0.47 -0.18 -0.48 -0.17 -0.49 -0.16 -0.49 -0.16 -0.5 -0.15 -0.52 -0.14 -0.52 -0.13 -0.53 -0.12 -0.54 -0.11 -0.54 -0.09 -0.55 -0.08 -0.56 -0.06 -0.57 -0.05 -0.58 -0.03 -0.59 -0.01 -0.59 15.38 0 0 0.19 0.01 0.2 0.02 0.21 0.02 0.21 0.03 0.22 0.04 0.23 0.05 0.24 0.05 0.25 0.06 0.25 0.07 0.26 0.08 0.26 0.09 0.27 0.09 0.28 0.1 0.28 0.11 0.28 0.11 0.29 0.12 0.3 0.13 0.3 0.13 0.3 0.14 0.31 0.14 0.31 0.15 0.31 0.15 0.31 0.16 0.32 0.16 0.32 0.17 0.32 0.17 0.32 0.17 0.32 0.17 0.33 0.17 0.32 0.18 0.33 0.18 0.33 0 0zm0 0c1.86,3.41 0.27,7.52 -3.55,9.19 -3.82,1.66 -8.42,0.24 -10.28,-3.17l13.83 -6.02zm1.76 2.96l-13.16 7.11 -0 -0 -0.09 -0.13 -0.08 -0.12 -0.09 -0.13 -0.09 -0.13 -0.08 -0.12 -0.08 -0.12 -0.09 -0.14 -0.08 -0.13 -0.08 -0.12 -0.08 -0.13 -0.08 -0.13 -0.08 -0.13 -0.08 -0.13 -0.08 -0.13 -0.08 -0.13 -0.08 -0.13 -0.08 -0.13 -0.07 -0.12 -0.08 -0.13 -0.07 -0.13 -0.07 -0.13 -0.07 -0.12 -0.07 -0.12 -0.07 -0.13 -0.07 -0.12 -0.07 -0.12 -0.07 -0.13 -0.07 -0.12 -0.07 -0.12 -0.06 -0.12 -0.06 -0.12 -0.07 -0.12 13.83 -6.02 0.05 0.09 0.05 0.1 0.05 0.1 0.05 0.09 0.06 0.1 0.05 0.09 0.06 0.1 0.06 0.1 0.05 0.09 0.06 0.1 0.06 0.1 0.06 0.1 0.06 0.1 0.05 0.09 0.06 0.1 0.06 0.1 0.05 0.09 0.06 0.1 0.06 0.1 0.06 0.1 0.05 0.09 0.05 0.09 0.05 0.09 0.06 0.1 0.06 0.09 0.05 0.08 0.06 0.09 0.06 0.09 0.05 0.07 0.05 0.07 0.05 0.08 0.05 0.07 -0 -0zm0 0c2.2,3.25 1.03,7.47 -2.61,9.43 -3.64,1.96 -8.36,0.92 -10.56,-2.33l13.17 -7.11zm-4.39 13.3l13.34 6.85 -11.21 2.12 -1.25 -1.02 -0.51 -0.55 -0.34 -0.42 -0.3 -0.39 -0.29 -0.39 -0.3 -0.41 -0.31 -0.44 -0.32 -0.46 -0.34 -0.49 -0.35 -0.51 -0.36 -0.53 -0.37 -0.55 -0.38 -0.56 -0.38 -0.58 -0.38 -0.58 -0.38 -0.59 -0.38 -0.59 -0.38 -0.59 -0.37 -0.58 -0.37 -0.56 -0.36 -0.55 -0.34 -0.53 -0.33 -0.51 -0.31 -0.48 -0.29 -0.45 -0.27 -0.42 -0.24 -0.38 -0.21 -0.33 -0.18 -0.29 -0.15 -0.23 -0.1 -0.16 -0.04 -0.06 13.16 -7.11 0.13 0.2 0.14 0.22 0.17 0.26 0.19 0.3 0.22 0.34 0.25 0.38 0.27 0.42 0.29 0.45 0.31 0.48 0.32 0.5 0.34 0.52 0.35 0.54 0.36 0.56 0.37 0.56 0.37 0.57 0.37 0.57 0.37 0.57 0.37 0.56 0.36 0.55 0.35 0.53 0.34 0.52 0.33 0.49 0.31 0.46 0.29 0.43 0.27 0.39 0.24 0.33 0.2 0.28 0.16 0.21 0.09 0.12 -0.01 -0.02 -0.25 -0.26 -1.06 -0.85 -11.21 2.12zm11.21 -2.12c3.43,2.24 4.17,6.54 1.66,9.6 -2.51,3.06 -7.32,3.72 -10.75,1.48l9.09 -11.08zm11.55 -5.69l-9.42 14.66 -13.34 -6.85 9.42 -14.66 13.44 6.67 -0.11 0.17zm-13.34 -6.85c2.12,-3.29 6.82,-4.42 10.5,-2.53 3.68,1.89 4.95,6.09 2.84,9.38l-13.34 -6.85zm3.76 -7.49l14.74 3.94 0 0 -0.13 0.37 -0.13 0.37 -0.13 0.36 -0.14 0.36 -0.14 0.36 -0.14 0.35 -0.15 0.35 -0.15 0.35 -0.15 0.34 -0.15 0.34 -0.16 0.34 -0.16 0.33 -0.16 0.33 -0.16 0.32 -0.16 0.32 -0.16 0.32 -0.16 0.31 -0.17 0.31 -0.17 0.31 -0.17 0.31 -0.17 0.3 -0.17 0.3 -0.17 0.3 -0.17 0.3 -0.17 0.29 -0.17 0.29 -0.17 0.29 -0.17 0.29 -0.17 0.28 -0.17 0.28 -0.17 0.28 -0.17 0.28 -13.55 -6.5 0.16 -0.26 0.16 -0.26 0.15 -0.26 0.15 -0.25 0.15 -0.25 0.15 -0.25 0.15 -0.26 0.14 -0.25 0.14 -0.25 0.14 -0.25 0.14 -0.25 0.13 -0.24 0.13 -0.24 0.13 -0.24 0.13 -0.24 0.12 -0.24 0.12 -0.24 0.12 -0.23 0.12 -0.24 0.11 -0.23 0.11 -0.23 0.11 -0.23 0.1 -0.23 0.1 -0.23 0.1 -0.23 0.1 -0.23 0.09 -0.23 0.09 -0.23 0.09 -0.22 0.08 -0.23 0.08 -0.23 0.08 -0.23 0 0zm0 0c1.22,-3.64 5.5,-5.7 9.57,-4.61 4.07,1.09 6.38,4.92 5.16,8.55l-14.74 -3.94zm-1.79 -7.74l10.92 -9.68 0 0 0.58 0.54 0.56 0.56 0.54 0.57 0.52 0.59 0.49 0.6 0.46 0.61 0.44 0.63 0.41 0.63 0.38 0.65 0.36 0.66 0.33 0.67 0.3 0.68 0.27 0.68 0.24 0.69 0.21 0.7 0.18 0.7 0.15 0.7 0.13 0.71 0.1 0.71 0.07 0.71 0.04 0.71 0.02 0.71 -0.01 0.71 -0.04 0.71 -0.06 0.7 -0.09 0.7 -0.11 0.7 -0.13 0.69 -0.15 0.69 -0.18 0.69 -0.2 0.68 -0.22 0.68 -14.74 -3.94 0.11 -0.34 0.09 -0.33 0.08 -0.32 0.07 -0.31 0.06 -0.3 0.05 -0.29 0.03 -0.28 0.02 -0.28 0.01 -0.27 0 -0.26 -0.01 -0.25 -0.01 -0.24 -0.02 -0.24 -0.03 -0.23 -0.04 -0.22 -0.05 -0.22 -0.06 -0.21 -0.06 -0.21 -0.07 -0.21 -0.08 -0.21 -0.09 -0.2 -0.1 -0.2 -0.11 -0.2 -0.12 -0.21 -0.13 -0.21 -0.14 -0.21 -0.16 -0.21 -0.17 -0.21 -0.19 -0.21 -0.21 -0.22 -0.22 -0.22 -0.24 -0.23 0 0zm0 -0c-2.99,-2.69 -2.97,-7.05 0.05,-9.72 3.02,-2.67 7.89,-2.65 10.88,0.04l-10.92 9.68zm-12.18 4.66l-15.38 0 0 0 0.07 -1.59 0.21 -1.56 0.34 -1.52 0.46 -1.47 0.58 -1.42 0.69 -1.36 0.8 -1.29 0.89 -1.22 0.98 -1.15 1.06 -1.08 1.13 -1 1.2 -0.92 1.26 -0.85 1.32 -0.77 1.37 -0.69 1.42 -0.6 1.46 -0.52 1.5 -0.43 1.54 -0.34 1.57 -0.24 1.59 -0.15 1.61 -0.05 1.63 0.06 1.63 0.17 1.63 0.29 1.63 0.4 1.6 0.52 1.57 0.65 1.53 0.77 1.47 0.89 1.41 1 1.34 1.11 -10.92 9.68 -0.46 -0.38 -0.45 -0.32 -0.45 -0.27 -0.45 -0.22 -0.45 -0.18 -0.45 -0.15 -0.46 -0.11 -0.47 -0.08 -0.48 -0.05 -0.49 -0.02 -0.5 0.01 -0.51 0.05 -0.51 0.08 -0.51 0.11 -0.51 0.15 -0.5 0.18 -0.49 0.21 -0.47 0.24 -0.46 0.27 -0.43 0.29 -0.41 0.31 -0.38 0.33 -0.35 0.35 -0.31 0.37 -0.28 0.38 -0.24 0.4 -0.21 0.41 -0.17 0.42 -0.14 0.44 -0.1 0.46 -0.06 0.48 -0.02 0.51 0 0zm0 0c0,3.79 -3.44,6.87 -7.69,6.87 -4.25,0 -7.69,-3.08 -7.69,-6.87l15.38 0z"/>
    <path id="1" class="fil1" d="M24.17 24.58c-5.31,0 -6.89,-5.55 -3.73,-8.1 3.69,-2.98 8.85,-0.09 8.85,3.33 0,2.43 -2.42,4.77 -5.12,4.77zm-15.14 -4.38c0,4.17 2.25,8.43 4.18,11.98 0.62,1.13 1.38,2.44 2.09,3.5 0.73,1.09 8.04,12.63 8.86,13.17l9.42 -14.66c1.73,-2.88 3.39,-5.75 4.46,-8.94 1.82,-5.44 0.81,-10.48 -3.7,-14.55 -9.38,-8.45 -25.33,-1.86 -25.33,9.5z"/>
   </g>
   <g>
    <path class="fil0" d="M18.13 47.67l-3.75 13.33 0 0 -0.44 -0.1 -0.45 -0.11 -0.46 -0.12 -0.47 -0.13 -0.48 -0.14 -0.49 -0.15 -0.49 -0.16 -0.51 -0.17 -0.51 -0.19 -0.51 -0.2 -0.52 -0.22 -0.53 -0.23 -0.53 -0.25 -0.53 -0.27 -0.54 -0.29 -0.54 -0.31 -0.54 -0.34 -0.54 -0.37 -0.54 -0.39 -0.54 -0.43 -0.53 -0.47 -0.52 -0.51 -0.5 -0.55 -0.48 -0.6 -0.46 -0.64 -0.42 -0.69 -0.38 -0.74 -0.32 -0.78 -0.26 -0.81 -0.19 -0.85 -0.12 -0.87 -0.04 -0.87 15.38 0 -0.01 -0.2 -0.03 -0.22 -0.05 -0.22 -0.06 -0.21 -0.08 -0.19 -0.09 -0.17 -0.09 -0.14 -0.08 -0.11 -0.07 -0.08 -0.05 -0.05 -0.03 -0.03 -0.01 -0.01 0.01 0.01 0.04 0.03 0.06 0.04 0.09 0.05 0.11 0.06 0.13 0.07 0.15 0.07 0.17 0.08 0.18 0.08 0.19 0.08 0.21 0.08 0.21 0.08 0.22 0.08 0.23 0.07 0.23 0.07 0.23 0.07 0.24 0.06 0.24 0.06 0.23 0.06 0.22 0.05 0 0zm-0 -0c4.12,0.92 6.62,4.66 5.58,8.34 -1.04,3.68 -5.21,5.91 -9.33,4.99l3.75 -13.33zm10.92 0.16l2.67 13.53 0 0 -0.52 0.08 -0.52 0.07 -0.52 0.07 -0.53 0.06 -0.53 0.06 -0.53 0.05 -0.54 0.05 -0.53 0.04 -0.54 0.04 -0.54 0.03 -0.54 0.02 -0.55 0.02 -0.54 0.01 -0.54 0.01 -0.55 0 -0.55 -0 -0.55 -0.01 -0.55 -0.02 -0.55 -0.02 -0.55 -0.03 -0.55 -0.04 -0.55 -0.04 -0.55 -0.05 -0.55 -0.06 -0.55 -0.06 -0.55 -0.07 -0.55 -0.08 -0.55 -0.09 -0.54 -0.09 -0.54 -0.1 -0.54 -0.11 -0.54 -0.12 3.75 -13.33 0.28 0.06 0.29 0.06 0.3 0.05 0.31 0.05 0.31 0.05 0.32 0.04 0.33 0.04 0.33 0.04 0.34 0.03 0.34 0.03 0.34 0.03 0.35 0.02 0.35 0.02 0.35 0.01 0.36 0.01 0.36 0.01 0.36 0 0.36 -0 0.36 -0.01 0.36 -0.01 0.36 -0.01 0.36 -0.02 0.36 -0.02 0.36 -0.02 0.36 -0.03 0.35 -0.03 0.35 -0.03 0.35 -0.04 0.35 -0.04 0.34 -0.04 0.34 -0.05 0.33 -0.05 0 0zm0 0c4.18,-0.66 8.17,1.84 8.91,5.57 0.74,3.74 -2.05,7.3 -6.24,7.96l-2.67 -13.53zm4.11 1.74l10.2 -10.29 0 -0 0.82 0.69 0.77 0.75 0.71 0.82 0.64 0.88 0.56 0.95 0.47 1.01 0.36 1.05 0.24 1.09 0.11 1.11 -0.02 1.11 -0.15 1.08 -0.27 1.05 -0.37 1 -0.46 0.94 -0.54 0.87 -0.6 0.81 -0.65 0.75 -0.69 0.69 -0.73 0.64 -0.76 0.59 -0.79 0.54 -0.82 0.5 -0.84 0.46 -0.87 0.43 -0.89 0.39 -0.91 0.36 -0.94 0.33 -0.96 0.3 -0.98 0.27 -1 0.24 -1.02 0.21 -1.04 0.18 -2.67 -13.53 0.53 -0.09 0.5 -0.1 0.47 -0.11 0.43 -0.12 0.4 -0.12 0.36 -0.13 0.32 -0.13 0.29 -0.13 0.24 -0.12 0.2 -0.11 0.16 -0.1 0.12 -0.08 0.07 -0.06 0.03 -0.03 -0.01 0.01 -0.04 0.05 -0.07 0.09 -0.09 0.14 -0.1 0.2 -0.09 0.25 -0.07 0.29 -0.04 0.32 -0.01 0.34 0.03 0.34 0.07 0.32 0.09 0.28 0.11 0.23 0.1 0.18 0.08 0.11 0.05 0.06 0 0 -0.06 -0.05 0 -0zm0 0c-3.18,-2.52 -3.47,-6.86 -0.66,-9.7 2.82,-2.84 7.68,-3.1 10.86,-0.59l-10.2 10.29zm6.5 -4.27l-13.6 -6.42 8.54 -3.48 0.32 0.07 0.31 0.07 0.3 0.08 0.3 0.08 0.28 0.08 0.28 0.08 0.28 0.09 0.27 0.09 0.28 0.09 0.27 0.1 0.27 0.1 0.28 0.1 0.27 0.1 0.27 0.11 0.26 0.11 0.27 0.11 0.27 0.12 0.26 0.12 0.26 0.12 0.26 0.12 0.26 0.13 0.26 0.13 0.26 0.14 0.25 0.14 0.26 0.14 0.26 0.15 0.26 0.15 0.26 0.16 0.27 0.17 0.28 0.19 0.28 0.2 0.3 0.23 -10.2 10.29 0.08 0.06 0.05 0.04 0.03 0.02 0.01 0 -0.01 -0.01 -0.03 -0.02 -0.04 -0.02 -0.05 -0.03 -0.07 -0.04 -0.08 -0.04 -0.09 -0.04 -0.09 -0.04 -0.1 -0.05 -0.11 -0.05 -0.11 -0.05 -0.11 -0.05 -0.11 -0.05 -0.12 -0.05 -0.12 -0.05 -0.12 -0.05 -0.11 -0.04 -0.11 -0.04 -0.11 -0.04 -0.1 -0.03 -0.1 -0.03 -0.09 -0.03 -0.08 -0.02 -0.07 -0.02 -0.04 -0.01 -0.04 -0.01 -0.02 -0 0.01 0 8.54 -3.48zm-8.54 3.48c-4.14,-0.86 -6.71,-4.56 -5.74,-8.25 0.96,-3.7 5.1,-5.99 9.23,-5.13l-3.49 13.38zm0.38 -10.16l-1.28 13.69 -6.85 -8.41 0.13 -0.44 0.13 -0.36 0.12 -0.3 0.12 -0.26 0.11 -0.24 0.11 -0.23 0.1 -0.2 0.1 -0.19 0.11 -0.19 0.1 -0.17 0.1 -0.17 0.1 -0.17 0.1 -0.16 0.1 -0.15 0.1 -0.16 0.09 -0.14 0.09 -0.14 0.1 -0.15 0.09 -0.13 0.08 -0.12 0.09 -0.13 0.08 -0.12 0.08 -0.11 0.07 -0.11 0.07 -0.11 0.06 -0.1 0.05 -0.08 0.05 -0.07 0.04 -0.06 0.03 -0.04 0.02 -0.03 0 -0.01 13.6 6.42 -0.09 0.15 -0.08 0.13 -0.08 0.13 -0.08 0.13 -0.08 0.12 -0.08 0.13 -0.08 0.12 -0.07 0.11 -0.08 0.12 -0.08 0.12 -0.07 0.11 -0.07 0.11 -0.08 0.12 -0.07 0.11 -0.06 0.1 -0.07 0.11 -0.07 0.1 -0.05 0.09 -0.06 0.09 -0.05 0.08 -0.04 0.07 -0.04 0.07 -0.03 0.05 -0.02 0.03 -0.01 0.02 -0.01 0.01 0.01 -0.03 0.02 -0.05 0.04 -0.08 0.05 -0.13 0.07 -0.2 0.09 -0.29 -6.85 -8.41zm6.85 8.41c-0.96,3.7 -5.1,5.99 -9.24,5.13 -4.14,-0.86 -6.71,-4.56 -5.74,-8.25l14.98 3.12zm-5.68 10.34l-3.52 -13.38 0 0 0.62 -0.14 0.49 -0.13 0.37 -0.11 0.23 -0.08 0.09 -0.04 -0.06 0.03 -0.21 0.12 -0.36 0.26 -0.5 0.45 -0.57 0.7 -0.53 0.98 -0.34 1.21 -0.04 1.28 0.23 1.16 0.4 0.93 0.44 0.68 0.41 0.47 0.33 0.3 0.25 0.19 0.17 0.11 0.1 0.06 0.04 0.02 -0 -0 -0.04 -0.02 -0.07 -0.02 -0.08 -0.03 -0.09 -0.03 -0.09 -0.02 -0.07 -0.02 -0.05 -0.01 -0.01 -0 0.04 0 1.28 -13.69 0.69 0.07 0.66 0.09 0.64 0.11 0.64 0.13 0.63 0.16 0.62 0.17 0.62 0.2 0.63 0.22 0.63 0.25 0.64 0.29 0.65 0.33 0.66 0.38 0.69 0.45 0.71 0.54 0.73 0.67 0.74 0.84 0.7 1.07 0.57 1.32 0.32 1.56 -0.06 1.69 -0.46 1.62 -0.75 1.4 -0.91 1.13 -0.97 0.88 -0.96 0.68 -0.95 0.54 -0.94 0.44 -0.94 0.38 -0.96 0.33 -0.99 0.29 -1.03 0.27 -1.09 0.24 0 0zm-0 0c-4.13,0.87 -8.28,-1.42 -9.25,-5.11 -0.97,-3.69 1.59,-7.39 5.72,-8.26l3.52 13.38zm-17.48 -0.01l3.63 -13.35 -0 -0 0.32 0.07 0.32 0.06 0.32 0.06 0.32 0.05 0.32 0.05 0.32 0.04 0.32 0.04 0.32 0.04 0.32 0.03 0.32 0.03 0.32 0.02 0.32 0.02 0.32 0.01 0.32 0.01 0.32 0.01 0.33 0 0.32 -0 0.32 -0.01 0.33 -0.01 0.32 -0.02 0.32 -0.02 0.33 -0.02 0.32 -0.03 0.33 -0.03 0.33 -0.04 0.32 -0.04 0.33 -0.05 0.33 -0.05 0.32 -0.05 0.33 -0.06 0.33 -0.06 0.33 -0.07 3.52 13.38 -0.53 0.11 -0.54 0.1 -0.54 0.1 -0.54 0.09 -0.54 0.08 -0.54 0.07 -0.55 0.07 -0.54 0.06 -0.54 0.05 -0.55 0.05 -0.54 0.04 -0.55 0.03 -0.55 0.03 -0.54 0.02 -0.55 0.01 -0.55 0 -0.55 -0 -0.55 -0.01 -0.55 -0.02 -0.55 -0.02 -0.55 -0.03 -0.55 -0.04 -0.55 -0.05 -0.55 -0.05 -0.55 -0.06 -0.55 -0.07 -0.55 -0.08 -0.55 -0.08 -0.55 -0.09 -0.55 -0.1 -0.55 -0.11 -0.55 -0.11 -0 -0zm0 0c-4.13,-0.89 -6.66,-4.61 -5.66,-8.3 1,-3.69 5.16,-5.95 9.29,-5.06l-3.62 13.36zm-4.12 -1.22l6.17 -12.59 -0 -0 0.01 0.01 0.01 0.01 0.05 0.02 0.03 0.01 0.02 0.01 0.04 0.01 0.05 0.02 0.05 0.02 0.05 0.02 0.05 0.02 0.03 0.01 0.05 0.02 0.07 0.02 0.05 0.01 0.05 0.01 0.06 0.02 0.07 0.02 0.06 0.02 0.05 0.01 0.06 0.02 0.05 0.01 0.07 0.02 0.07 0.02 0.05 0.01 0.06 0.02 0.07 0.02 0.06 0.02 0.03 0.01 0.06 0.01 0.06 0.02 0.03 0.01 0.05 0.01 -3.63 13.35 -0.13 -0.03 -0.15 -0.03 -0.12 -0.03 -0.13 -0.03 -0.15 -0.04 -0.12 -0.03 -0.12 -0.03 -0.13 -0.03 -0.14 -0.04 -0.12 -0.03 -0.12 -0.03 -0.14 -0.04 -0.12 -0.03 -0.14 -0.04 -0.13 -0.04 -0.11 -0.03 -0.12 -0.04 -0.14 -0.04 -0.13 -0.04 -0.11 -0.03 -0.13 -0.04 -0.14 -0.05 -0.13 -0.04 -0.12 -0.04 -0.12 -0.04 -0.12 -0.04 -0.13 -0.04 -0.14 -0.05 -0.13 -0.05 -0.11 -0.04 -0.14 -0.05 -0.13 -0.05 -0 -0zm0 0c-3.89,-1.52 -5.66,-5.58 -3.96,-9.05 1.7,-3.48 6.24,-5.06 10.13,-3.54l-6.17 12.59zm-3.26 -14.48l9.55 10.77 -0 0 0.23 -0.18 0.27 -0.24 0.31 -0.32 0.33 -0.4 0.32 -0.48 0.31 -0.59 0.25 -0.67 0.16 -0.72 0.06 -0.75 -0.04 -0.73 -0.13 -0.68 -0.19 -0.61 -0.24 -0.53 -0.25 -0.43 -0.25 -0.37 -0.24 -0.29 -0.22 -0.23 -0.2 -0.19 -0.16 -0.14 -0.14 -0.11 -0.13 -0.09 -0.08 -0.06 -0.07 -0.04 -0.06 -0.04 -0.03 -0.02 -0.03 -0.01 -0.01 -0 0.01 0.01 0.01 0 0.01 0.01 0.03 0.01 0.03 0.01 -6.17 12.59 -0.24 -0.1 -0.25 -0.1 -0.26 -0.11 -0.26 -0.12 -0.26 -0.12 -0.28 -0.14 -0.29 -0.15 -0.29 -0.16 -0.31 -0.19 -0.31 -0.2 -0.32 -0.22 -0.35 -0.25 -0.35 -0.28 -0.36 -0.31 -0.38 -0.36 -0.38 -0.41 -0.39 -0.48 -0.38 -0.55 -0.36 -0.62 -0.32 -0.72 -0.26 -0.8 -0.16 -0.88 -0.05 -0.94 0.08 -0.95 0.21 -0.92 0.32 -0.87 0.42 -0.8 0.47 -0.7 0.51 -0.62 0.53 -0.53 0.53 -0.46 0.52 -0.4 -0 0zm0 -0c3.33,-2.36 8.17,-1.86 10.8,1.12 2.64,2.97 2.08,7.3 -1.25,9.65l-9.55 -10.77zm1.58 4.38l15.33 -1.14 -7.02 7.42 0.19 -0.02 0.14 -0.02 0.08 -0.01 0.06 -0.01 0.02 -0 -0 0 -0.02 0 -0.03 0.01 -0.05 0.01 -0.05 0.02 -0.07 0.02 -0.08 0.02 -0.07 0.02 -0.09 0.03 -0.09 0.03 -0.08 0.03 -0.09 0.03 -0.08 0.03 -0.07 0.03 -0.08 0.03 -0.07 0.03 -0.06 0.03 -0.05 0.02 -0.05 0.02 -0.03 0.01 -0.01 0.01 -0 0 0.02 -0.01 0.05 -0.03 0.08 -0.05 0.11 -0.07 0.15 -0.1 -9.55 -10.77 0.33 -0.22 0.31 -0.19 0.29 -0.17 0.27 -0.15 0.26 -0.14 0.25 -0.13 0.25 -0.12 0.24 -0.11 0.24 -0.11 0.24 -0.11 0.24 -0.1 0.24 -0.1 0.23 -0.09 0.24 -0.09 0.24 -0.09 0.23 -0.08 0.24 -0.08 0.24 -0.08 0.24 -0.08 0.25 -0.08 0.24 -0.07 0.24 -0.07 0.26 -0.07 0.26 -0.07 0.26 -0.07 0.27 -0.06 0.28 -0.06 0.29 -0.06 0.32 -0.06 0.33 -0.05 0.37 -0.05 0.41 -0.04 -7.02 7.42zm7.02 -7.42c4.23,-0.32 7.95,2.49 8.3,6.28 0.35,3.78 -2.79,7.1 -7.02,7.42l-1.28 -13.69zm-6.89 8.54l13.43 -6.71 0 0 -0.02 -0.03 -0.02 -0.03 -0.01 -0.02 -0 -0.01 -0 -0 0 0 0.01 0.01 0.03 0.04 0.03 0.04 0.03 0.04 0.06 0.08 0.07 0.09 0.07 0.1 0.08 0.12 0.09 0.14 0.11 0.17 0.1 0.16 0.12 0.2 0.12 0.22 0.1 0.2 0.12 0.25 0.1 0.24 0.09 0.22 0.09 0.27 0.08 0.25 0.07 0.24 0.06 0.25 0.06 0.26 0.04 0.24 0.04 0.23 0.03 0.24 0.02 0.22 -15.33 1.14 0.01 0.07 0.01 0.09 0.01 0.09 0.02 0.11 0.03 0.14 0.03 0.13 0.03 0.12 0.04 0.14 0.06 0.16 0.05 0.12 0.06 0.14 0.07 0.15 0.05 0.11 0.07 0.13 0.06 0.11 0.05 0.08 0.05 0.08 0.04 0.06 0.02 0.03 0.01 0.02 0.01 0.01 -0 -0 -0.03 -0.04 -0.04 -0.05 -0.04 -0.05 -0.06 -0.08 -0.07 -0.09 -0.07 -0.1 -0.08 -0.11 -0.08 -0.12 -0.09 -0.14 -0.09 -0.14 0 0zm-0 -0c-2.07,-3.31 -0.74,-7.5 2.97,-9.35 3.71,-1.85 8.39,-0.66 10.46,2.65l-13.43 6.7zm6.39 1.78l-1.28 -13.69 8.13 5.29 -0.02 -0.09 -0.03 -0.09 -0.03 -0.09 -0.03 -0.08 -0.03 -0.08 -0.03 -0.08 -0.03 -0.07 -0.03 -0.07 -0.04 -0.07 -0.03 -0.06 -0.02 -0.05 -0.02 -0.04 -0.03 -0.05 -0.02 -0.04 -0 -0 -0.01 -0.01 -0.01 -0.01 0.01 0.01 -0 -0 0.02 0.03 0.03 0.04 0.02 0.03 0.04 0.05 0.04 0.05 0.03 0.05 0.06 0.08 0.05 0.08 0.05 0.07 0.07 0.1 0.06 0.09 0.06 0.1 0.07 0.11 -13.43 6.71 -0 -0.01 -0.01 -0.02 -0.01 -0.02 -0.01 -0.01 -0.03 -0.04 -0.02 -0.03 -0.02 -0.02 -0.04 -0.06 -0.04 -0.05 -0.03 -0.05 -0.05 -0.08 -0.04 -0.06 -0.05 -0.07 -0.07 -0.1 -0.06 -0.09 -0.07 -0.11 -0.07 -0.11 -0.06 -0.1 -0.08 -0.14 -0.09 -0.15 -0.08 -0.14 -0.08 -0.15 -0.08 -0.17 -0.09 -0.18 -0.08 -0.17 -0.08 -0.18 -0.08 -0.19 -0.07 -0.19 -0.07 -0.2 -0.07 -0.21 -0.06 -0.21 -0.06 -0.21 8.13 5.29zm-8.13 -5.29c-0.96,-3.7 1.61,-7.39 5.74,-8.25 4.14,-0.86 8.27,1.44 9.23,5.13l-14.98 3.12zm7.61 4.41l-15.38 0 0 0 0.04 -0.92 0.13 -0.9 0.21 -0.87 0.28 -0.82 0.34 -0.77 0.38 -0.72 0.42 -0.67 0.45 -0.62 0.47 -0.57 0.49 -0.53 0.5 -0.49 0.51 -0.45 0.51 -0.42 0.51 -0.39 0.52 -0.36 0.52 -0.34 0.51 -0.31 0.51 -0.29 0.51 -0.27 0.5 -0.25 0.51 -0.24 0.5 -0.22 0.5 -0.2 0.5 -0.19 0.5 -0.17 0.5 -0.16 0.5 -0.14 0.51 -0.13 0.52 -0.12 0.54 -0.1 0.59 -0.09 0.64 -0.06 1.28 13.69 0.24 -0.02 0.15 -0.02 0.07 -0.01 0.02 -0 -0.02 0.01 -0.06 0.02 -0.08 0.03 -0.1 0.03 -0.11 0.04 -0.12 0.05 -0.13 0.05 -0.13 0.06 -0.13 0.07 -0.12 0.06 -0.11 0.06 -0.11 0.06 -0.09 0.06 -0.08 0.05 -0.06 0.05 -0.04 0.03 -0.02 0.02 0 -0 0.02 -0.02 0.04 -0.05 0.06 -0.08 0.07 -0.11 0.08 -0.15 0.08 -0.18 0.07 -0.21 0.06 -0.24 0.04 -0.26 0.01 -0.27 0 0zm0 0c0,3.79 -3.44,6.87 -7.69,6.87 -4.25,0 -7.69,-3.08 -7.69,-6.87l15.38 0z"/>
    <path id="1" class="fil1" d="M7.69 48.05c0,3.6 5.07,5.49 8.56,6.28 4.36,0.98 9.6,0.98 14.13,0.26 8.55,-1.35 12.83,-6.26 7.88,-10.17 -1.1,-0.87 -3.75,-1.99 -5.4,-2.34 -0.46,0.78 -1.81,2.65 -2,3.38 3.38,0.25 9.62,3.2 0.05,5.21 -4.58,0.96 -9.3,1 -13.9,0 -0.95,-0.21 -2.07,-0.53 -2.85,-0.84 -1.43,-0.56 -3.23,-1.62 -1.57,-2.8 0.88,-0.62 3.37,-1.5 4.47,-1.58 -0.08,-0.84 -0.42,-1.03 -0.81,-1.66 -0.4,-0.64 -0.79,-1.05 -0.97,-1.72 -2.04,0.15 -7.57,2.44 -7.57,5.97z"/>
   </g>
  </g>
 </g>
</svg>
