<?xml version="1.0" encoding="UTF-8"?>
<!DOCTYPE svg PUBLIC "-//W3C//DTD SVG 1.1//EN" "http://www.w3.org/Graphics/SVG/1.1/DTD/svg11.dtd">
<!-- Creator: CorelDRAW 2019 (64-Bit) -->
<svg xmlns="http://www.w3.org/2000/svg" xml:space="preserve" width="2.3622in" height="2.3622in" version="1.1" style="shape-rendering:geometricPrecision; text-rendering:geometricPrecision; image-rendering:optimizeQuality; fill-rule:evenodd; clip-rule:evenodd"
viewBox="0 0 133.51 133.51"
 xmlns:xlink="http://www.w3.org/1999/xlink">
 <defs>
  <style type="text/css">
   <![CDATA[
    .fil4 {fill:none}
    .fil2 {fill:#FFF212}
    .fil3 {fill:white}
    .fil1 {fill:url(#id0)}
    .fil0 {fill:url(#id1)}
   ]]>
  </style>
  <linearGradient id="id0" gradientUnits="userSpaceOnUse" x1="66.21" y1="16.91" x2="67.27" y2="41.22">
   <stop offset="0" style="stop-opacity:1; stop-color:#76C04E"/>
   <stop offset="0.129412" style="stop-opacity:1; stop-color:#76C04E"/>
   <stop offset="0.258824" style="stop-opacity:1; stop-color:#A8CF45"/>
   <stop offset="0.521569" style="stop-opacity:1; stop-color:#FFF212"/>
   <stop offset="0.878431" style="stop-opacity:1; stop-color:#76C04E"/>
   <stop offset="1" style="stop-opacity:1; stop-color:#76C04E"/>
  </linearGradient>
  <linearGradient id="id1" gradientUnits="userSpaceOnUse" x1="67.36" y1="116.38" x2="66.1" y2="42.83">
   <stop offset="0" style="stop-opacity:1; stop-color:#76C04E"/>
   <stop offset="0.129412" style="stop-opacity:1; stop-color:#76C04E"/>
   <stop offset="0.258824" style="stop-opacity:1; stop-color:#A8CF45"/>
   <stop offset="0.521569" style="stop-opacity:1; stop-color:#FFF212"/>
   <stop offset="0.8" style="stop-opacity:1; stop-color:#76C04E"/>
   <stop offset="1" style="stop-opacity:1; stop-color:#76C04E"/>
  </linearGradient>
 </defs>
 <g id="Layer_x0020_1">
  <metadata id="CorelCorpID_0Corel-Layer"/>
  <g id="_1815592557104">
   <path class="fil0" d="M16.18 98.87c0.82,0.36 1.54,0.75 2.44,1.1 2.8,1.09 9.06,2.62 12.13,2.9l2.25 0.36c11.5,1.58 21.95,2.04 33.72,2.04 11.93,-0.01 21.99,-0.43 33.64,-2.03 4.62,-0.63 10.17,-1.64 14.4,-3.25 0.92,-0.35 1.72,-0.82 2.52,-1.13 -1.01,3.72 -11.77,5.67 -15.79,6.36 -8.21,1.39 -19.21,2.13 -27.42,2.26 -0.59,0.01 -1.18,0.03 -1.76,0.04 -0.3,0 -0.56,0.03 -0.83,0.05l-4.65 -0c-1.23,-0 -2.51,-0.05 -3.73,-0.02l-3.42 -0.06c-6.82,-0.12 -14.4,-0.59 -21.08,-1.35 -5.59,-0.64 -21.14,-2.74 -22.42,-7.28zm31.08 -13.11c1.05,-0.28 3.88,-0.15 5.18,-0.15 1.72,0 3.63,-0.05 5.34,0.04 1.02,0.29 1.03,1.12 1.03,2.26 -0.01,3.56 0.5,4.26 -2.45,4.26l-6.76 -0c-2.71,0 -3.21,0.25 -3.02,-3.77 0.02,-0.49 -0.04,-1.18 0.03,-1.64 0.1,-0.67 0.4,-0.65 0.66,-1zm10.39 -2.94l-9.93 -0c-1.17,-0.23 -1.14,-0.97 -1.14,-2.25 0.01,-3.83 -0.44,-4.27 2.62,-4.27l6.96 0c0.87,0 2.03,-0.24 2.51,0.78 0.26,0.55 0.13,2.64 0.13,3.39 0,1.17 -0.01,2.2 -1.15,2.35zm-7.97 -32.04l-0.25 -0.7c-0.29,-1.4 -0.47,-1.83 -0.45,-3.42 0.01,-1.23 0.04,-2.57 -0.01,-3.79 -5.72,0.74 -10.38,4.15 -12.34,8.18 -3.4,7 3.01,8.13 -12.08,29.15 -0.7,0.98 -1.38,2.03 -2.09,3 -1.78,2.4 -4.74,6.95 -6.13,9.44 -1.85,3.32 -3.63,7.27 -4.12,11.28 -0.22,1.79 -0.38,3.06 0.7,4.21 0.85,0.9 1.65,1.46 3,2.1 11.47,5.46 40.38,6.13 50.54,6.14 12.56,0.01 26.63,-0.53 38.62,-2.68 5.07,-0.91 12.35,-2.37 15.26,-5.31 1.15,-1.15 1.19,-1.9 0.99,-3.93 -0.65,-6.64 -4.49,-12.57 -7.98,-17.91 -0.68,-1.04 -1.4,-1.97 -2.09,-3 -0.66,-1 -1.4,-2.06 -2.14,-3.05 -2.5,-3.35 -6.26,-9.2 -7.98,-12.69 -1.15,-2.33 -2.11,-4.79 -2.66,-7.62 -0.66,-3.4 0.01,-5.64 -1.49,-8.81 -1.15,-2.44 -2.79,-4.21 -4.74,-5.55 -1.35,-0.93 -5.31,-2.93 -7.47,-2.88l-0.33 -0.13c-0.09,2.39 0.35,5.76 -0.64,7.71 -0.09,0.44 -0.27,0.76 -0.49,1.17 -0.21,0.38 -0.48,0.68 -0.62,1.02 -0.17,0.16 -0.19,0.18 -0.33,0.41 -0.23,0.2 -0.36,0.43 -0.59,0.66 -0.54,0.54 -1.59,1.28 -2.27,1.65 -1.19,0.65 -2.61,1.07 -4.16,1.1 -3.47,0.07 -7.01,0 -10.48,0 -2.96,0 -7.35,0.34 -9.86,-0.6 -1.94,-0.73 -3.36,-1.97 -4.42,-3.52 -0.4,-0.58 -0.58,-1.01 -0.92,-1.64zm11.72 40.27c-0.08,-0.5 -0.06,-4.13 0.05,-4.49 0.2,-0.62 0.62,-0.92 1.45,-0.95l7.06 0c1.45,0 3.37,-0.35 3.62,1.13 0.08,0.51 0.08,4.14 -0.06,4.54 -0.43,1.23 -2.41,0.89 -3.85,0.89 -1.57,0 -3.13,0 -4.7,0 -1.46,0 -3.32,0.31 -3.57,-1.13zm14.79 -0.1c-0.06,-0.61 -0.06,-4.03 0.09,-4.46 0.45,-1.22 2.14,-0.88 3.87,-0.88 1.57,0 3.14,-0.02 4.7,0 1.46,0.01 3.37,-0.35 3.54,1.22 0.07,0.63 0.08,4.11 -0.09,4.53 -0.47,1.14 -2.58,0.81 -3.94,0.81 -1.57,0 -3.13,-0 -4.7,0 -1.46,0 -3.31,0.29 -3.47,-1.22zm-0 -9.31c-0.08,-0.69 -0.09,-4.04 0.12,-4.53 0.48,-1.14 2.11,-0.82 3.84,-0.82 1.57,0 3.13,0 4.7,0 1.46,0 3.3,-0.32 3.53,1.14 0.09,0.57 0.08,4.15 -0.09,4.62 -0.41,1.15 -2.17,0.79 -3.93,0.79 -1.57,0 -3.13,-0 -4.7,-0 -1.48,0 -3.29,0.32 -3.47,-1.21zm-14.8 0c-0.08,-0.7 -0.09,-4.04 0.12,-4.53 0.49,-1.13 2.17,-0.81 3.85,-0.81 1.57,0 3.13,0 4.7,0 1.42,0 3.31,-0.32 3.52,1.14 0.09,0.61 0.1,4.19 -0.09,4.6 -0.51,1.16 -2.57,0.81 -3.93,0.81 -1.57,0 -3.13,0 -4.7,0 -1.38,0 -3.31,0.34 -3.48,-1.21zm14.8 -9.31c-0.09,-0.66 -0.08,-4.07 0.11,-4.53 0.51,-1.2 2.53,-0.82 3.85,-0.82 1.57,0 3.13,0 4.7,0 1.49,0 3.29,-0.34 3.53,1.14 0.1,0.61 0.09,4.19 -0.1,4.61 -0.5,1.14 -2.52,0.8 -3.93,0.8 -1.57,0 -3.13,0 -4.7,0 -1.45,0 -3.28,0.29 -3.47,-1.21zm-29.6 0c-0.08,-0.68 -0.09,-4.11 0.11,-4.55 0.53,-1.17 2.54,-0.8 3.87,-0.8 1.57,0 3.13,0 4.7,0 1.45,0 3.28,-0.34 3.51,1.16 0.1,0.63 0.09,4.13 -0.1,4.58 -0.48,1.15 -2.28,0.83 -3.9,0.83 -1.57,0 -3.13,0 -4.7,0 -1.45,0 -3.32,0.33 -3.49,-1.21zm27.02 -3.72c-0,3.46 0.5,4.93 -1.88,4.93l-8.82 -0c-2.12,-0 -1.53,-2.33 -1.53,-3.85 -0,-3.15 0.25,-2.71 5.53,-2.74 0.61,-0 1.8,0.04 2.67,0.04 1.92,0 4.04,-0.52 4.04,1.63z"/>
   <path class="fil1" d="M11.33 34.84c1.68,0.17 12.14,2.42 13.89,2.8 4.45,0.97 9.1,2.01 13.35,3.3 0.77,0.23 1.1,-0.4 2.63,-1.18 2.97,-1.51 6.81,-1.98 10.16,-2.38 5.24,-0.62 10.11,-1.12 15.36,-1.12 4.75,0 17.96,0.98 22.63,2.37 1.38,0.41 3.08,1.08 4.28,1.89 0.58,0.39 0.65,0.61 1.4,0.37 5.59,-1.8 16.9,-4.08 23.5,-5.4 1.08,-0.22 2.54,-0.58 3.59,-0.66 -0.49,-2.49 -2.24,-4.35 -3.53,-5.66 -2.64,-2.69 -8.32,-5.25 -11.77,-6.45 -2.27,-0.79 -4.59,-1.45 -7.04,-2.07 -5,-1.27 -10.22,-1.98 -15.57,-2.63l-8.48 -0.67c-3.02,-0.12 -5.97,-0.23 -9.01,-0.23 -3.01,-0 -5.93,0.11 -8.91,0.23 -2.52,0.1 -6.06,0.26 -8.48,0.68 -1.28,0.22 -2.67,0.26 -4.02,0.46 -9.69,1.46 -16.1,2.71 -25,6.94 -3.47,1.65 -8.24,5.4 -8.99,9.4z"/>
   <path class="fil2" d="M95.84 42.19c1.52,1.68 1.5,1.56 2.86,3.58 0.93,1.39 1.4,2.39 2.51,3.96 2.45,3.47 5.04,2.84 10.2,2.84 2.31,0 3.85,0.18 5.86,-0.61 0.61,-0.24 1.54,-0.94 1.97,-1.26l1.55 -1.78c2.12,-3.15 1.67,-6.99 1.66,-11.31 -0.53,-0.02 -2.47,0.47 -3.15,0.61 -5.17,1.04 -11.41,2.25 -16.56,3.02 -2.32,0.35 -4.58,0.62 -6.89,0.96z"/>
   <path class="fil2" d="M15.89 51.81c1.21,0.46 1.85,0.74 3.34,0.75 1.37,0.01 2.74,-0 4.12,-0 6.66,0 7.03,0.33 10.77,-5.7 0.63,-1.02 1.76,-2.83 2.56,-3.62 0.36,-0.36 0.74,-0.68 1,-1.08 -4.9,-0.35 -10.38,-1.65 -15.26,-2.39 -1.98,-0.3 -10.89,-2.19 -11.36,-2.18 -0.03,2.59 -0.02,5.08 0.15,7.61l0.19 0.61 0.47 1.56c0.53,1.1 1.42,2.62 2.26,3.13 0.1,0.27 0.11,0.19 0.31,0.25 0.22,0.3 0.32,0.33 0.65,0.57 0.31,0.22 0.5,0.29 0.81,0.49z"/>
   <path class="fil3" d="M16.18 98.87c1.27,4.55 16.82,6.65 22.42,7.28 6.69,0.76 14.27,1.23 21.08,1.35l3.42 0.06c1.22,-0.03 2.5,0.01 3.73,0.02l4.65 0c0.27,-0.02 0.53,-0.04 0.83,-0.05 0.58,-0.01 1.17,-0.03 1.76,-0.04 8.21,-0.14 19.21,-0.87 27.42,-2.26 4.02,-0.68 14.79,-2.64 15.79,-6.36 -0.8,0.31 -1.6,0.78 -2.52,1.13 -4.23,1.61 -9.78,2.62 -14.4,3.25 -11.64,1.59 -21.71,2.02 -33.64,2.03 -11.77,0.01 -22.22,-0.45 -33.72,-2.04l-2.25 -0.36c-3.07,-0.28 -9.34,-1.81 -12.13,-2.9 -0.9,-0.35 -1.63,-0.75 -2.44,-1.1z"/>
   <path class="fil3" d="M76.2 72.34c0.2,1.5 2.02,1.21 3.47,1.21 1.57,0 3.13,0 4.7,0 1.41,0 3.43,0.34 3.93,-0.8 0.18,-0.42 0.19,-4.01 0.1,-4.61 -0.24,-1.49 -2.04,-1.14 -3.53,-1.14 -1.57,0 -3.13,0 -4.7,0 -1.32,0 -3.34,-0.37 -3.85,0.82 -0.19,0.46 -0.2,3.87 -0.11,4.53z"/>
   <path class="fil3" d="M73.61 68.62c0,-2.15 -2.11,-1.63 -4.04,-1.63 -0.86,0 -2.06,-0.04 -2.67,-0.04 -5.28,0.04 -5.53,-0.4 -5.53,2.74 0,1.52 -0.59,3.85 1.53,3.85l8.82 0c2.38,0 1.88,-1.47 1.88,-4.93z"/>
   <path class="fil3" d="M46.59 72.34c0.17,1.54 2.04,1.21 3.49,1.21 1.57,0 3.13,0 4.7,0 1.62,0 3.42,0.32 3.9,-0.83 0.18,-0.44 0.19,-3.94 0.1,-4.58 -0.23,-1.5 -2.05,-1.16 -3.51,-1.16 -1.57,0 -3.13,0 -4.7,0 -1.33,0 -3.33,-0.37 -3.87,0.8 -0.2,0.44 -0.19,3.87 -0.11,4.55z"/>
   <path class="fil3" d="M76.19 90.95c0.16,1.52 2.01,1.23 3.47,1.22 1.57,-0 3.13,0 4.7,0 1.36,0 3.47,0.34 3.94,-0.81 0.17,-0.42 0.17,-3.9 0.09,-4.53 -0.18,-1.57 -2.08,-1.21 -3.54,-1.22 -1.56,-0.02 -3.13,0 -4.7,0 -1.73,-0 -3.42,-0.33 -3.87,0.88 -0.16,0.42 -0.16,3.85 -0.09,4.46z"/>
   <path class="fil3" d="M76.19 81.65c0.18,1.53 1.99,1.21 3.47,1.21 1.57,0 3.13,0 4.7,0 1.76,-0 3.53,0.36 3.93,-0.79 0.17,-0.48 0.18,-4.05 0.09,-4.62 -0.24,-1.45 -2.07,-1.14 -3.53,-1.14 -1.57,0 -3.13,0 -4.7,0 -1.74,0 -3.37,-0.32 -3.84,0.82 -0.21,0.49 -0.2,3.84 -0.12,4.53z"/>
   <path class="fil3" d="M61.41 91.05c0.24,1.44 2.11,1.13 3.57,1.13 1.57,0 3.13,0 4.7,0 1.44,0 3.43,0.34 3.85,-0.89 0.14,-0.4 0.14,-4.02 0.06,-4.54 -0.24,-1.49 -2.16,-1.13 -3.62,-1.13l-7.06 -0c-0.83,0.03 -1.25,0.32 -1.45,0.95 -0.12,0.36 -0.14,4 -0.05,4.49z"/>
   <path class="fil3" d="M61.39 81.65c0.17,1.55 2.11,1.21 3.48,1.21 1.57,0 3.13,0 4.7,0 1.35,0 3.42,0.35 3.93,-0.81 0.18,-0.42 0.18,-4 0.09,-4.6 -0.22,-1.46 -2.1,-1.14 -3.52,-1.14 -1.57,0 -3.13,0 -4.7,0 -1.68,0 -3.36,-0.32 -3.85,0.81 -0.21,0.49 -0.2,3.83 -0.12,4.53z"/>
   <path class="fil3" d="M47.26 85.77c-0.25,0.36 -0.55,0.33 -0.66,1 -0.07,0.46 -0.01,1.14 -0.03,1.64 -0.19,4.02 0.31,3.77 3.02,3.77l6.76 0c2.95,0 2.44,-0.7 2.45,-4.26 0,-1.14 -0.01,-1.97 -1.03,-2.26 -1.71,-0.09 -3.61,-0.04 -5.34,-0.04 -1.3,-0 -4.12,-0.13 -5.18,0.15z"/>
   <path class="fil3" d="M47.72 82.82l9.93 0c1.14,-0.15 1.15,-1.18 1.15,-2.35 -0,-0.75 0.13,-2.84 -0.13,-3.39 -0.49,-1.02 -1.64,-0.78 -2.51,-0.78l-6.96 -0c-3.06,0 -2.61,0.44 -2.62,4.27 -0,1.28 -0.03,2.02 1.14,2.25z"/>
  </g>
  <rect class="fil4" width="133.51" height="133.51"/>
 </g>
</svg>
