<?xml version="1.0" encoding="UTF-8"?>
<!DOCTYPE svg PUBLIC "-//W3C//DTD SVG 1.1//EN" "http://www.w3.org/Graphics/SVG/1.1/DTD/svg11.dtd">
<!-- Creator: CorelDRAW 2019 (64-Bit) -->
<svg xmlns="http://www.w3.org/2000/svg" xml:space="preserve" width="1.9685in" height="1.9685in" version="1.1" style="shape-rendering:geometricPrecision; text-rendering:geometricPrecision; image-rendering:optimizeQuality; fill-rule:evenodd; clip-rule:evenodd"
viewBox="0 0 78.86 78.86"
 xmlns:xlink="http://www.w3.org/1999/xlink">
 <defs>
  <style type="text/css">
   <![CDATA[
    .fil4 {fill:none}
    .fil2 {fill:#ED3237}
    .fil1 {fill:#00A859}
    .fil3 {fill:white}
    .fil0 {fill:url(#id0)}
   ]]>
  </style>
  <linearGradient id="id0" gradientUnits="userSpaceOnUse" x1="25.86" y1="15.14" x2="27.66" y2="47.7">
   <stop offset="0" style="stop-opacity:1; stop-color:#76C04E"/>
   <stop offset="0.0823529" style="stop-opacity:1; stop-color:#76C04E"/>
   <stop offset="0.219608" style="stop-opacity:1; stop-color:#ECE72B"/>
   <stop offset="0.45098" style="stop-opacity:1; stop-color:#FFF212"/>
   <stop offset="0.619608" style="stop-opacity:1; stop-color:#E0E332"/>
   <stop offset="0.811765" style="stop-opacity:1; stop-color:#76C04E"/>
   <stop offset="1" style="stop-opacity:1; stop-color:#76C04E"/>
  </linearGradient>
 </defs>
 <g id="Layer_x0020_1">
  <metadata id="CorelCorpID_0Corel-Layer"/>
  <g id="_1815630778176">
   <path class="fil0" d="M14.74 17.42c-1.69,0.03 -7.07,-0.43 -8.02,0.37l-4.14 4.36 18.29 0.09 0.02 2.02c-1.24,0.38 -5.32,0.12 -6.91,0.15l-0.05 2.3c-1.88,0.06 -6.36,-0.51 -7.51,0.59 -0.8,0.76 -3.33,3.19 -3.85,4.09l20.63 0.02 0 2.24 -9.2 0 -0.04 2.27c-2.12,0.19 -6.25,-0.65 -7.49,0.62 -0.72,0.74 -1.27,1.34 -2,2.06 -0.58,0.58 -1.52,1.41 -1.96,2.04l18.36 0.02 -0.15 2.24 -6.77 0.02c0.02,1.78 -0.38,3.82 0.95,4.47 1.21,0.58 33.57,0.19 35.93,0.22 0.3,-1.48 0.08,-23.09 0.1,-26.6 0.01,-2.42 -0.44,-4.87 -3.15,-5.62 -1.46,-0.41 -22.1,-0.13 -26.55,-0.13 -3.22,-0 -5.4,-0.14 -6.5,2.18z"/>
   <path class="fil1" d="M57.92 29.09c4.22,-0.1 4.26,-0.63 6.27,2.08 1.02,1.37 3.33,3.65 3.37,4.78l-9.69 -0.03 0.04 -6.83zm-4.94 27.68c0.43,-3.28 0.9,-4.74 2.75,-6.62 4.79,-4.86 15.09,-3.81 16.16,6.6 2.77,0.34 4.4,0.38 4.4,-2.46 -0,-2.91 0.6,-4.12 -2.29,-4.55 0.04,-2.96 0.01,-5.94 0.01,-8.91 0,-4.2 0.33,-4.48 -1.84,-7.19 -1.39,-1.73 -2.62,-3.31 -3.98,-4.98 -1.61,-1.98 -2.76,-4.12 -4.7,-4.27 -1.12,-0.08 -8.12,-0.09 -8.84,0.15 -2.24,0.75 -1.47,5.11 -1.47,7.54 0,5.88 0.02,11.76 -0,17.72l-18.85 0.05c1.38,2.5 2.31,1.5 2.97,6.95l15.68 -0.04z"/>
   <path class="fil2" d="M30.1 57.48c-1.07,3.09 -5.38,1.57 -4.54,-1.42 0.8,-2.86 5.59,-1.64 4.54,1.42zm-9.18 0.21c1.24,9.03 15.04,7.36 13.79,-1.92 -1.2,-8.9 -15.05,-7.22 -13.79,1.92z"/>
   <path class="fil2" d="M61.43 54.73c3.11,-1.54 4.62,3.05 2.01,4.22 -1.86,0.83 -3.97,-0.79 -3.23,-3.02 0.33,-1 0.55,-0.87 1.22,-1.2zm7.85 3.39c0.87,-4.07 -2.19,-7.46 -5.33,-8.14 -4.06,-0.88 -7.58,1.94 -8.29,5.22 -1.98,9.17 11.65,12.09 13.61,2.92z"/>
   <path class="fil3" d="M57.88 35.92l9.69 0.03c-0.04,-1.13 -2.36,-3.41 -3.37,-4.78 -2.01,-2.71 -2.05,-2.18 -6.27,-2.08l-0.04 6.83z"/>
   <path class="fil1" d="M18.39 56.77c0.53,-5.28 1.8,-4.67 2.93,-6.96 -4.56,0.05 -7.26,-0.74 -7.36,2.11 -0.16,4.35 -0.24,5.31 4.43,4.85z"/>
   <path class="fil3" d="M30.1 57.48c1.06,-3.06 -3.73,-4.27 -4.54,-1.42 -0.84,2.99 3.47,4.51 4.54,1.42z"/>
   <path class="fil3" d="M61.43 54.73c-0.67,0.33 -0.88,0.21 -1.22,1.2 -0.75,2.22 1.37,3.85 3.23,3.02 2.61,-1.17 1.1,-5.76 -2.01,-4.22z"/>
  </g>
  <rect class="fil4" x="-0" width="78.86" height="78.86"/>
 </g>
</svg>
