<?xml version="1.0" encoding="UTF-8"?>
<!DOCTYPE svg PUBLIC "-//W3C//DTD SVG 1.1//EN" "http://www.w3.org/Graphics/SVG/1.1/DTD/svg11.dtd">
<!-- Creator: CorelDRAW 2019 (64-Bit) -->
<svg xmlns="http://www.w3.org/2000/svg" xml:space="preserve" width="0.923941in" height="0.700787in" version="1.1" style="shape-rendering:geometricPrecision; text-rendering:geometricPrecision; image-rendering:optimizeQuality; fill-rule:evenodd; clip-rule:evenodd"
viewBox="0 0 396.22 300.52"
 xmlns:xlink="http://www.w3.org/1999/xlink">
 <defs>
  <style type="text/css">
   <![CDATA[
    .fil1 {fill:#FEFEFE}
    .fil0 {fill:#088A4E;fill-rule:nonzero}
   ]]>
  </style>
 </defs>
 <g id="Layer_x0020_1">
  <metadata id="CorelCorpID_0Corel-Layer"/>
  <g>
   <path class="fil0" d="M305.41 278.4l-14.39 -67.22 1.35 -0.21 -0.83 0.13 -0.82 0.15 -0.85 0.18 -0.88 0.22 -0.84 0.24 -0.87 0.28 -0.93 0.33 -0.89 0.35 -0.94 0.41 -0.87 0.41 -0.88 0.46 -0.94 0.53 -0.81 0.5 -0.84 0.56 -0.89 0.64 -0.87 0.68 -0.79 0.67 -0.76 0.7 -0.78 0.77 -0.71 0.76 -0.72 0.83 -0.67 0.84 -0.6 0.83 -0.57 0.85 -0.58 0.95 -0.51 0.92 -0.42 0.84 -0.41 0.93 -0.36 0.92 -0.33 0.95 -0.28 0.93 -0.23 0.91 75.01 13.86 -0.41 1.62 -0.49 1.64 -0.57 1.64 -0.63 1.59 -0.71 1.59 -0.74 1.48 -0.85 1.55 -0.95 1.57 -0.97 1.45 -1.03 1.41 -1.12 1.41 -1.19 1.38 -1.21 1.29 -1.3 1.28 -1.31 1.19 -1.36 1.15 -1.46 1.13 -1.5 1.08 -1.48 0.98 -1.47 0.9 -1.62 0.91 -1.58 0.81 -1.59 0.75 -1.67 0.72 -1.65 0.65 -1.71 0.6 -1.66 0.53 -1.65 0.47 -1.7 0.42 -1.69 0.37 -1.68 0.31 -1.71 0.26 1.35 -0.21zm-1.35 0.21c-20.9,2.89 -40.47,-9.92 -43.7,-28.59 -3.23,-18.67 11.1,-36.16 32,-39.04l11.7 67.63zm-40.42 -76.27l51.46 50.68 -0 0 1.63 -1.44 1.55 -1.63 1.4 -1.76 1.24 -1.89 1.03 -1.95 0.82 -1.96 0.62 -1.97 0.43 -1.96 0.24 -1.89 0.07 -1.87 -0.08 -1.82 -0.22 -1.69 -0.35 -1.65 -0.47 -1.6 -0.59 -1.54 -0.7 -1.48 -0.83 -1.47 -0.98 -1.46 -1.1 -1.4 -1.23 -1.34 -1.41 -1.33 -1.6 -1.3 -1.77 -1.22 -1.95 -1.13 -2.17 -1.03 -2.31 -0.88 -2.45 -0.71 -2.59 -0.52 -2.63 -0.31 -2.65 -0.09 -2.58 0.12 -2.42 0.31 14.39 67.22 -4.32 0.56 -4.44 0.22 -4.46 -0.15 -4.38 -0.52 -4.28 -0.87 -4.08 -1.18 -3.87 -1.48 -3.65 -1.74 -3.36 -1.95 -3.1 -2.13 -2.85 -2.31 -2.57 -2.42 -2.3 -2.52 -2.08 -2.64 -1.85 -2.76 -1.6 -2.83 -1.37 -2.89 -1.14 -2.99 -0.91 -3.08 -0.67 -3.16 -0.42 -3.22 -0.16 -3.36 0.13 -3.41 0.43 -3.43 0.76 -3.48 1.09 -3.48 1.44 -3.44 1.8 -3.4 2.16 -3.3 2.48 -3.12 2.79 -2.93 3.03 -2.68 -0 0zm0 -0c15.67,-12.69 39.89,-11.64 54.09,2.36 14.21,14 13.03,35.64 -2.64,48.33l-51.45 -50.69zm81.06 42.14l-75.01 -13.86 1.71 -5.25 -0.88 2.42 -0.63 2.55 -0.34 2.61 -0.06 2.56 0.21 2.44 0.44 2.33 0.63 2.15 0.79 1.99 0.93 1.84 1.02 1.65 1.11 1.52 1.18 1.38 1.26 1.27 1.31 1.14 1.38 1.04 1.47 0.96 1.54 0.87 1.66 0.8 1.8 0.72 1.87 0.6 2.01 0.49 2.16 0.37 2.27 0.22 2.39 0.05 2.5 -0.14 2.52 -0.34 2.5 -0.55 2.45 -0.76 2.36 -0.95 2.18 -1.11 1.96 -1.21 1.71 -1.27 -51.46 -50.68 3.34 -2.49 3.63 -2.25 3.89 -1.98 4.09 -1.65 4.2 -1.3 4.26 -0.94 4.29 -0.58 4.26 -0.23 4.14 0.09 4 0.39 3.86 0.67 3.68 0.91 3.5 1.12 3.38 1.35 3.19 1.53 3 1.7 2.86 1.88 2.69 2.04 2.54 2.22 2.4 2.42 2.22 2.59 2.04 2.79 1.83 2.97 1.62 3.2 1.35 3.4 1.06 3.59 0.72 3.8 0.33 3.93 -0.09 4.06 -0.54 4.13 -1 4.07 -1.44 3.95 1.71 -5.25zm-1.71 5.25c-7.53,17.66 -29.65,26.53 -49.42,19.8 -19.77,-6.72 -29.69,-26.49 -22.16,-44.15l71.58 24.35zm-167.19 27.19l-24.51 -64.83 0 0 -2.24 0.79 -2.4 1.1 -2.36 1.37 -2.29 1.66 -2.14 1.92 -1.88 2.09 -1.58 2.2 -1.28 2.25 -0.98 2.26 -0.7 2.2 -0.44 2.12 -0.22 2.08 -0.02 2.02 0.16 1.9 0.33 1.86 0.49 1.8 0.66 1.77 0.85 1.78 1.03 1.75 1.24 1.73 1.49 1.72 1.75 1.68 2.07 1.64 2.33 1.5 2.6 1.33 2.84 1.12 2.99 0.85 3.11 0.55 3.08 0.24 2.92 -0.06 2.69 -0.31 2.35 -0.48 -20.69 -65.89 4.85 -0.99 5.1 -0.58 5.22 -0.1 5.29 0.41 5.2 0.93 4.97 1.41 4.71 1.85 4.35 2.24 3.96 2.55 3.57 2.82 3.12 2.99 2.72 3.14 2.33 3.24 1.98 3.34 1.64 3.44 1.3 3.5 0.97 3.57 0.65 3.65 0.32 3.72 -0.03 3.84 -0.41 3.89 -0.81 3.91 -1.25 3.95 -1.72 3.96 -2.21 3.89 -2.7 3.76 -3.2 3.57 -3.66 3.29 -4.03 2.92 -4.31 2.5 -4.56 2.09 -4.62 1.62 0 0zm0 -0c-20.04,6.05 -41.77,-3.56 -48.54,-21.47 -6.77,-17.9 3.99,-37.32 24.03,-43.37l24.51 64.83zm-28.72 -84.3l20.69 65.89 -0 0 2.14 -0.64 2.37 -0.94 2.48 -1.28 2.46 -1.61 2.32 -1.91 2.1 -2.17 1.8 -2.34 1.47 -2.45 1.12 -2.46 0.77 -2.38 0.49 -2.36 0.23 -2.24 -0 -2.11 -0.2 -2.04 -0.38 -1.93 -0.55 -1.84 -0.7 -1.76 -0.89 -1.75 -1.1 -1.76 -1.26 -1.66 -1.51 -1.65 -1.83 -1.66 -2.09 -1.56 -2.34 -1.42 -2.65 -1.27 -2.92 -1.06 -3.13 -0.79 -3.21 -0.47 -3.17 -0.14 -3.05 0.17 -2.82 0.44 -2.43 0.61 24.51 64.83 -4.96 1.25 -5.27 0.82 -5.41 0.3 -5.44 -0.24 -5.37 -0.79 -5.19 -1.31 -4.87 -1.77 -4.48 -2.16 -4.06 -2.47 -3.68 -2.75 -3.29 -2.99 -2.82 -3.09 -2.44 -3.21 -2.13 -3.39 -1.75 -3.47 -1.41 -3.53 -1.09 -3.65 -0.75 -3.78 -0.39 -3.91 -0.01 -3.97 0.41 -4.09 0.87 -4.19 1.36 -4.17 1.9 -4.19 2.47 -4.12 3.02 -3.92 3.54 -3.65 3.99 -3.28 4.36 -2.86 4.63 -2.39 4.76 -1.9 4.78 -1.42 -0 0zm0 0c20.36,-5.1 41.5,5.51 47.22,23.7 5.71,18.19 -6.17,37.08 -26.53,42.19l-20.69 -65.89zm142.56 -35.22l-76.25 -6.46 -0.08 0.89 0.04 -0.46 0.04 -0.42 0.04 -0.41 0.04 -0.42 0.03 -0.27 0.02 -0.15 0.03 -0.27 0.02 -0.15 0.02 -0.17 0.02 -0.16 0 -0.02 0.02 -0.17 -0.01 0.08 -0.01 0.08 0.01 -0.05 -0.01 0.08 -0.01 0.22 -0.01 0.21 -0.01 0.22 -0.01 0.22 -0.01 0.37 0 0.38 0.01 0.4 0.02 0.55 0.04 0.57 0.06 0.59 0.07 0.62 0.12 0.81 0.19 1.02 0.19 0.87 0.23 0.9 0.36 1.19 73.49 -19.27 0.46 1.5 0.32 1.22 0.27 1.2 0.25 1.35 0.17 1.15 0.11 0.96 0.09 0.95 0.06 0.93 0.04 0.91 0.02 0.76 0.01 0.75 -0.01 0.74 -0.02 0.6 -0.03 0.59 -0.03 0.59 -0.04 0.6 -0.04 0.46 -0.03 0.33 -0.04 0.46 -0.05 0.46 -0.02 0.2 -0.04 0.35 -0.03 0.22 -0.02 0.2 -0.03 0.22 -0.01 0.09 -0.03 0.21 -0.01 0.08 0.01 -0.07 0.01 -0.07 0.01 -0.08 0.01 -0.12 -0.08 0.89zm0.08 -0.89c-1.45,18.85 -19.72,33.09 -40.83,31.8 -21.1,-1.29 -37.03,-17.62 -35.59,-36.48l76.41 4.68zm-1.29 5.56l-76.43 4.38 4.82 -18.93 -1.56 2.8 -0.88 1.97 -0.55 1.48 -0.36 1.14 -0.23 0.86 -0.15 0.63 -0.08 0.38 -0.05 0.27 -0.03 0.19 -0.02 0.11 -0.01 0.04 0.01 -0.07 0.01 -0.11 0.02 -0.14 0.01 -0.1 0.02 -0.25 0.02 -0.26 0.02 -0.21 0.02 -0.28 0.02 -0.28 0.02 -0.35 0.02 -0.28 0.02 -0.27 0.02 -0.35 0.02 -0.34 0.03 -0.41 0.02 -0.34 0.02 -0.34 0.03 -0.44 0.04 -0.46 0.05 -0.53 0.06 -0.65 76.25 6.46 0.03 -0.27 0.01 -0.1 -0 0.02 -0.01 0.09 -0.01 0.23 -0.02 0.27 -0.02 0.23 -0.02 0.33 -0.02 0.36 -0.03 0.45 -0.03 0.46 -0.03 0.41 -0.04 0.49 -0.04 0.5 -0.04 0.58 -0.05 0.53 -0.05 0.53 -0.07 0.68 -0.07 0.63 -0.07 0.65 -0.08 0.67 -0.1 0.76 -0.12 0.81 -0.14 0.86 -0.17 0.9 -0.2 0.98 -0.28 1.2 -0.37 1.38 -0.51 1.61 -0.7 1.9 -1.05 2.35 -1.74 3.11 4.82 -18.93zm-4.82 18.93c-10.34,16.48 -33.69,22.35 -52.13,13.11 -18.45,-9.24 -25.01,-30.1 -14.67,-46.58l66.8 33.47zm-71.48 -12.62l-0.14 -1.93 76.43 -4.38 0.14 1.93 -6.94 21.94 -69.49 -17.55zm76.43 -4.38c1.35,18.86 -14.66,35.13 -35.77,36.34 -21.11,1.21 -39.32,-13.1 -40.67,-31.95l76.43 -4.38zm-43.47 37.25l0.19 -68.43 0.48 0 0.59 0.01 0.5 0.01 0.53 0.01 0.41 0.01 0.36 0.01 0.31 0.01 0.02 0 0.05 0 0.1 0 -0.14 0 -0.48 0.01 -0.71 0.03 -0.76 0.05 -1.38 0.12 -2.26 0.3 -3.08 0.62 -4.11 1.22 -4.95 2.15 -5.5 3.46 -5.5 5.12 -3.7 5.17 -2.18 4.53 -0.97 2.91 -0.25 0.98 -0.04 0.15 0.15 -0.6 0.47 -1.68 0.71 -2.03 0.95 -2.22 1.24 -2.37 1.41 -2.25 1.52 -2.07 62.55 39.49 1.39 -1.9 1.3 -2.09 1.16 -2.22 0.89 -2.08 0.66 -1.9 0.44 -1.56 0.12 -0.49 -0.06 0.25 -0.28 1.08 -1 3 -2.22 4.61 -3.75 5.24 -5.56 5.18 -5.59 3.51 -5.06 2.2 -4.25 1.26 -3.25 0.66 -2.46 0.33 -1.63 0.14 -1.05 0.06 -1.05 0.04 -0.87 0.02 -0.59 0.01 -0.41 0 -0.53 0 -0.62 -0.01 -0.4 -0.01 -0.43 -0.01 -0.46 -0.01 -0.42 -0.01 -0.54 -0.01 -0.54 -0.01 0.48 0zm-0.48 -0c-21.15,-0.28 -38.03,-15.83 -37.72,-34.73 0.32,-18.89 17.72,-33.98 38.87,-33.7l-1.15 68.42zm-36.94 -68.51l37.61 0.08 -0.19 68.43 -37.61 -0.08 -6.38 -0.49 6.58 -67.94zm-0.19 68.43c-21.15,-0.05 -38.25,-15.41 -38.2,-34.3 0.05,-18.9 17.24,-34.18 38.39,-34.13l-0.19 68.43zm-39.38 -32.06l76.39 -4.93 -24.61 -29.53 0.03 0.01 1.03 0.36 0.41 0.15 -0.22 -0.08 0.73 0.28 0.89 0.36 0.11 0.05 -0.83 -0.34 0.25 0.1 0.32 0.13 -0.28 -0.11 0.69 0.28 -1.02 -0.41 -1.88 -0.68 -0.61 -0.2 -0.56 -0.17 -0.99 -0.28 -1.23 -0.31 -0.98 -0.22 -1.04 -0.21 -0.82 -0.15 0.2 0.03 0.02 0 -0.75 -0.12 0.01 0 0.54 0.08 -0.1 -0.02 -0.14 -0.02 -0.15 -0.02 0.29 0.04 0.21 0.03 0.03 0 -12.96 67.45 -0.18 -0.03 0.02 0 0.12 0.02 -0.31 -0.05 -0.27 -0.04 -0.22 -0.04 0.43 0.07 -0.08 -0.01 -0.83 -0.13 -0.06 -0.01 0.13 0.02 -0.87 -0.16 -1.09 -0.22 -1.02 -0.23 -1.27 -0.32 -1.03 -0.29 -0.59 -0.18 -0.64 -0.21 -1.91 -0.69 -1.06 -0.43 0.66 0.27 -0.31 -0.12 0.28 0.11 0.21 0.08 -0.88 -0.36 0.06 0.02 0.82 0.33 0.66 0.25 -0.3 -0.11 0.31 0.12 0.93 0.33 -0.09 -0.03 -24.61 -29.53zm24.61 29.53c-19.77,-6.7 -29.72,-26.46 -22.21,-44.13 7.5,-17.67 29.62,-26.55 49.39,-19.85l-27.18 63.98zm50.61 -49.04l1.18 14.58 -76.39 4.93 -1.18 -14.58 -0.03 -0.44 76.43 -4.48zm-76.39 4.93c-1.52,-18.85 14.35,-35.23 35.44,-36.59 21.09,-1.36 39.43,12.82 40.95,31.66l-76.39 4.93zm75.83 -13.47l0.59 8.99 -76.46 4.04 -0.59 -8.99 68.19 -23.33 8.27 19.3zm-76.46 4.04c-1.25,-18.86 14.86,-35.06 35.97,-36.18 21.11,-1.11 39.24,13.27 40.49,32.14l-76.46 4.04zm37.84 -41.63l-0.18 68.43 37.97 -29.18 0.07 -0.42 0.03 -0.22 0.04 -0.32 0.03 -0.29 0.02 -0.22 0.03 -0.32 0.01 -0.15 0.01 -0.12 0.01 -0.23 0 -0.08 0.01 -0.2 0 -0.19 -0 -0.19 -0.01 -0.31 -0.01 -0.19 -0.01 -0.2 -0.02 -0.35 -0.02 -0.23 -0.04 -0.39 -0.07 -0.57 -0.07 -0.49 -0.08 -0.53 -0.12 -0.62 -0.18 -0.84 -0.24 -0.95 -0.28 -0.94 -0.41 -1.2 -0.58 -1.47 -0.85 -1.81 -1.07 -1.93 -1.49 -2.26 -2.17 -2.7 -59.92 42.63 -2.31 -2.88 -1.62 -2.46 -1.19 -2.15 -0.96 -2.06 -0.69 -1.73 -0.5 -1.49 -0.36 -1.23 -0.32 -1.27 -0.25 -1.16 -0.18 -0.97 -0.14 -0.88 -0.12 -0.85 -0.11 -0.95 -0.07 -0.77 -0.05 -0.62 -0.05 -0.74 -0.03 -0.6 -0.02 -0.59 -0.01 -0.72 -0 -0.59 0.01 -0.59 0.02 -0.6 0.02 -0.47 0.03 -0.61 0.03 -0.5 0.03 -0.52 0.06 -0.68 0.06 -0.57 0.07 -0.63 0.08 -0.64 0.07 -0.53 0.11 -0.71 37.97 -29.18zm-37.97 29.18c3.11,-18.69 22.6,-31.59 43.52,-28.8 20.92,2.78 35.35,20.19 32.24,38.88l-75.76 -10.08zm86.53 39.36l-48.75 -0.1 0.18 -68.43 48.75 0.1 38.11 36.65 -38.29 31.78zm0.18 -68.43c21.15,0.04 38.25,15.4 38.21,34.3 -0.05,18.9 -17.24,34.18 -38.39,34.13l0.18 -68.43zm-39.06 41.43l0.77 -9.65 76.4 4.87 -0.77 9.65 -1.08 6 -75.31 -10.87zm76.4 4.87c-1.5,18.85 -19.83,33.04 -40.92,31.7 -21.1,-1.34 -36.98,-17.71 -35.48,-36.56l76.4 4.87zm-1.87 -11.06l-73.49 19.27 3.43 -26.51 0.54 -0.83 0.7 -1 0.32 -0.43 0.45 -0.58 1.41 -1.69 2.34 -2.39 1.34 -1.19 0.48 -0.4 0.73 -0.58 2.25 -1.62 0.96 -0.62 -1.96 1.31 0.01 -0.01 -4.64 3.93 -4.34 5.28 -1.52 2.51 -0.54 1.02 -1.2 2.71 -0.24 0.64 0.21 -0.57 -0.66 1.89 -0.03 0.1 -0.02 0.06 -0.16 0.55 -0.02 0.07 0.07 -0.25 0.06 -0.21 -0.06 0.21 0.04 -0.13 0.07 -0.24 0 0 0.03 -0.11 74.23 16.87 -0.03 0.1 -0.06 0.2 0.02 -0.06 -0.01 0.03 -0.1 0.36 0.03 -0.09 0.04 -0.14 -0.05 0.17 -0.19 0.63 -0.04 0.13 -0.05 0.16 -0.68 1.94 0.2 -0.53 -0.25 0.68 -1.22 2.74 -0.55 1.04 -1.53 2.53 -4.35 5.29 -4.65 3.93 -0.01 0.01 -1.97 1.32 0.94 -0.61 2.24 -1.61 0.71 -0.57 0.46 -0.38 1.32 -1.17 2.31 -2.37 1.38 -1.66 0.41 -0.54 0.28 -0.38 0.66 -0.94 0.5 -0.76 3.43 -26.51zm-3.43 26.51c-10.43,16.44 -33.8,22.21 -52.2,12.89 -18.4,-9.32 -24.86,-30.2 -14.43,-46.64l66.63 33.75zm-16.59 -8.11l6.96 -20.78 73.38 19.61 -6.96 20.78 -36.74 24.41 -36.64 -44.02zm73.38 19.61c-6.06,18.1 -27.4,28.39 -47.66,22.97 -20.26,-5.41 -31.77,-24.48 -25.71,-42.59l73.38 19.61zm-79.21 -44.07l42.58 0.05 -0.1 68.43 -42.58 -0.05 -37.76 -39.62 37.87 -28.81zm-0.1 68.43c-21.15,-0.03 -38.27,-15.37 -38.24,-34.26 0.03,-18.9 17.2,-34.19 38.35,-34.17l-0.1 68.43zm38.4 -31.76l-0.53 2.96 -75.63 -10.82 0.53 -2.96 74.05 -5.65 1.57 16.47zm-75.63 -10.82c3.34,-18.66 22.99,-31.36 43.87,-28.38 20.88,2.99 35.1,20.54 31.76,39.19l-75.63 -10.82zm73.78 -6.38l0.28 0.72 -72.48 22.12 -0.28 -0.72 -2.02 -12.57 74.5 -9.55zm-72.48 22.12c-6.84,-17.88 3.85,-37.33 23.86,-43.44 20.01,-6.11 41.78,3.44 48.62,21.32l-72.48 22.12zm-1.46 -20.18l76.28 6.18 0.04 -0.41 -0.02 0.23 -0.01 0.06 -0.02 0.19 -0.02 0.18 -0.02 0.2 -0.02 0.19 -0 0.05 -0.02 0.19 -0.02 0.19 -0.02 0.2 -0.01 0.18 -0.02 0.19 -0.01 0.05 -0.01 0.19 -0.02 0.2 -0 0.04 -0.01 0.19 -0.01 0.19 -0.01 0.19 -0.01 0.19 -0 0.05 -0 0.05 -0.02 0.32 -0.01 0.2 0.01 -0.09 -0.01 0.18 -0.01 0.19 -0.01 0.19 -0.01 0.19 0.01 -0.08 -0.01 0.19 -0.01 0.2 -76.52 -3.01 0.01 -0.18 0.01 -0.19 0.03 -0.46 0.01 -0.19 0.01 -0.19 0.01 -0.19 0.01 -0.2 0.03 -0.46 0.01 -0.18 0 -0.06 0.02 -0.32 0.02 -0.33 0.01 -0.19 0.01 -0.19 0.01 -0.19 0.01 -0.19 0.02 -0.33 0.02 -0.18 0.01 -0.19 0.03 -0.32 0.02 -0.19 0.02 -0.2 0.01 -0.18 0.02 -0.19 0.02 -0.19 0.03 -0.32 0.02 -0.19 0.01 -0.18 0.02 -0.2 0.02 -0.19 0.03 -0.31 0.01 -0.15 0.04 -0.41zm-0.04 0.41c1.66,-18.84 20.1,-32.91 41.18,-31.43 21.08,1.48 36.83,17.96 35.18,36.79l-76.36 -5.37zm76.71 1.91l-0.39 3.86 -76.28 -6.18 0.39 -3.86 0.77 -4.4 75.51 10.58zm-76.28 -6.18c1.91,-18.82 20.53,-32.69 41.6,-30.99 21.06,1.71 36.59,18.35 34.68,37.17l-76.28 -6.18zm1.28 10.04l74.52 -15.8 -4.45 25.54 -0.47 0.68 -0.49 0.67 -0.68 0.89 -1.09 1.31 -0.99 1.09 -0.65 0.67 -0.91 0.88 -1.34 1.19 -1.72 1.37 -2.41 1.67 2.92 -2.06 1.64 -1.36 -2.18 1.77 3.93 -3.4 2.89 -3.27 1.84 -2.61 1.67 -2.95 0.97 -2.13 0.6 -1.59 0.15 -0.43 0.19 -0.6 0.19 -0.65 0.13 -0.46 -0.07 0.27 0.12 -0.45 -0 0.02 -0.01 0.03 0.1 -0.41 -0.08 0.34 -0.06 0.22 0.03 -0.12 -0.05 0.2 -74.73 -14.99 -0 0 0.07 -0.3 -0.02 0.07 -0.05 0.2 0.13 -0.54 0.02 -0.08 0.02 -0.08 0.14 -0.53 -0.05 0.2 0.14 -0.52 0.21 -0.71 0.21 -0.65 0.16 -0.46 0.61 -1.62 0.98 -2.16 1.68 -2.97 1.85 -2.62 2.9 -3.28 3.94 -3.41 -2.17 1.76 1.66 -1.37 2.94 -2.07 -2.39 1.66 -1.7 1.35 -1.32 1.17 -0.88 0.85 -0.62 0.64 -0.96 1.05 -1.06 1.27 -0.64 0.83 -0.44 0.61 -0.42 0.6 -4.45 25.54zm4.45 -25.54c10.9,-16.19 34.44,-21.42 52.56,-11.68 18.12,9.74 23.98,30.77 13.07,46.96l-65.63 -35.28zm-5.39 11.35l76.3 6 -0.06 0.57 -0.04 0.3 -0.02 0.13 -0.04 0.33 -0.01 0.07 -0.01 0.09 -0.04 0.29 -0 0.03 0 -0.02 0.04 -0.29 0 -0.03 0.01 -0.1 0.04 -0.43 0.04 -0.45 0.01 -0.19 0.01 -0.18 0.03 -0.83 0.01 -0.53 -0.01 -0.53 -0.01 -0.51 -0.03 -0.48 -0.05 -0.75 -0.07 -0.71 -0.08 -0.63 -0.04 -0.29 -0.04 -0.25 -0.12 -0.67 -0.07 -0.36 -0.06 -0.28 -0.1 -0.44 0 0.01 -0.07 -0.26 -0.05 -0.22 -74.52 15.8 -0.12 -0.48 -0.13 -0.51 -0.06 -0.23 -0.15 -0.67 -0.1 -0.49 -0.11 -0.58 -0.15 -0.87 -0.07 -0.45 -0.07 -0.48 -0.1 -0.82 -0.09 -0.89 -0.07 -0.92 -0.03 -0.65 -0.02 -0.68 -0.01 -0.7 0.01 -0.7 0.04 -0.99 0.02 -0.36 0.02 -0.36 0.05 -0.63 0.06 -0.61 0.03 -0.28 0.02 -0.21 0.06 -0.49 0.03 -0.22 0.02 -0.19 -0.01 0.07 0.02 -0.14 0.02 -0.17 -0.01 0.07 0.02 -0.14 -0 0.02 -0.06 0.57zm0.06 -0.57c2.21,-18.79 21.05,-32.43 42.08,-30.46 21.03,1.97 36.3,18.81 34.09,37.6l-76.17 -7.14zm77.36 -4.9l-1.13 11.47 -76.3 -6 1.13 -11.47 38.16 -31.22 38.13 37.22zm-76.3 -6c1.85,-18.82 20.44,-32.74 41.51,-31.08 21.07,1.66 36.64,18.26 34.79,37.08l-76.3 -6zm87.88 37.23l-49.75 -0.02 0.03 -68.43 49.75 0.02 38.26 33.13 -38.29 35.3zm0.03 -68.43c21.15,0.01 38.29,15.33 38.28,34.23 -0.01,18.9 -17.16,34.21 -38.31,34.2l0.03 -68.43zm37.79 35.13l-76.59 0.7 11.32 -24.63 2.88 -2.31 3.72 -2.39 3.79 -1.88 5.35 -1.89 5.35 -1.12 3.48 -0.35 3.96 -0.06 1.54 0.08 3.22 0.34 1.48 0.24 -0.98 -0.16 -1.17 -0.16 -5.29 -0.33 -5.76 0.39 -6.39 1.38 -9.42 4.19 -6.92 5.43 -4.52 5.55 -2.25 4.04 -1.26 3.14 -0.85 2.96 -0.43 2.18 -0.21 1.59 -0.07 0.75 -0.05 0.9 -0.02 0.68 0 -0.03 -0 0.41 0.01 0.5 0 -0.01 -0 -0.05 0 0.09 76.55 -2.17 0.01 0.41 0.01 0.24 0.01 0.25 0.01 0.74 -0.01 0.62 -0 0.16 -0.03 0.84 -0.06 1.05 -0.08 0.88 -0.22 1.7 -0.44 2.27 -0.87 3.03 -1.29 3.19 -2.27 4.08 -4.54 5.59 -6.95 5.46 -9.45 4.2 -6.43 1.39 -5.8 0.39 -5.33 -0.33 -1.21 -0.17 -1.03 -0.17 1.44 0.23 3.17 0.33 1.48 0.07 3.9 -0.06 3.43 -0.35 5.29 -1.11 5.28 -1.86 3.73 -1.85 3.65 -2.34 2.82 -2.26 11.32 -24.63zm-11.32 24.63c-15.01,13.31 -39.26,13.23 -54.16,-0.18 -14.9,-13.41 -14.81,-35.08 0.2,-48.39l53.96 48.57zm7.43 -7.21l-73.38 -19.61 3.01 -6.48 -0.31 0.53 -0.27 0.49 -0.18 0.34 -0.17 0.33 -0.11 0.22 -0.11 0.23 -0.09 0.19 -0.05 0.11 -0.03 0.06 -0.03 0.08 -0.06 0.15 -0.06 0.14 -0 0.01 0.01 -0.04 -0.04 0.1 -0.03 0.1 -0.05 0.15 -0.04 0.12 0 0.01 -0.04 0.14 -0.05 0.17 -0.06 0.23 -0.05 0.22 -0.06 0.26 -0.07 0.32 -0.06 0.34 -0.08 0.5 -0.07 0.52 -0.07 0.57 -0.06 0.76 -0.05 0.97 -0.01 1.05 76.59 -0.7 -0.01 1.44 -0.07 1.38 -0.1 1.2 -0.12 1.02 -0.14 0.99 -0.16 0.98 -0.15 0.82 -0.17 0.82 -0.17 0.77 -0.18 0.73 -0.19 0.74 -0.19 0.69 -0.19 0.66 -0.16 0.53 -0.2 0.64 -0.22 0.67 -0.21 0.61 -0.22 0.61 -0.17 0.47 -0.19 0.5 -0.24 0.63 -0.25 0.62 -0.22 0.54 -0.22 0.51 -0.24 0.55 -0.28 0.6 -0.3 0.63 -0.29 0.6 -0.35 0.68 -0.36 0.68 -0.45 0.8 -0.48 0.81 3.01 -6.48zm-3.01 6.48c-10.06,16.62 -33.3,22.8 -51.91,13.81 -18.6,-8.99 -25.52,-29.76 -15.46,-46.37l67.36 32.56zm-151.33 38.71l-0.04 -68.43 -38.26 33.42 -0.01 0.58 0 0.07 -0.01 -0.29 -0.02 -0.45 -0.03 -0.55 -0.04 -0.72 -0.05 -0.83 -0.05 -0.89 -0.06 -0.97 -0.07 -1.01 -0.08 -1.07 -0.08 -1.12 -0.09 -1.13 -0.09 -1.14 -0.1 -1.17 -0.1 -1.16 -0.1 -1.13 -0.1 -1.14 -0.1 -1.1 -0.1 -1.04 -0.1 -1 -0.1 -0.94 -0.09 -0.84 -0.09 -0.76 -0.08 -0.62 -0.07 -0.48 -0.05 -0.3 -0.01 -0.05 0.07 0.37 0.26 1.1 0.82 2.59 3.7 7.05 65.11 -36.04 3.89 7.44 1.02 3.23 0.47 1.98 0.28 1.46 0.21 1.25 0.18 1.18 0.16 1.18 0.15 1.19 0.14 1.19 0.14 1.23 0.13 1.24 0.13 1.27 0.13 1.3 0.12 1.31 0.12 1.31 0.12 1.34 0.11 1.33 0.11 1.31 0.11 1.33 0.1 1.3 0.09 1.26 0.09 1.24 0.08 1.22 0.07 1.16 0.07 1.12 0.06 1.06 0.05 1.02 0.05 1.03 0.04 0.95 0.03 0.92 0.02 1.07 -0.01 1.36 -38.26 33.42zm38.26 -33.42c-0.49,18.89 -18.03,33.85 -39.18,33.41 -21.14,-0.44 -37.89,-16.11 -37.4,-35l76.57 1.59zm-79.05 -34.99l40.74 -0.02 0.04 68.43 -40.74 0.02 -16.34 -3.26 16.29 -65.17zm0.04 68.43c-21.15,0.01 -38.31,-15.3 -38.32,-34.2 -0.01,-18.9 17.12,-34.22 38.27,-34.23l0.04 68.43zm-39.4 -28.8l71.31 -24.98 0.01 0.02 0.4 0.94 0.32 0.8 0.27 0.72 0.21 0.59 0.17 0.5 0.15 0.43 0.1 0.31 0.1 0.31 0.08 0.26 0.07 0.2 0.03 0.1 0.01 0.02 0.05 0.13 -0.03 -0.09 -0.04 -0.12 -0.06 -0.15 -0.11 -0.27 -0.14 -0.32 -0.18 -0.4 -0.22 -0.46 -0.31 -0.61 -0.41 -0.73 -0.51 -0.85 -0.6 -0.91 -0.73 -1.01 -1.07 -1.33 -1.3 -1.44 -1.44 -1.4 -1.98 -1.68 -2.45 -1.76 -2.7 -1.61 -3.31 -1.58 -32.63 61.91 -3.69 -1.77 -3.07 -1.83 -2.8 -2.02 -2.32 -1.97 -1.77 -1.73 -1.62 -1.79 -1.37 -1.71 -1.02 -1.42 -0.88 -1.34 -0.78 -1.29 -0.67 -1.2 -0.56 -1.09 -0.46 -0.96 -0.42 -0.91 -0.36 -0.84 -0.33 -0.8 -0.27 -0.69 -0.24 -0.66 -0.23 -0.63 -0.14 -0.41 -0.18 -0.52 -0.14 -0.44 -0.11 -0.32 -0.08 -0.26 -0.07 -0.2 -0.06 -0.19 -0.02 -0.05 0.02 0.04 0.05 0.15 0.11 0.3 0.16 0.41 0.24 0.57 0.01 0.02zm-0.01 -0.02c-7.71,-17.6 2.01,-37.45 21.71,-44.33 19.69,-6.89 41.91,1.8 49.62,19.39l-71.32 24.94zm25.13 -68.89l2.91 68.38 36.84 -34.69 -0.56 -5.32 -0.45 -1.9 -0.21 -0.72 -0.1 -0.29 -0.01 -0.03 0.09 0.24 0.15 0.4 0.18 0.47 0.21 0.54 0.26 0.66 0.28 0.69 0.31 0.75 0.33 0.8 0.34 0.82 0.36 0.87 0.36 0.86 0.36 0.87 0.37 0.88 0.39 0.92 0.37 0.87 0.37 0.86 0.36 0.84 0.36 0.83 0.34 0.79 0.33 0.76 0.31 0.73 0.27 0.63 0.27 0.63 0.23 0.53 0.22 0.51 0.19 0.44 0.14 0.31 -71.31 24.98 -0.18 -0.41 -0.19 -0.44 -0.22 -0.51 -0.27 -0.62 -0.28 -0.64 -0.32 -0.74 -0.32 -0.75 -0.35 -0.8 -0.36 -0.85 -0.37 -0.86 -0.39 -0.91 -0.4 -0.94 -0.41 -0.96 -0.4 -0.93 -0.42 -0.98 -0.42 -0.99 -0.41 -0.99 -0.4 -0.96 -0.4 -0.97 -0.39 -0.95 -0.38 -0.94 -0.38 -0.94 -0.35 -0.89 -0.36 -0.92 -0.34 -0.89 -0.32 -0.85 -0.32 -0.89 -0.36 -1.02 -0.38 -1.15 -0.42 -1.42 -0.58 -2.44 -0.61 -5.68 36.84 -34.69zm-36.84 34.69c-0.31,-18.89 16.58,-34.44 37.73,-34.71 21.15,-0.28 38.54,14.82 38.85,33.71l-76.58 1zm77.24 -34.75l-0.21 68.43 0 0 -1.17 -0 -1.2 -0.01 -1.19 -0.01 -1.21 -0.01 -1.23 -0.01 -1.24 -0.01 -1.26 -0.01 -1.24 -0.01 -1.25 -0.01 -1.24 -0.01 -1.27 -0.01 -1.31 -0.01 -1.26 -0.01 -1.23 -0.01 -1.29 -0.01 -1.26 -0.01 -1.2 -0.01 -1.26 -0 -1.25 -0 -1.19 -0 -1.2 0 -1.19 0 -1.12 0.01 -1.13 0.01 -1.14 0.01 -1.09 0.01 -1.03 0.01 -1 0.02 -0.97 0.02 -0.9 0.02 -0.9 0.03 -0.86 0.03 -2.91 -68.38 1.22 -0.04 1.23 -0.04 1.28 -0.03 1.26 -0.03 1.28 -0.02 1.3 -0.02 1.28 -0.01 1.27 -0.01 1.31 -0.01 1.36 -0.01 1.31 -0 1.32 -0 1.35 0 1.31 0 1.31 0 1.37 0.01 1.32 0.01 1.29 0.01 1.35 0.01 1.32 0.01 1.26 0.01 1.28 0.01 1.3 0.01 1.26 0.01 1.25 0.01 1.21 0.01 1.19 0.01 1.18 0.01 1.15 0.01 1.14 0.01 1.08 0.01 1.06 0 0 0zm-0 0c21.15,0.05 38.25,15.41 38.19,34.31 -0.06,18.9 -17.25,34.17 -38.4,34.12l0.21 -68.43zm44.41 16.56l-65.11 36.04 11.18 10.37 4.24 2.2 3.19 1.24 2.34 0.71 1.96 0.47 1.56 0.29 1.04 0.15 0.81 0.1 0.65 0.06 0.33 0.02 0.25 0.01 0.26 0.01 0.12 0 -0 0 -0.12 0 -0.13 0 -0.15 0 -0.23 0 -0.23 0.01 -0.3 0.01 -0.29 0.01 -0.36 0.01 -0.42 0.01 -0.32 0.01 -0.38 0.02 -0.45 0.02 -0.43 0.02 -0.5 0.02 -0.59 0.02 -0.48 0.01 -0.59 0.02 -0.73 0.01 -0.76 0 0.21 -68.43 -0.22 0 -0.14 0 0.05 -0 0.2 -0.01 0.14 -0.01 0.27 -0.01 0.37 -0.02 0.37 -0.01 0.47 -0.02 0.56 -0.02 0.47 -0.02 0.55 -0.02 0.62 -0.02 0.62 -0.02 0.7 -0.02 0.69 -0.01 0.77 -0.01 0.77 0 0.77 0 0.87 0.01 0.97 0.02 1.09 0.04 1.04 0.06 1.09 0.08 1.37 0.12 1.49 0.18 1.67 0.24 2.14 0.4 2.48 0.59 2.81 0.85 3.6 1.4 4.58 2.37 11.18 10.37zm-11.18 -10.37c17.55,10.55 22.2,31.81 10.4,47.49 -11.8,15.68 -35.6,19.84 -53.15,9.29l42.75 -56.78zm23.45 13.42l-0.27 0.53 -69.52 -28.72 0.27 -0.53 66.87 -4.29 2.65 33.01zm-69.52 -28.72c8.88,-17.15 31.64,-24.63 50.83,-16.7 19.2,7.93 27.56,28.27 18.68,45.42l-69.52 -28.72zm33.15 -34.5l0.04 68.43 38.22 -36.11 0.03 0.48 0.02 0.44 0.02 0.38 0.02 0.4 0.03 0.48 0.02 0.49 0.02 0.46 0.02 0.47 0.02 0.49 0.02 0.45 0.03 0.46 0.03 0.51 0.03 0.51 0.03 0.46 0.03 0.46 0.03 0.44 0.03 0.39 0.03 0.36 0.03 0.37 0.03 0.34 0.03 0.25 0.02 0.14 0.02 0.11 0 0.02 -0.01 -0.09 -0.06 -0.3 -0.11 -0.51 -0.18 -0.71 -0.36 -1.23 -0.64 -1.78 -1.22 -2.69 -2.57 -4.17 -64.22 37.3 -2.78 -4.5 -1.42 -3.12 -0.82 -2.3 -0.53 -1.84 -0.34 -1.39 -0.27 -1.27 -0.21 -1.13 -0.16 -0.98 -0.13 -0.93 -0.12 -0.89 -0.11 -0.9 -0.09 -0.83 -0.07 -0.77 -0.07 -0.76 -0.07 -0.79 -0.06 -0.78 -0.05 -0.73 -0.05 -0.72 -0.05 -0.7 -0.04 -0.65 -0.04 -0.63 -0.04 -0.66 -0.03 -0.64 -0.03 -0.57 -0.03 -0.55 -0.03 -0.51 -0.02 -0.43 -0.02 -0.38 -0.02 -0.4 -0.02 -0.35 -0.01 -0.2 -0.01 -0.09 38.22 -36.11zm-38.22 36.11c-1.17,-18.87 15,-35.01 36.12,-36.05 21.12,-1.04 39.19,13.41 40.35,32.27l-76.47 3.78zm94.9 32.3l-56.64 0.03 -0.04 -68.43 56.64 -0.03 38.19 36.95 -38.15 31.48zm-0.04 -68.43c21.15,-0.01 38.31,15.3 38.32,34.2 0.01,18.9 -17.12,34.22 -38.27,34.23l-0.04 -68.43zm-41.11 64.38l2.96 -32.9 76.35 5.48 -2.96 32.9 -38.18 31.48 -38.16 -36.95zm76.35 5.48c-1.69,18.83 -20.16,32.88 -41.24,31.37 -21.08,-1.51 -36.8,-18.01 -35.11,-36.84l76.35 5.48zm-89.03 -36.96l50.86 0.01 -0.02 68.43 -50.86 -0.01 -38.18 -31.62 38.19 -36.81zm-0.02 68.43c-21.15,-0 -38.29,-15.33 -38.29,-34.22 0,-18.9 17.16,-34.21 38.3,-34.21l-0.02 68.43zm36.69 -54.5l1.51 17.69 -76.37 5.19 -1.51 -17.69 3.43 -16.96 72.94 11.77zm-76.37 5.19c-1.6,-18.84 14.19,-35.28 35.28,-36.71 21.09,-1.43 39.49,12.68 41.09,31.52l-76.37 5.19zm125.06 -11.13l0.17 -1.33 76.13 7.54 -0.17 1.33 -0.43 2.58 -75.69 -10.12zm76.13 7.54c-2.33,18.78 -21.26,32.32 -42.28,30.24 -21.02,-2.08 -36.17,-19 -33.84,-37.78l76.13 7.54zm-3.44 5.56l-76.58 1.41 10.44 -24.19 -2.53 2.66 -1.55 1.98 -0.97 1.43 -0.69 1.14 -0.41 0.74 -0.26 0.51 -0.21 0.43 -0.11 0.24 -0.08 0.18 -0.06 0.14 -0.01 0.02 -0.01 0.02 0.03 -0.07 0.06 -0.15 0.04 -0.13 0.07 -0.2 0.05 -0.16 0.05 -0.17 0.07 -0.22 0.07 -0.23 0.06 -0.2 0.05 -0.18 0.06 -0.2 0.06 -0.21 0.05 -0.18 0.05 -0.19 0.03 -0.1 0.01 -0.04 0.03 -0.14 -0.02 0.08 -0.02 0.1 -0.04 0.17 75.26 12.71 -0.13 0.59 -0.13 0.58 -0.15 0.6 -0.11 0.43 -0.15 0.57 -0.15 0.54 -0.13 0.48 -0.15 0.52 -0.15 0.51 -0.16 0.55 -0.17 0.59 -0.18 0.58 -0.17 0.55 -0.18 0.57 -0.2 0.63 -0.21 0.62 -0.2 0.59 -0.23 0.64 -0.22 0.61 -0.25 0.67 -0.29 0.75 -0.28 0.72 -0.33 0.81 -0.36 0.82 -0.38 0.85 -0.48 0.99 -0.53 1.03 -0.67 1.21 -0.95 1.57 -1.22 1.79 -1.8 2.29 -2.76 2.91 10.44 -24.19zm-10.44 24.19c-14.52,13.74 -38.76,14.37 -54.14,1.4 -15.38,-12.97 -16.08,-34.63 -1.56,-48.37l55.7 46.97zm7.85 -11.3l-75.53 -11.35 6.72 -14.35 -1.13 1.48 -0.82 1.2 -0.62 1 -0.44 0.78 -0.29 0.54 -0.2 0.4 -0.21 0.44 -0.2 0.44 -0.12 0.28 -0.07 0.16 -0.08 0.19 -0.05 0.13 -0.06 0.17 -0.06 0.18 -0.03 0.08 -0.01 0.04 -0.05 0.17 -0.04 0.14 -0.01 0.02 -0.06 0.22 -0.05 0.18 -0.02 0.07 -0.06 0.26 -0.05 0.25 -0.06 0.28 -0.08 0.42 -0.07 0.44 -0.07 0.51 -0.07 0.7 -0.06 0.81 -0.04 0.95 -0 1.34 76.58 -1.41 -0 1.65 -0.06 1.29 -0.09 1.17 -0.12 1.08 -0.12 0.91 -0.14 0.86 -0.15 0.85 -0.15 0.73 -0.15 0.71 -0.17 0.73 -0.14 0.54 -0.17 0.66 -0.19 0.7 -0.15 0.5 -0.19 0.62 -0.21 0.65 -0.17 0.53 -0.19 0.56 -0.23 0.66 -0.23 0.63 -0.22 0.58 -0.25 0.63 -0.24 0.59 -0.3 0.69 -0.37 0.83 -0.39 0.81 -0.37 0.74 -0.46 0.87 -0.61 1.07 -0.79 1.27 -0.98 1.44 -1.28 1.69 6.72 -14.35zm-6.72 14.35c-12.38,15.32 -36.32,18.77 -53.47,7.71 -17.15,-11.06 -21.01,-32.45 -8.63,-47.77l62.1 40.06zm-33.17 20.11l0.16 -68.43 -33.76 17.93 -0.4 0.68 -0.27 0.49 -0.19 0.36 -0.25 0.5 -0.18 0.38 -0.1 0.23 -0.11 0.25 -0.02 0.06 -0.09 0.22 -0.06 0.15 0.01 -0.02 -0.05 0.13 -0.03 0.07 -0.01 0.03 0.01 -0.02 -0.03 0.09 -0.02 0.05 -0 0.01 -0.01 0.05 0.01 -0.02 0.02 -0.05 0.01 -0.05 -0.01 0.04 -0.05 0.17 -0.02 0.06 0.03 -0.11 -0.04 0.15 -0.04 0.15 -0.01 0.04 -0.04 0.16 -0.03 0.17 -0.05 0.27 75.53 11.35 -0.12 0.6 -0.1 0.5 -0.11 0.52 -0.09 0.4 -0.12 0.52 -0.14 0.53 -0.07 0.28 -0.12 0.46 -0.16 0.57 -0.13 0.45 -0.11 0.37 -0.11 0.36 -0.12 0.4 -0.15 0.46 -0.14 0.43 -0.16 0.46 -0.17 0.5 -0.14 0.39 -0.15 0.43 -0.18 0.47 -0.2 0.52 -0.15 0.37 -0.21 0.53 -0.25 0.59 -0.18 0.41 -0.27 0.6 -0.26 0.56 -0.33 0.7 -0.41 0.8 -0.34 0.64 -0.42 0.76 -0.55 0.93 -33.76 17.93zm33.76 -17.93c-10.07,16.62 -33.31,22.8 -51.91,13.81 -18.6,-8.99 -25.52,-29.76 -15.45,-46.38l67.36 32.57zm-86.2 -50.6l52.6 0.1 -0.16 68.43 -52.6 -0.1 -38.06 -31.17 38.22 -37.26zm-0.16 68.43c-21.15,-0.04 -38.26,-15.39 -38.22,-34.29 0.04,-18.9 17.23,-34.18 38.38,-34.14l-0.16 68.43zm-37.31 -44.33l76.56 2.11 -7.63 19.46 2.86 -3.96 1.59 -2.92 0.85 -1.96 0.53 -1.48 0.39 -1.3 0.2 -0.8 0.11 -0.49 0.09 -0.44 0.07 -0.42 0.03 -0.22 0.02 -0.15 0.01 -0.1 -0.01 0.04 0.01 -0.07 -0.01 0.1 -0.01 0.12 0 -0.01 -0.01 0.15 -0.01 0.16 -0.01 0.08 -0 0.15 -0 0.06 0 0.12 -0 0.18 0 -0.01 0 0.04 0 -0.01 -0 -0.07 -0.01 -0.15 -0.01 -0.26 -0.02 -0.28 -0.05 -0.59 -76.29 6.09 -0.08 -0.95 -0.05 -0.69 -0.04 -0.72 -0.02 -0.65 -0.02 -0.61 -0.01 -0.58 -0 -0.57 0 -0.64 0.01 -0.47 0.01 -0.55 0.02 -0.63 0.02 -0.56 0.03 -0.63 0.03 -0.56 0.03 -0.57 0.05 -0.73 0.05 -0.59 0.05 -0.6 0.07 -0.76 0.07 -0.65 0.09 -0.76 0.11 -0.79 0.12 -0.83 0.17 -1 0.19 -0.99 0.22 -1 0.32 -1.28 0.52 -1.73 0.67 -1.86 0.99 -2.29 1.74 -3.21 3.02 -4.18 -7.63 19.46zm7.63 -19.46c12.68,-15.12 36.68,-18.2 53.61,-6.87 16.93,11.33 20.37,32.78 7.69,47.9l-61.3 -41.03zm69.08 17.17l-0.15 4.4 -76.56 -2.11 0.15 -4.4 0.09 -1.56 76.46 3.67zm-76.56 -2.11c0.65,-18.89 18.32,-33.73 39.46,-33.15 21.14,0.58 37.75,16.37 37.1,35.26l-76.56 -2.11zm78.12 -15.66l-1.66 19.33 -76.37 -5.23 1.66 -19.33 38.24 -31.6 38.12 36.83zm-76.37 -5.23c1.62,-18.84 20.02,-32.94 41.11,-31.5 21.09,1.44 36.87,17.89 35.26,36.73l-76.37 -5.23zm99.41 36.91l-61.29 -0.08 0.12 -68.43 61.29 0.08 37.57 40.58 -37.69 27.85zm0.12 -68.43c21.15,0.03 38.27,15.37 38.24,34.27 -0.03,18.9 -17.21,34.19 -38.36,34.16l0.12 -68.43zm34.56 46.98l-76.13 -7.54 9.05 -18.56 -2.1 2.39 -1.22 1.64 -0.86 1.31 -0.55 0.93 -0.37 0.68 -0.25 0.5 -0.14 0.29 -0.1 0.22 -0.03 0.07 -0.04 0.1 -0.02 0.04 0.04 -0.09 0.03 -0.09 0.05 -0.13 0.03 -0.08 0.07 -0.19 0.07 -0.2 0.04 -0.11 0.06 -0.19 0.08 -0.24 0.05 -0.16 0.06 -0.19 0.05 -0.14 0.05 -0.18 0.05 -0.18 0.01 -0.03 0.02 -0.05 -0.02 0.05 -0.01 0.05 -0.02 0.08 -0.07 0.27 -0.14 0.61 75.26 12.73 -0.2 0.89 -0.15 0.61 -0.12 0.47 -0.13 0.49 -0.15 0.54 -0.14 0.48 -0.16 0.54 -0.13 0.42 -0.14 0.44 -0.16 0.51 -0.15 0.48 -0.17 0.53 -0.15 0.46 -0.18 0.53 -0.21 0.61 -0.19 0.53 -0.19 0.53 -0.23 0.63 -0.22 0.58 -0.23 0.6 -0.23 0.59 -0.28 0.7 -0.31 0.74 -0.3 0.68 -0.36 0.8 -0.4 0.83 -0.51 1 -0.62 1.14 -0.79 1.34 -1.1 1.67 -1.45 1.95 -2.31 2.64 9.05 -18.56zm-9.05 18.56c-13.8,14.32 -37.99,15.93 -54.01,3.59 -16.02,-12.33 -17.83,-33.94 -4.02,-48.26l58.03 44.66zm-254 5.53l51.64 -50.54 12.46 24.2 -0.41 -3.97 -0.37 -1.79 -0.21 -0.82 -0.11 -0.38 -0.06 -0.2 0 0.01 0.07 0.18 0.11 0.3 0.12 0.32 0.15 0.4 0.18 0.46 0.18 0.46 0.21 0.52 0.21 0.52 0.2 0.5 0.24 0.58 0.22 0.54 0.22 0.52 0.21 0.5 0.22 0.51 0.21 0.48 0.18 0.4 0.17 0.38 0.14 0.3 0.12 0.26 0.07 0.14 -0.01 -0.02 -0.08 -0.16 -0.28 -0.51 -0.55 -0.93 -1.28 -1.9 -3.88 -4.46 -56.27 46.43 -4.07 -4.69 -1.52 -2.26 -0.84 -1.42 -0.61 -1.11 -0.45 -0.87 -0.41 -0.83 -0.36 -0.76 -0.34 -0.72 -0.34 -0.75 -0.33 -0.74 -0.34 -0.77 -0.32 -0.74 -0.32 -0.75 -0.34 -0.79 -0.33 -0.79 -0.32 -0.78 -0.31 -0.74 -0.33 -0.82 -0.31 -0.78 -0.3 -0.77 -0.31 -0.79 -0.29 -0.75 -0.29 -0.77 -0.29 -0.78 -0.27 -0.74 -0.28 -0.79 -0.3 -0.88 -0.32 -0.99 -0.32 -1.07 -0.37 -1.4 -0.47 -2.26 -0.45 -4.31 12.46 24.2zm-12.46 -24.2c-0.66,-18.89 15.95,-34.68 37.09,-35.26 21.14,-0.59 38.81,14.25 39.47,33.13l-76.56 2.13zm32.47 -46.94l1.33 68.42 36.76 -41.46 -0.18 -0.7 -0.1 -0.35 -0.05 -0.18 -0.03 -0.08 -0.01 -0.03 0.05 0.14 0.05 0.13 0.08 0.21 0.1 0.27 0.09 0.22 0.11 0.29 0.11 0.27 0.11 0.28 0.12 0.3 0.14 0.34 0.12 0.3 0.1 0.24 0.11 0.26 0.12 0.28 0.07 0.16 0.07 0.15 0.07 0.15 0 0.01 0 0.01 -0.05 -0.09 -0.17 -0.31 -0.25 -0.42 -0.35 -0.57 -0.64 -0.96 -1 -1.36 -1.79 -2.09 -3.48 -3.25 -51.64 50.54 -3.72 -3.48 -2.05 -2.4 -1.29 -1.75 -0.95 -1.43 -0.68 -1.1 -0.59 -1.02 -0.53 -0.96 -0.42 -0.8 -0.38 -0.75 -0.38 -0.78 -0.32 -0.69 -0.33 -0.71 -0.33 -0.73 -0.28 -0.63 -0.29 -0.67 -0.3 -0.7 -0.27 -0.64 -0.25 -0.61 -0.26 -0.64 -0.27 -0.66 -0.25 -0.65 -0.24 -0.62 -0.25 -0.66 -0.21 -0.58 -0.22 -0.61 -0.23 -0.64 -0.21 -0.59 -0.24 -0.71 -0.23 -0.71 -0.23 -0.75 -0.25 -0.86 -0.29 -1.14 36.76 -41.46zm-36.76 41.46c-4.48,-18.47 8.65,-36.69 29.32,-40.69 20.67,-4 41.06,7.73 45.54,26.19l-74.85 14.49zm139.83 -17.15l-73.17 20.24 28.77 23.37 3.94 0.53 0.58 0.04 -0.39 -0.02 -0.89 -0.03 -1.3 -0.03 -1.61 -0.03 -1.84 -0.02 -2.07 -0.02 -2.25 -0.02 -2.4 -0.01 -2.55 -0.01 -2.64 -0.01 -2.75 -0.01 -2.82 -0 -2.86 -0 -2.89 0 -2.9 0 -2.87 0.01 -2.84 0.01 -2.79 0.01 -2.71 0.01 -2.61 0.01 -2.5 0.01 -2.35 0.01 -2.19 0.01 -2.01 0.01 -1.8 0.01 -1.57 0.01 -1.34 0.01 -1.09 0.01 -0.73 0.01 -0.29 0 -1.33 -68.42 0.76 -0.01 0.92 -0.01 1.12 -0.01 1.4 -0.01 1.65 -0.01 1.86 -0.01 2.05 -0.01 2.23 -0.01 2.4 -0.01 2.52 -0.01 2.65 -0.01 2.75 -0.01 2.82 -0.01 2.89 -0.01 2.93 -0.01 2.94 -0 2.94 -0 2.93 0 2.88 0 2.83 0.01 2.76 0.01 2.65 0.01 2.55 0.01 2.42 0.02 2.27 0.02 2.13 0.03 1.94 0.03 1.81 0.04 1.72 0.05 1.69 0.07 2.09 0.13 4.84 0.63 28.77 23.37zm-28.77 -23.37c20.7,3.86 33.99,21.98 29.67,40.48 -4.32,18.5 -24.6,30.37 -45.31,26.51l15.63 -66.99zm-5.19 100.38l0 -68.43 -37.46 27.11 -0.75 4.98 -0.05 1.23 0 0.3 -0.01 -0.17 -0.02 -0.45 -0.03 -0.68 -0.04 -0.81 -0.06 -0.94 -0.07 -1.07 -0.07 -1.13 -0.08 -1.23 -0.09 -1.27 -0.1 -1.3 -0.1 -1.37 -0.11 -1.38 -0.11 -1.39 -0.11 -1.41 -0.11 -1.38 -0.11 -1.35 -0.12 -1.33 -0.12 -1.3 -0.11 -1.21 -0.11 -1.15 -0.11 -1.09 -0.1 -0.95 -0.09 -0.84 -0.08 -0.7 -0.06 -0.48 -0.03 -0.26 0.02 0.15 0.18 0.95 0.99 3.57 73.17 -20.24 1.12 4.06 0.32 1.75 0.19 1.23 0.15 1.08 0.13 1.1 0.12 1.11 0.12 1.16 0.13 1.24 0.12 1.26 0.13 1.33 0.13 1.4 0.13 1.41 0.13 1.46 0.13 1.5 0.12 1.5 0.12 1.5 0.12 1.51 0.12 1.5 0.11 1.47 0.11 1.48 0.1 1.42 0.09 1.36 0.09 1.34 0.08 1.26 0.07 1.22 0.06 1.17 0.05 1.09 0.04 1.1 0.03 1.13 0.01 1.34 -0.07 1.98 -0.8 5.43 -37.46 27.11zm37.46 -27.11c-4.39,18.49 -24.72,30.29 -45.41,26.37 -20.69,-3.92 -33.9,-22.09 -29.51,-40.57l74.92 14.21zm-92.14 -41.32l54.68 0 -0 68.43 -54.68 -0 -36.17 -22.97 36.17 -45.46zm-0 68.43c-21.15,0 -38.29,-15.32 -38.29,-34.22 0,-18.9 17.15,-34.21 38.3,-34.21l-0 68.43zm33.85 -51.41l2.32 5.95 -72.34 22.48 -2.32 -5.95 64.31 -34.45 8.03 11.97zm-72.34 22.48c-6.95,-17.85 3.61,-37.35 23.59,-43.56 19.98,-6.21 41.8,3.23 48.75,21.08l-72.34 22.48zm-23.66 -98.01l-68.2 31.15 0 0.01 -0.9 -1.65 -0.88 -1.78 -0.8 -1.83 -0.73 -1.89 -0.64 -1.93 -0.56 -2.05 -0.46 -2.15 -0.33 -2.1 -0.21 -2.09 -0.09 -2.19 0.03 -2.08 0.14 -2.01 0.24 -1.97 0.33 -1.86 0.4 -1.79 0.43 -1.56 0.47 -1.51 0.5 -1.41 0.46 -1.16 0.46 -1.08 0.45 -0.98 0.36 -0.76 0.29 -0.6 0.27 -0.53 0.22 -0.44 0.13 -0.26 0.04 -0.08 0.01 -0.02 -0.05 0.1 -0.11 0.25 -0.16 0.37 -0.19 0.48 72.46 22.18 -0.46 1.16 -0.45 1.03 -0.41 0.91 -0.36 0.75 -0.31 0.63 -0.29 0.57 -0.2 0.38 -0.1 0.19 -0.05 0.1 -0.02 0.04 0.05 -0.11 0.15 -0.34 0.18 -0.43 0.2 -0.5 0.27 -0.75 0.26 -0.83 0.24 -0.87 0.24 -1.09 0.2 -1.14 0.15 -1.24 0.09 -1.26 0.02 -1.31 -0.06 -1.41 -0.13 -1.28 -0.2 -1.27 -0.28 -1.29 -0.32 -1.18 -0.34 -1.03 -0.37 -0.96 -0.38 -0.86 -0.39 -0.78 -0.34 -0.63 0 0.01zm-0 -0.01c9.63,16.82 2.17,37.44 -16.66,46.04 -18.83,8.6 -41.9,1.94 -51.53,-14.88l68.19 -31.16zm42.72 10.07l-72.1 23.08 34.02 22.63 -1.03 -0.04 -1.08 -0.02 -1.11 -0.01 -1.18 0.01 -1.27 0.02 -1.3 0.03 -1.37 0.05 -1.45 0.06 -1.48 0.06 -1.59 0.07 -1.65 0.07 -1.73 0.06 -1.83 0.05 -1.91 0.04 -2.06 0.01 -2.14 -0.02 -2.29 -0.07 -2.45 -0.14 -2.57 -0.22 -2.79 -0.34 -2.97 -0.48 -3.15 -0.67 -3.36 -0.9 -3.52 -1.18 -3.63 -1.5 -3.69 -1.86 -3.67 -2.24 -3.53 -2.6 -3.27 -2.91 -2.97 -3.18 -2.58 -3.36 -2.18 -3.43 68.2 -31.15 -1.04 -1.64 -1.33 -1.73 -1.6 -1.71 -1.79 -1.59 -1.94 -1.43 -1.97 -1.2 -1.89 -0.95 -1.73 -0.71 -1.52 -0.51 -1.26 -0.34 -0.96 -0.2 -0.69 -0.11 -0.42 -0.05 -0.12 -0.01 0.09 0.01 0.33 0.01 0.56 0.01 0.72 -0.01 0.94 -0.02 1.09 -0.03 1.26 -0.05 1.39 -0.06 1.52 -0.07 1.68 -0.07 1.78 -0.07 1.9 -0.07 2.03 -0.05 2.11 -0.04 2.24 -0.02 2.36 0.02 2.42 0.05 2.51 0.1 34.02 22.63zm-34.02 -22.63c21.12,1 37.33,17.11 36.21,35.98 -1.12,18.87 -19.15,33.35 -40.27,32.35l4.06 -68.34zm-35.07 53.21l-3.01 -7.5 72.1 -23.08 3.01 7.5 -65.94 32.93 -6.16 -9.85zm72.1 -23.08c7.13,17.79 -3.22,37.38 -23.13,43.75 -19.91,6.37 -41.83,-2.88 -48.97,-20.67l72.1 -23.08zm-4.57 0.84l-50.7 51.29 -12.89 -23.76 0.39 3.29 0.32 1.52 0.24 0.95 0.13 0.44 0.02 0.06 -0.01 -0.04 -0.04 -0.11 -0.07 -0.2 -0.13 -0.35 -0.14 -0.38 -0.16 -0.41 -0.18 -0.47 -0.2 -0.49 -0.2 -0.5 -0.2 -0.5 -0.23 -0.55 -0.22 -0.54 -0.21 -0.49 -0.22 -0.5 -0.22 -0.52 -0.2 -0.45 -0.19 -0.42 -0.18 -0.4 -0.14 -0.31 -0.13 -0.28 -0.09 -0.19 -0.01 -0.02 0.05 0.1 0.13 0.24 0.4 0.71 0.96 1.55 2.96 3.81 59.78 -42.78 3.12 4.03 1.18 1.9 0.66 1.18 0.43 0.83 0.4 0.79 0.37 0.76 0.32 0.68 0.31 0.66 0.32 0.7 0.31 0.68 0.32 0.71 0.32 0.73 0.3 0.7 0.32 0.74 0.33 0.77 0.31 0.74 0.31 0.74 0.32 0.79 0.31 0.77 0.3 0.76 0.3 0.75 0.3 0.78 0.29 0.76 0.28 0.74 0.3 0.83 0.3 0.85 0.29 0.85 0.28 0.86 0.34 1.15 0.4 1.55 0.42 2.02 0.44 3.67 -12.89 -23.76zm12.89 23.76c1.16,18.87 -15.01,35.01 -36.13,36.05 -21.12,1.04 -39.18,-13.41 -40.35,-32.28l76.47 -3.77zm-5.1 -10.66l-57.47 45.24 -8.76 -15.67 0.13 0.55 0.09 0.33 0.06 0.2 0.01 0.04 -0.01 -0.04 -0.01 -0.05 -0.02 -0.05 -0.03 -0.07 -0.07 -0.21 -0.06 -0.17 -0.08 -0.21 -0.08 -0.22 -0.04 -0.11 -0.09 -0.23 -0.08 -0.21 -0.05 -0.13 -0.06 -0.15 -0.07 -0.15 -0.05 -0.13 -0.03 -0.06 -0.02 -0.04 0.02 0.04 0.07 0.14 0.08 0.16 0.14 0.26 0.24 0.43 0.36 0.59 0.5 0.76 0.79 1.11 1.23 1.54 1.89 2.04 3 2.65 50.7 -51.29 3.26 2.89 2.17 2.35 1.52 1.91 1.09 1.54 0.81 1.25 0.68 1.12 0.57 1.01 0.47 0.88 0.42 0.82 0.41 0.82 0.36 0.76 0.32 0.7 0.31 0.7 0.28 0.65 0.27 0.64 0.27 0.65 0.27 0.68 0.23 0.6 0.22 0.57 0.26 0.68 0.21 0.57 0.2 0.56 0.2 0.58 0.18 0.51 0.21 0.62 0.2 0.61 0.19 0.58 0.17 0.55 0.17 0.58 0.2 0.7 0.21 0.78 0.23 0.93 -8.76 -15.67zm8.76 15.67c4.3,18.5 -9.01,36.61 -29.71,40.45 -20.71,3.84 -40.98,-8.05 -45.28,-26.55l74.99 -13.91zm-5.08 -2.83l-52.23 50.06 -12.16 -23.86 0.39 3.8 0.36 1.77 0.24 0.92 0.13 0.45 0.04 0.12 -0.01 -0.03 -0.06 -0.17 -0.09 -0.26 -0.12 -0.32 -0.15 -0.38 -0.17 -0.45 -0.19 -0.48 -0.19 -0.48 -0.21 -0.52 -0.22 -0.53 -0.22 -0.53 -0.23 -0.56 -0.23 -0.55 -0.21 -0.49 -0.2 -0.47 -0.22 -0.5 -0.19 -0.43 -0.15 -0.34 -0.15 -0.33 -0.13 -0.27 -0.09 -0.18 -0.01 -0.03 0.09 0.18 0.24 0.44 0.48 0.83 1.18 1.79 3.53 4.2 57.47 -45.24 3.72 4.43 1.41 2.15 0.76 1.32 0.56 1.04 0.46 0.89 0.38 0.78 0.34 0.72 0.33 0.7 0.33 0.72 0.35 0.77 0.33 0.74 0.31 0.71 0.34 0.78 0.34 0.79 0.32 0.75 0.32 0.76 0.33 0.79 0.32 0.79 0.32 0.78 0.32 0.8 0.3 0.77 0.3 0.76 0.3 0.78 0.3 0.79 0.28 0.78 0.28 0.8 0.29 0.86 0.3 0.92 0.34 1.15 0.4 1.51 0.46 2.25 0.43 4.15 -12.16 -23.86zm12.16 23.86c0.72,18.88 -15.83,34.72 -36.97,35.36 -21.14,0.64 -38.86,-14.14 -39.58,-33.03l76.55 -2.33zm8.91 15.12l-71.91 23.56 0 -0 -0.16 -0.39 -0.19 -0.45 -0.23 -0.57 -0.26 -0.64 -0.28 -0.7 -0.31 -0.75 -0.33 -0.82 -0.36 -0.89 -0.38 -0.93 -0.39 -0.95 -0.41 -0.99 -0.43 -1.04 -0.43 -1.05 -0.43 -1.04 -0.45 -1.08 -0.44 -1.05 -0.43 -1.02 -0.44 -1.04 -0.42 -1 -0.41 -0.95 -0.39 -0.91 -0.37 -0.83 -0.33 -0.75 -0.3 -0.66 -0.27 -0.59 -0.2 -0.42 -0.11 -0.22 -0.01 -0.02 0.19 0.35 0.6 1.01 1.54 2.23 5.44 5.67 52.23 -50.06 5.73 5.99 1.91 2.78 1.05 1.77 0.71 1.31 0.57 1.12 0.54 1.1 0.49 1.04 0.47 1.02 0.49 1.07 0.49 1.09 0.49 1.11 0.49 1.12 0.49 1.14 0.49 1.15 0.49 1.14 0.5 1.19 0.49 1.17 0.47 1.14 0.48 1.16 0.46 1.13 0.44 1.08 0.44 1.07 0.42 1.04 0.39 0.97 0.37 0.91 0.35 0.86 0.32 0.79 0.29 0.7 0.24 0.6 0.2 0.49 0.17 0.42 0.11 0.28 0 -0zm0 0c7.28,17.74 -2.91,37.4 -22.77,43.9 -19.86,6.51 -41.86,-2.6 -49.14,-20.34l71.91 -23.56zm26.45 110.93l-59.44 -43.16 -7.38 30.06 0.41 1.28 -0.09 -0.23 -0.35 -0.9 -0.53 -1.33 -0.67 -1.65 -0.8 -1.93 -0.91 -2.18 -1.01 -2.41 -1.09 -2.6 -1.16 -2.76 -1.23 -2.92 -1.28 -3.04 -1.33 -3.14 -1.37 -3.22 -1.39 -3.27 -1.41 -3.31 -1.42 -3.32 -1.41 -3.31 -1.4 -3.28 -1.38 -3.24 -1.35 -3.17 -1.32 -3.07 -1.26 -2.96 -1.21 -2.82 -1.14 -2.67 -1.06 -2.49 -0.98 -2.3 -0.89 -2.09 -0.78 -1.84 -0.68 -1.61 -0.57 -1.36 -0.47 -1.13 71.91 -23.56 0.32 0.78 0.49 1.17 0.63 1.49 0.76 1.79 0.86 2.03 0.96 2.26 1.06 2.48 1.13 2.65 1.21 2.82 1.26 2.95 1.31 3.07 1.35 3.17 1.39 3.24 1.41 3.3 1.42 3.33 1.43 3.34 1.42 3.33 1.41 3.3 1.38 3.25 1.35 3.18 1.31 3.09 1.25 2.97 1.2 2.85 1.13 2.69 1.05 2.51 0.97 2.34 0.88 2.14 0.79 1.93 0.69 1.72 0.62 1.58 0.6 1.63 0.8 2.48 -7.38 30.06zm7.38 -30.06c5.24,18.31 -7.13,36.95 -27.62,41.63 -20.49,4.68 -41.35,-6.37 -46.59,-24.67l74.21 -16.95zm-19.75 39.41l-44.45 -55.73 0.01 -0.01 0.6 -0.37 0.58 -0.35 0.57 -0.33 0.42 -0.24 0.47 -0.27 0.25 -0.14 0.39 -0.21 0.39 -0.21 0.11 -0.06 0.31 -0.17 0.17 -0.09 -0.03 0.01 0.11 -0.06 0.1 -0.05 0.04 -0.02 -0.03 0.02 -0.11 0.06 -0.04 0.02 -0.19 0.11 -0.19 0.11 -0.2 0.12 -0.29 0.18 -0.42 0.27 -0.3 0.2 -0.48 0.34 -0.62 0.45 -0.51 0.4 -0.62 0.5 -0.65 0.56 -0.85 0.77 -0.76 0.74 -0.86 0.91 59.44 43.16 -1.07 1.13 -0.98 0.96 -1.09 0.99 -0.9 0.77 -0.88 0.72 -0.79 0.61 -0.9 0.66 -0.77 0.54 -0.6 0.41 -0.72 0.47 -0.6 0.38 -0.52 0.32 -0.52 0.31 -0.52 0.3 -0.37 0.21 -0.44 0.25 -0.37 0.21 -0.3 0.17 -0.24 0.13 -0.23 0.13 -0.36 0.2 -0.17 0.09 -0.02 0.01 -0.22 0.12 0.06 -0.04 0.07 -0.04 -0.06 0.04 0.16 -0.09 0.11 -0.07 0.28 -0.16 0.29 -0.18 0.32 -0.2 0.01 -0.01zm-0.01 0.01c-17.23,10.96 -41.14,7.37 -53.41,-8.02 -12.27,-15.39 -8.25,-36.76 8.98,-47.72l44.43 55.74zm1.21 -4.84l-41.06 57.77 -0 -0 -4.12 -2.5 -3.92 -2.72 -3.7 -2.94 -3.44 -3.11 -3.16 -3.27 -2.9 -3.43 -2.61 -3.57 -2.32 -3.67 -2.02 -3.74 -1.72 -3.78 -1.44 -3.84 -1.16 -3.87 -0.88 -3.88 -0.61 -3.86 -0.35 -3.85 -0.1 -3.84 0.14 -3.79 0.38 -3.75 0.61 -3.72 0.84 -3.66 1.06 -3.61 1.28 -3.56 1.51 -3.49 1.73 -3.42 1.95 -3.34 2.18 -3.26 2.42 -3.18 2.66 -3.07 2.91 -2.95 3.15 -2.82 3.39 -2.66 3.63 -2.49 44.45 55.73 0.49 -0.34 0.42 -0.33 0.35 -0.32 0.28 -0.29 0.22 -0.25 0.17 -0.22 0.12 -0.17 0.08 -0.14 0.06 -0.11 0.04 -0.09 0.03 -0.08 0.02 -0.05 0.01 -0.05 0.01 -0.06 0.01 -0.05 0 -0.07 -0 -0.1 -0.01 -0.11 -0.02 -0.13 -0.04 -0.17 -0.06 -0.2 -0.08 -0.21 -0.09 -0.2 -0.12 -0.23 -0.15 -0.23 -0.16 -0.22 -0.16 -0.18 -0.13 -0.14 -0.12 -0.1 -0.08 -0.06 0.01 0.01 0.11 0.07 -0 -0zm0 0c17.85,10.13 23.14,31.27 11.8,47.23 -11.34,15.95 -35,20.67 -52.86,10.54l41.06 -57.77zm-7.34 0.5l26.97 64.05 -7.48 1.77 -1.41 0.19 -1.47 0.19 -1.48 0.17 -1.44 0.15 -1.52 0.14 -1.54 0.12 -1.54 0.09 -1.59 0.07 -1.6 0.05 -1.61 0.02 -1.66 -0.01 -1.71 -0.04 -1.73 -0.08 -1.72 -0.12 -1.73 -0.15 -1.77 -0.2 -1.82 -0.24 -1.8 -0.29 -1.79 -0.33 -1.79 -0.37 -1.8 -0.42 -1.82 -0.48 -1.8 -0.52 -1.76 -0.56 -1.74 -0.6 -1.74 -0.65 -1.71 -0.69 -1.7 -0.73 -1.67 -0.77 -1.62 -0.8 -1.55 -0.81 -1.54 -0.85 41.06 -57.77 -0.03 -0.02 -0.05 -0.02 -0.11 -0.06 -0.17 -0.08 -0.18 -0.08 -0.2 -0.08 -0.22 -0.08 -0.21 -0.07 -0.23 -0.07 -0.26 -0.07 -0.27 -0.07 -0.25 -0.06 -0.22 -0.05 -0.21 -0.04 -0.21 -0.03 -0.21 -0.03 -0.15 -0.02 -0.08 -0.01 -0.07 -0.01 -0.04 -0 -0.01 0 0.06 0 0.13 -0 0.17 -0.01 0.2 -0.01 0.28 -0.02 0.31 -0.02 0.35 -0.03 0.46 -0.05 0.46 -0.05 0.5 -0.06 0.59 -0.08 -7.48 1.77zm7.48 -1.77c20.89,-2.96 40.51,9.77 43.83,28.43 3.32,18.66 -10.93,36.2 -31.82,39.16l-12.01 -67.59zm27.8 63.02l-8.31 2.79 -26.97 -64.05 8.31 -2.79 45.17 51.25 -18.19 12.8zm-26.97 -64.05c19.8,-6.65 41.88,2.29 49.33,19.97 7.45,17.69 -2.56,37.42 -22.36,44.07l-26.97 -64.05zm-10.02 5.14l49.93 51.9 -12.2 6.31 -0.22 0.07 0.1 -0.03 -0.17 0.06 -0.26 0.08 -0.07 0.02 0.3 -0.1 0.29 -0.09 0.53 -0.19 0.21 -0.07 0.87 -0.33 1.56 -0.64 0.73 -0.33 1.76 -0.87 2.64 -1.53 2.64 -1.84 2.35 -1.94 3.41 -3.52 2.9 -3.99 1.44 -2.59 0.92 -2 0.69 -1.81 0.21 -0.64 -0.31 0.92 -0.28 0.75 -0.14 0.35 -0.36 0.89 -0.69 1.51 -0.73 1.4 -0.52 0.92 -0.74 1.2 -0.96 1.41 -0.62 0.84 -63.36 -38.45 -0.53 0.72 -0.89 1.31 -0.68 1.1 -0.47 0.83 -0.68 1.32 -0.66 1.44 -0.34 0.82 -0.11 0.29 -0.25 0.69 -0.29 0.87 0.23 -0.69 0.71 -1.85 0.93 -2.04 1.46 -2.62 2.92 -4.03 3.44 -3.55 2.38 -1.97 2.69 -1.87 2.7 -1.56 1.83 -0.91 0.8 -0.36 1.65 -0.69 0.98 -0.37 0.33 -0.12 0.67 -0.23 0.45 -0.15 0.48 -0.15 0.13 -0.04 -0.04 0.01 0.08 -0.03 0.37 -0.12 0.09 -0.03 -12.2 6.31zm12.2 -6.31c19.94,-6.3 41.82,3.04 48.87,20.86 7.05,17.82 -3.41,37.37 -23.35,43.66l-25.52 -64.52zm45.61 52.15l-7.89 6.06 -49.93 -51.9 7.89 -6.06 60.28 39.17 -10.36 12.72zm-49.93 -51.9c16.04,-12.32 40.22,-10.69 54.01,3.65 13.79,14.33 11.96,35.93 -4.08,48.25l-49.93 -51.9zm-3.12 2.15l58.07 44.62 0 -0.01 -0.16 0.17 -0.03 0.03 0.15 -0.15 -0.17 0.18 -0.2 0.2 0.22 -0.23 0.29 -0.31 -0.19 0.2 0.37 -0.4 0.76 -0.87 0.22 -0.26 0.95 -1.2 0.64 -0.88 0.72 -1.08 0.89 -1.46 0.42 -0.76 1 -2.03 0.5 -1.18 -0.07 0.19 0.34 -0.87 0.18 -0.5 -0.15 0.42 0.16 -0.44 -0.06 0.18 -0.34 0.91 -0.07 0.17 -0.06 0.15 -0.19 0.47 -0.24 0.57 -0.28 0.63 -0.09 0.19 -0.18 0.38 -70.64 -26.45 -0.09 0.19 -0.01 0.03 -0.21 0.47 -0.18 0.43 -0.14 0.34 -0.02 0.04 -0.03 0.07 -0.3 0.82 -0.03 0.1 0.18 -0.51 -0.12 0.35 0.2 -0.56 0.36 -0.93 -0.05 0.14 0.52 -1.23 1.02 -2.07 0.45 -0.81 0.91 -1.51 0.76 -1.12 0.67 -0.93 0.99 -1.26 0.27 -0.32 0.82 -0.94 0.44 -0.47 -0.12 0.12 0.38 -0.4 0.32 -0.33 -0.09 0.09 -0.05 0.05 0.28 -0.29 0.12 -0.12 0 -0 0 -0.01zm-0 0.01c13.79,-14.33 37.97,-15.96 54.01,-3.64 16.04,12.32 17.86,33.92 4.07,48.25l-58.08 -44.61zm-7.7 16.43l75.75 10.11 -16.5 23.33 -0.59 0.35 -0.7 0.4 -1.35 0.72 -1.36 0.66 -1.2 0.53 -1.68 0.67 -1.81 0.63 -3.08 0.87 -4.7 0.86 -1.07 0.12 -4.27 0.21 -3.06 -0.11 -0.24 -0.02 -0.6 -0.05 3.87 0.18 3.87 -0.18 9.5 -1.98 4.33 -1.72 4.72 -2.61 2.14 -1.49 1.48 -1.17 0.98 -0.85 0.62 -0.57 0.75 -0.73 -0.04 0.04 0.18 -0.19 -0.08 0.08 -0.08 0.08 0.21 -0.22 0.01 -0.01 -0.14 0.15 -0.09 0.09 -58.07 -44.62 0.1 -0.1 0.02 -0.02 0.16 -0.16 0.34 -0.35 0.03 -0.03 0.02 -0.02 0.27 -0.27 0.04 -0.04 0.81 -0.79 0.68 -0.62 1.03 -0.89 1.52 -1.2 2.17 -1.52 4.75 -2.62 4.35 -1.73 9.52 -1.98 3.89 -0.18 3.88 0.18 -0.58 -0.05 -0.22 -0.02 -3.04 -0.11 -4.24 0.21 -1.03 0.12 -4.66 0.85 -3.02 0.85 -1.75 0.61 -1.61 0.64 -1.11 0.49 -1.26 0.61 -1.24 0.66 -0.57 0.32 -0.45 0.27 -16.5 23.33zm16.5 -23.33c17.55,-10.55 41.35,-6.39 53.15,9.29 11.81,15.68 7.15,36.94 -10.39,47.49l-42.76 -56.77zm-10.43 12.65l75.29 -12.55 -0.1 -0.46 0.52 2.66 0.38 2.67 0.22 2.58 0.09 2.51 -0.03 2.43 -0.14 2.35 -0.24 2.29 -0.32 2.18 -0.39 2.08 -0.45 1.99 -0.5 1.9 -0.55 1.83 -0.59 1.75 -0.58 1.59 -0.61 1.55 -0.63 1.48 -0.62 1.36 -0.6 1.25 -0.59 1.18 -0.59 1.13 -0.55 1.01 -0.5 0.89 -0.46 0.81 -0.41 0.7 -0.32 0.54 -0.22 0.37 -0.12 0.2 0.05 -0.09 0.28 -0.51 0.56 -1.13 1 -2.43 1.4 -5.32 -75.75 -10.11 1.49 -5.64 1.18 -2.84 0.81 -1.63 0.6 -1.1 0.44 -0.77 0.33 -0.56 0.28 -0.47 0.22 -0.37 0.17 -0.29 0.15 -0.26 0.14 -0.25 0.1 -0.19 0.07 -0.14 0.08 -0.15 0.07 -0.14 0.04 -0.09 0.01 -0.03 0 -0.01 0.01 -0.02 -0.03 0.09 -0.04 0.12 -0.04 0.15 -0.05 0.2 -0.05 0.25 -0.04 0.31 -0.04 0.39 -0.03 0.42 -0 0.48 0.02 0.53 0.05 0.57 0.09 0.64 0.12 0.61 -0.1 -0.46zm0.1 0.46c-4.17,-18.53 9.27,-36.56 30,-40.29 20.73,-3.72 40.92,8.28 45.09,26.8l-75.09 13.48zm73.9 -19.22l1.29 6.2 -75.29 12.55 -1.29 -6.2 37.57 -40.49 37.72 27.94zm-75.29 12.55c-3.88,-18.57 9.83,-36.45 30.62,-39.91 20.79,-3.47 40.79,8.78 44.67,27.36l-75.29 12.55zm108.07 27.82l-70.35 0.12 -0.15 -68.43 70.35 -0.12 38.17 37.69 -38.02 30.74zm-0.15 -68.43c21.15,-0.04 38.33,15.25 38.37,34.15 0.04,18.9 -17.07,34.25 -38.22,34.28l-0.15 -68.43zm36.9 44.1l-74.87 14.41 0 0.01 -0.29 -1.25 -0.28 -1.29 -0.24 -1.26 -0.22 -1.26 -0.19 -1.32 -0.16 -1.27 -0.13 -1.31 -0.1 -1.27 -0.07 -1.26 -0.04 -1.34 -0 -1.22 0.03 -1.19 0.05 -1.2 0.08 -1.15 0.09 -1.04 0.11 -1.04 0.12 -0.97 0.12 -0.84 0.13 -0.82 0.12 -0.75 0.12 -0.68 0.11 -0.61 0.1 -0.54 0.08 -0.42 0.07 -0.42 0.08 -0.42 0.05 -0.29 0.05 -0.3 0.05 -0.31 0.03 -0.21 0.03 -0.25 0.03 -0.27 76.2 6.95 -0.12 0.98 -0.13 0.96 -0.14 0.95 -0.13 0.81 -0.13 0.79 -0.13 0.77 -0.11 0.6 -0.1 0.58 -0.1 0.56 -0.08 0.42 -0.06 0.34 -0.05 0.25 -0.03 0.17 -0.02 0.09 -0.01 0.07 0.01 -0.05 0.02 -0.12 0.01 -0.11 0.02 -0.21 0.01 -0.24 0.01 -0.21 -0 -0.22 -0.01 -0.31 -0.01 -0.2 -0.02 -0.18 -0.02 -0.18 -0.01 -0.1 -0.02 -0.1 0 0 0.01 0.05 0.02 0.07 0.04 0.18 0 0.01zm-0 -0.01c4.46,18.47 -8.69,36.68 -29.36,40.66 -20.67,3.98 -41.05,-7.76 -45.51,-26.23l74.87 -14.43zm-0.29 -1.09l-60.25 42.25 0 0 -0.57 -0.66 -0.54 -0.63 -0.52 -0.63 -0.52 -0.64 -0.53 -0.68 -0.55 -0.72 -0.51 -0.69 -0.48 -0.66 -0.53 -0.75 -0.51 -0.74 -0.48 -0.71 -0.5 -0.77 -0.51 -0.8 -0.45 -0.73 -0.47 -0.78 -0.48 -0.83 -0.45 -0.81 -0.46 -0.85 -0.45 -0.86 -0.44 -0.86 -0.42 -0.87 -0.42 -0.89 -0.41 -0.92 -0.41 -0.95 -0.4 -0.99 -0.37 -0.97 -0.36 -1 -0.34 -1 -0.33 -1.04 -0.33 -1.1 -0.3 -1.11 -0.28 -1.09 74.87 -14.41 -0.05 -0.18 -0.05 -0.2 -0.06 -0.2 -0.04 -0.14 -0.04 -0.1 -0.04 -0.11 -0.03 -0.09 -0.04 -0.1 -0.03 -0.08 -0.02 -0.05 -0.02 -0.03 -0.01 -0.01 -0.01 -0.01 -0.01 -0.02 -0.01 -0.02 0.01 0.02 -0.01 -0.01 0.02 0.02 0.04 0.06 -0.01 -0.02 0 0 0.04 0.05 0.01 0.01 -0.01 -0.01 0.05 0.06 0.02 0.02 -0.02 -0.02 0.01 0.01 0.02 0.03 0.02 0.02 0.01 0.01 -0.03 -0.03 0 0zm-0 -0c13.06,14.86 10.16,36.37 -6.48,48.04 -16.64,11.67 -40.71,9.07 -53.77,-5.79l60.25 -42.25zm-4.23 -1.55l10.29 67.81 -2.83 0.25 -2.34 0.1 -2.34 0.04 -2.36 -0.02 -2.31 -0.07 -2.33 -0.13 -2.31 -0.19 -2.28 -0.25 -2.29 -0.31 -2.24 -0.36 -2.27 -0.43 -2.24 -0.49 -2.18 -0.54 -2.17 -0.6 -2.14 -0.66 -2.1 -0.71 -2.09 -0.77 -2.08 -0.84 -2.01 -0.88 -1.96 -0.92 -1.96 -1 -1.9 -1.04 -1.83 -1.07 -1.79 -1.12 -1.74 -1.16 -1.74 -1.24 -1.67 -1.27 -1.57 -1.27 -1.55 -1.33 -1.52 -1.39 -1.46 -1.43 -1.37 -1.42 -1.35 -1.48 60.25 -42.25 -0.14 -0.16 -0.12 -0.12 -0.16 -0.16 -0.17 -0.16 -0.15 -0.13 -0.12 -0.1 -0.17 -0.13 -0.2 -0.14 -0.14 -0.09 -0.14 -0.09 -0.14 -0.08 -0.16 -0.09 -0.18 -0.09 -0.13 -0.06 -0.12 -0.05 -0.15 -0.06 -0.11 -0.04 -0.08 -0.03 -0.07 -0.02 -0.06 -0.02 -0.02 -0.01 -0.04 -0.01 -0.02 -0.01 0.06 0.01 0.05 0.01 0.1 0.01 0.12 0.01 0.14 0.01 0.2 0.01 0.2 0 0.26 -0.01 0.3 -0.01 -2.83 0.25zm2.83 -0.25c21.11,-1.14 39.26,13.22 40.54,32.08 1.28,18.86 -14.8,35.08 -35.91,36.22l-4.63 -68.31zm12.51 67.45l-5.05 0.61 -10.29 -67.81 5.05 -0.61 29.84 60.06 -19.55 7.76zm-10.29 -67.81c20.96,-2.54 40.25,10.59 43.09,29.31 2.84,18.73 -11.85,35.96 -32.8,38.5l-10.29 -67.81zm-5.57 0.7l26.04 64.36 0.01 -0 -0.48 0.15 -0.59 0.18 -1.02 0.3 -0.36 0.1 -0.58 0.16 -0.79 0.2 -0.65 0.15 -0.9 0.19 -0.15 0.03 -0.9 0.17 0.13 -0.03 0.04 -0.01 -0.24 0.04 1.49 -0.3 1.49 -0.36 1.11 -0.31 2.01 -0.65 2.45 -0.95 1.53 -0.69 1.58 -0.8 1.78 -1.01 0.84 -0.52 0.4 -0.26 0.72 -0.49 0.34 -0.24 0.31 -0.22 0.06 -0.05 0.07 -0.06 0.07 -0.05 -0.23 0.17 -0.05 0.04 -0.15 0.11 -49.39 -52.3 0.1 -0.08 0.18 -0.13 -0.02 0.02 0.26 -0.19 0.24 -0.18 0.21 -0.16 0.44 -0.32 0.46 -0.32 0.83 -0.56 0.49 -0.32 0.93 -0.58 1.86 -1.06 1.65 -0.83 1.6 -0.72 2.52 -0.97 2.08 -0.67 1.18 -0.33 1.57 -0.38 1.57 -0.32 -0.16 0.03 0.14 -0.03 0.24 -0.04 -0.78 0.15 -0.02 0 -0.75 0.16 -0.48 0.11 -0.61 0.15 -0.38 0.1 -0.13 0.04 -0.76 0.22 -0.31 0.09 -0.17 0.05 0.01 -0zm-0.01 0c19.89,-6.43 41.85,2.77 49.04,20.53 7.19,17.77 -3.09,37.39 -22.98,43.82l-26.06 -64.35zm0.22 -0.04l29.64 63.1 0.04 -0.01 -0.34 0.13 -0.38 0.14 0.27 -0.1 -0.24 0.09 -0.38 0.14 -0.23 0.08 -0.06 0.02 -0.06 0.02 -0.23 0.08 -0.23 0.08 -0.06 0.02 -0.56 0.19 -0.22 0.07 0.43 -0.14 -0.22 0.07 -0.22 0.07 -0.06 0.02 -0.06 0.02 -0.22 0.07 -0.21 0.07 -0.21 0.07 0.4 -0.13 -0.21 0.07 -0.21 0.07 0.38 -0.12 -0.66 0.21 -0.21 0.06 0.67 -0.21 -0.21 0.07 -0.64 0.2 0.36 -0.11 -0.01 0.01 -26.04 -64.36 0.13 -0.04 0.5 -0.16 -0.49 0.16 -0.07 0.02 0.81 -0.26 -0.07 0.02 -0.53 0.17 0.52 -0.17 -0.08 0.03 -0.08 0.03 0.53 -0.17 -0.08 0.03 -0.09 0.03 -0.09 0.03 0.06 -0.02 0.06 -0.02 -0.09 0.03 -0.1 0.03 0.56 -0.18 -0.1 0.03 -0.44 0.15 0.06 -0.02 -0.11 0.04 -0.11 0.04 0.06 -0.02 0.06 -0.02 -0.12 0.04 -0.26 0.09 -0.12 0.04 0.38 -0.14 -0.26 0.1 -0.23 0.08 0.04 -0.01zm-0.04 0.01c19.49,-7.33 41.95,0.85 50.15,18.26 8.2,17.42 -0.95,37.48 -20.44,44.81l-29.71 -63.07zm-1.88 0.86l41.42 57.56 -0.03 0.02 -0.28 0.16 -0.2 0.11 -0.2 0.11 -0.2 0.11 -0.28 0.16 -0.2 0.11 -0.31 0.17 -0.5 0.27 -0.31 0.16 -0.02 0.01 -0.21 0.11 -0.62 0.32 -0.32 0.16 -0.12 0.06 -0.32 0.16 -0.32 0.16 -0.32 0.15 -0.43 0.2 -0.12 0.06 -0.43 0.2 -0.43 0.19 -0.22 0.1 -0.43 0.19 -0.31 0.13 -0.31 0.13 -0.42 0.18 -0.38 0.16 -0.3 0.12 -0.22 0.08 -0.3 0.12 -0.58 0.22 -0.24 0.09 -29.64 -63.1 0.04 -0.01 -0.3 0.12 -0.03 0.01 0.05 -0.02 -0.03 0.01 -0.12 0.05 -0.17 0.07 -0.05 0.02 -0.06 0.02 -0.18 0.08 0.03 -0.01 -0.18 0.08 -0.18 0.08 0.12 -0.06 -0.18 0.09 -0.08 0.04 -0.09 0.04 -0.08 0.04 0.12 -0.06 -0.08 0.04 -0.38 0.19 0.03 -0.01 0.22 -0.11 -0.07 0.04 -0.26 0.14 -0.07 0.04 0.04 -0.02 -0.04 0.02 0.04 -0.03 0.05 -0.03 0.05 -0.03 -0.03 0.02 -0.03 0.02zm0.03 -0.02c17.8,-10.21 41.49,-5.59 52.91,10.32 11.42,15.9 6.25,37.07 -11.55,47.28l-41.37 -57.59zm0.54 -0.18l53.47 49 0 0 -0.47 0.4 -0.35 0.29 -0.48 0.41 -0.48 0.39 -0.35 0.28 -0.49 0.39 -0.44 0.34 -0.44 0.34 -0.49 0.36 -0.43 0.32 -0.43 0.31 -0.35 0.25 -0.53 0.37 -0.41 0.28 -0.42 0.28 -0.35 0.24 -0.42 0.28 -0.48 0.31 -0.27 0.17 -0.42 0.27 -0.54 0.34 -0.33 0.2 -0.23 0.15 -0.39 0.24 -0.39 0.23 -0.35 0.21 -0.3 0.18 -0.39 0.23 -0.3 0.17 -0.26 0.15 -0.36 0.21 -0.29 0.17 -41.42 -57.56 0.19 -0.11 0.12 -0.07 0.2 -0.12 0.16 -0.09 0.06 -0.04 0.15 -0.09 0.09 -0.05 0.05 -0.03 0.04 -0.03 0.19 -0.12 0.09 -0.06 -0.12 0.08 -0.01 0.01 0.15 -0.09 -0.07 0.05 -0.02 0.01 0.05 -0.03 -0.02 0.01 -0.02 0.01 -0.14 0.09 0.05 -0.03 -0.04 0.03 -0.04 0.03 -0.1 0.08 -0.06 0.04 -0.05 0.04 -0.11 0.09 0.04 -0.03 -0.1 0.08 -0.11 0.09 0.03 -0.03 -0.08 0.07 0 0zm-0 0c15.14,-13.19 39.39,-12.92 54.15,0.61 14.76,13.53 14.46,35.19 -0.68,48.39l-53.47 -49zm-1.97 6.3l75.61 10.93 -9.95 18.01 1.66 -1.7 1.21 -1.41 0.98 -1.29 0.72 -1.05 0.43 -0.68 0.3 -0.51 0.22 -0.4 0.07 -0.13 -0.02 0.04 -0.09 0.19 -0.15 0.3 -0.19 0.4 -0.25 0.51 -0.31 0.61 -0.4 0.77 -0.41 0.76 -0.43 0.79 -0.51 0.9 -0.59 1 -0.64 1.03 -0.65 1 -0.74 1.09 -0.79 1.11 -0.85 1.13 -0.9 1.15 -0.95 1.15 -1.04 1.2 -1.06 1.16 -1.11 1.15 -1.2 1.19 -1.25 1.17 -1.27 1.14 -53.47 -49 -0.08 0.07 -0.12 0.11 -0.14 0.13 -0.11 0.11 -0.11 0.12 -0.16 0.18 -0.11 0.14 -0.12 0.15 -0.11 0.15 -0.1 0.15 -0.1 0.14 -0.04 0.07 -0.07 0.11 -0.06 0.1 -0.02 0.03 0.04 -0.07 0.04 -0.07 0.02 -0.04 0.09 -0.17 0.12 -0.25 0.17 -0.33 0.2 -0.4 0.24 -0.48 0.31 -0.61 0.39 -0.74 0.54 -0.97 0.61 -1.05 0.75 -1.19 1.04 -1.52 1.31 -1.72 1.55 -1.81 2.02 -2.06 -9.95 18.01zm9.95 -18.01c14.51,-13.75 38.75,-14.38 54.14,-1.41 15.39,12.97 16.09,34.62 1.58,48.37l-55.72 -46.96zm66.88 22.21l-1.22 6.73 -75.61 -10.93 1.22 -6.73 76.06 3.95 -0.45 6.98zm-75.61 -10.93c3.38,-18.65 23.04,-31.33 43.92,-28.31 20.88,3.02 35.07,20.59 31.69,39.24l-75.61 -10.93zm75.61 -5.19l0.45 9.14 -76.51 3.04 -0.45 -9.14 74.52 -12.51 1.99 9.48zm-76.51 3.04c-0.94,-18.88 15.43,-34.86 36.56,-35.7 21.13,-0.84 39.02,13.79 39.96,32.66l-76.51 3.04zm3.84 9.98l64.44 -36.98 6.07 18.83 -0.07 -2.43 -0.17 -1.64 -0.16 -1.04 -0.13 -0.68 -0.12 -0.57 -0.08 -0.35 -0.05 -0.18 -0.07 -0.25 -0.04 -0.15 0.01 0.03 -0.02 -0.07 0.01 0.02 0.05 0.16 0.05 0.14 0.04 0.12 0.02 0.07 0.04 0.13 0.04 0.13 0.07 0.21 0.06 0.18 0.07 0.2 0.09 0.25 0.06 0.18 0.04 0.1 0.05 0.14 0.08 0.22 0.05 0.14 0.04 0.1 0.07 0.19 0.05 0.13 0.03 0.09 0.03 0.09 -72.53 21.99 -0.07 -0.2 -0.09 -0.23 -0.08 -0.22 -0.07 -0.19 -0.11 -0.31 -0.11 -0.3 -0.08 -0.23 -0.12 -0.33 -0.14 -0.39 -0.12 -0.33 -0.09 -0.27 -0.12 -0.33 -0.12 -0.35 -0.11 -0.33 -0.14 -0.41 -0.14 -0.41 -0.16 -0.47 -0.13 -0.41 -0.12 -0.38 -0.11 -0.36 -0.15 -0.48 -0.17 -0.56 -0.13 -0.44 -0.17 -0.6 -0.18 -0.69 -0.15 -0.59 -0.17 -0.73 -0.19 -0.92 -0.19 -1 -0.2 -1.33 -0.19 -1.89 -0.08 -2.65 6.07 18.83zm-6.07 -18.83c0.21,-18.9 17.53,-34.06 38.68,-33.87 21.15,0.19 38.12,15.66 37.91,34.56l-76.59 -0.69zm67.69 -22.08l2.83 3.93 -64.44 36.98 -2.83 -3.93 64.19 -37.33 0.25 0.34zm-64.44 36.98c-11.43,-15.9 -6.27,-37.07 11.53,-47.28 17.79,-10.21 41.49,-5.6 52.92,10.3l-64.44 36.98zm14.89 5.8l15.7 -66.98 23.25 13.52 -0.99 -1.16 -0.99 -1.07 -0.86 -0.85 -0.63 -0.58 -0.72 -0.62 -0.4 -0.33 -0.21 -0.17 -0.17 -0.14 -0.07 -0.05 0.12 0.09 0.32 0.24 0.33 0.24 0.39 0.29 0.5 0.38 0.55 0.42 0.68 0.53 0.66 0.53 0.73 0.6 0.77 0.66 0.74 0.65 0.82 0.74 0.78 0.73 0.8 0.78 0.82 0.83 0.84 0.87 0.8 0.87 0.81 0.9 0.81 0.95 0.76 0.91 0.8 1 0.81 1.04 0.76 1.02 -63.94 37.67 -0.13 -0.17 -0.07 -0.09 -0.05 -0.07 -0.08 -0.09 -0.01 -0.01 0.01 0.01 0.02 0.02 0.07 0.08 0.08 0.08 0.08 0.08 0.07 0.07 0.13 0.12 0.08 0.07 0.13 0.1 0.1 0.08 0.06 0.04 0.09 0.07 -0.02 -0.01 -0.04 -0.03 -0.14 -0.1 -0.18 -0.13 -0.16 -0.12 -0.35 -0.25 -0.51 -0.38 -0.6 -0.46 -0.61 -0.48 -0.79 -0.64 -1.08 -0.93 -0.97 -0.89 -1.18 -1.16 -1.29 -1.39 -1.26 -1.49 23.25 13.52zm-23.25 -13.52c-12.34,-15.34 -8.43,-36.73 8.75,-47.75 17.17,-11.03 41.1,-7.53 53.45,7.82l-62.19 39.94zm9.53 8.68l26.93 -64.07 -0.02 -0.01 0.9 0.31 0.86 0.31 0.8 0.3 0.67 0.26 0.59 0.24 0.7 0.29 0.55 0.24 0.5 0.21 0.44 0.2 0.48 0.21 0.43 0.19 0.38 0.17 0.33 0.15 0.37 0.17 0.41 0.19 0.15 0.07 0.31 0.14 0.22 0.1 0.16 0.07 0.18 0.08 0.02 0.01 0.11 0.05 0.01 0.01 -0.09 -0.04 -0.13 -0.05 -0.31 -0.12 -0.42 -0.16 -0.63 -0.23 -0.73 -0.25 -1.07 -0.33 -1.61 -0.43 -2.05 -0.44 -15.7 66.98 -2.33 -0.5 -1.91 -0.51 -1.41 -0.43 -1.1 -0.37 -1.02 -0.37 -0.84 -0.32 -0.75 -0.3 -0.59 -0.24 -0.56 -0.24 -0.48 -0.21 -0.41 -0.18 -0.5 -0.22 -0.36 -0.16 -0.4 -0.18 -0.34 -0.16 -0.26 -0.12 -0.43 -0.2 -0.17 -0.08 -0.21 -0.1 -0.25 -0.12 -0.21 -0.09 -0.16 -0.07 -0.11 -0.05 -0.14 -0.06 -0.08 -0.04 -0.02 -0.01 0.14 0.06 0.04 0.02 0.13 0.05 0.27 0.1 0.35 0.13 0.41 0.14 -0.02 -0.01zm0.02 0.01c-19.8,-6.63 -29.84,-26.35 -22.42,-44.05 7.42,-17.69 29.49,-26.66 49.3,-20.03l-26.88 64.08zm4.37 0.46l0.04 -68.43 6.27 0.46 0.21 0.03 0.21 0.03 0.09 0.01 0.27 0.04 0.29 0.04 0.18 0.03 0.24 0.03 0.36 0.05 0.39 0.05 0.33 0.05 0.33 0.05 0.47 0.07 0.46 0.07 0.31 0.05 0.44 0.07 0.69 0.11 0.52 0.09 0.55 0.09 0.54 0.1 0.65 0.12 0.65 0.13 0.62 0.13 0.74 0.16 0.7 0.16 0.82 0.2 0.6 0.15 0.76 0.2 0.83 0.23 0.63 0.18 0.84 0.25 0.75 0.24 0.75 0.24 -26.93 64.07 0.17 0.06 0.18 0.06 0.27 0.08 0.07 0.02 0.28 0.08 0.22 0.06 0.05 0.01 0.27 0.07 0.16 0.04 0.2 0.04 0.08 0.02 0.11 0.02 0.11 0.02 0.01 0 0.01 0 -0.01 -0 0.16 0.03 -0.1 -0.02 -0.23 -0.04 -0.09 -0.01 -0.08 -0.01 -0.23 -0.03 -0.23 -0.03 -0.19 -0.03 -0.23 -0.03 -0.35 -0.05 -0.42 -0.06 -0.33 -0.05 -0.34 -0.05 -0.54 -0.08 -0.43 -0.06 -0.44 -0.06 6.27 0.46zm-6.27 -0.46c-20.86,-3.1 -34.96,-20.74 -31.48,-39.38 3.48,-18.64 23.21,-31.23 44.07,-28.13l-12.59 67.5zm-122.96 -68.03l129.28 0.07 -0.04 68.43 -129.28 -0.07 -8.5 -0.86 8.55 -67.57zm-0.04 68.43c-21.15,-0.01 -38.29,-15.34 -38.27,-34.24 0.01,-18.9 17.17,-34.21 38.32,-34.2l-0.04 68.43zm-20.94 -5.51l39.39 -58.69 17.13 19.96 0.18 0.58 0.19 0.65 0.16 0.58 0.12 0.46 0.14 0.58 0.06 0.28 0.14 0.63 0.06 0.3 -0.35 -1.55 -0.22 -0.82 -0.77 -2.38 -4.56 -8.34 -8.19 -7.88 -13.29 -6.01 -15.96 -0.89 -5.7 1.16 -2.51 0.78 -0.3 0.1 1.94 -0.64 0.8 -0.23 0.83 -0.23 2.26 -0.53 2.52 -0.44 1.9 -0.23 2.12 -0.16 1.74 -0.05 1.81 0.02 1.83 0.09 1.5 0.13 1.85 0.23 1.46 0.24 1.19 0.23 -17.05 66.72 0.92 0.18 1.21 0.2 1.63 0.2 1.29 0.11 1.65 0.08 1.65 0.02 1.6 -0.05 2 -0.15 1.79 -0.22 2.42 -0.42 2.18 -0.5 0.76 -0.21 0.74 -0.22 1.89 -0.62 -0.34 0.12 -2.54 0.79 -5.73 1.17 -15.98 -0.89 -13.31 -6.02 -8.2 -7.89 -4.57 -8.36 -0.78 -2.41 -0.23 -0.87 -0.36 -1.61 0.05 0.22 0.11 0.54 0.04 0.17 0.11 0.46 0.08 0.32 0.11 0.42 0.14 0.47 0.12 0.38 17.13 19.96zm-17.13 -19.96c-5.8,-18.17 5.98,-37.11 26.32,-42.29 20.34,-5.18 41.53,5.35 47.33,23.52l-73.65 18.77zm5.44 10.5l61.35 -40.97 0.01 0.01 0.28 0.34 0.38 0.47 0.27 0.34 0.22 0.29 0.48 0.65 0.41 0.57 0.84 1.26 0.83 1.38 0.33 0.59 0.55 1.05 0.93 2.03 1.49 4.49 0.32 13.48 -9.14 16.78 -47.26 7.06 -9.86 -7.06 -8.15 -13.03 -0.67 -17.23 2.41 -6.5 10.35 -12.25 14.31 -6.75 7.04 -1.14 8.3 0.17 4.46 0.77 1.88 0.47 2.45 0.76 2.12 0.79 1.15 0.49 0.58 0.26 1.09 0.52 0.8 0.41 0.53 0.28 -39.39 58.69 0.39 0.2 0.68 0.34 0.98 0.47 0.49 0.22 1.08 0.45 2.05 0.77 2.39 0.74 1.84 0.46 4.43 0.76 8.27 0.17 7.03 -1.14 14.3 -6.74 10.34 -12.25 2.41 -6.49 -0.67 -17.22 -8.14 -13.03 -9.85 -7.06 -47.26 7.06 -9.14 16.78 0.32 13.47 1.48 4.47 0.92 2.01 0.53 1.02 0.31 0.55 0.8 1.33 0.8 1.2 0.35 0.5 0.42 0.56 0.15 0.19 0.18 0.22 0.27 0.34 0.16 0.19 0.01 0.01zm-0.01 -0.01c-12.66,-15.14 -9.18,-36.58 7.76,-47.89 16.94,-11.31 40.94,-8.2 53.6,6.94l-61.36 40.95zm24.91 -68.65l-0.01 68.43 37.86 -39.4 -0.61 -2.78 -0.28 -0.94 -0.13 -0.4 0 0.01 0.02 0.07 0.07 0.2 0.11 0.31 0.11 0.3 0.14 0.36 0.15 0.38 0.18 0.48 0.19 0.49 0.18 0.46 0.2 0.52 0.2 0.51 0.19 0.48 0.21 0.53 0.21 0.53 0.18 0.43 0.19 0.45 0.2 0.48 0.14 0.34 0.16 0.37 0.14 0.32 0.07 0.17 0.05 0.1 0.02 0.03 -0.09 -0.18 -0.25 -0.48 -0.4 -0.7 -0.91 -1.44 -2.05 -2.73 -61.35 40.97 -2.28 -3.04 -1.17 -1.87 -0.7 -1.23 -0.58 -1.11 -0.45 -0.9 -0.37 -0.78 -0.36 -0.79 -0.35 -0.78 -0.3 -0.69 -0.3 -0.69 -0.33 -0.77 -0.28 -0.67 -0.3 -0.72 -0.31 -0.76 -0.27 -0.67 -0.27 -0.68 -0.29 -0.72 -0.27 -0.69 -0.26 -0.66 -0.27 -0.69 -0.24 -0.63 -0.23 -0.59 -0.24 -0.64 -0.22 -0.6 -0.22 -0.59 -0.19 -0.52 -0.19 -0.54 -0.2 -0.59 -0.19 -0.55 -0.27 -0.84 -0.37 -1.28 -0.66 -2.99 37.86 -39.4zm-37.86 39.4c-3.2,-18.68 11.14,-36.14 32.05,-39.01 20.9,-2.86 40.45,9.96 43.66,28.64l-75.71 10.37zm184.18 29.05l-146.33 -0.02 0.01 -68.43 146.33 0.02 0.14 68.43 -0.16 0zm0.01 -68.43c21.15,0 38.29,15.32 38.29,34.22 -0,18.9 -17.15,34.21 -38.3,34.21l0.01 -68.43zm-19.35 14.74l73.19 20.16 -0.06 0.17 -0.53 1.46 -0.58 1.49 -0.66 1.54 -0.75 1.63 -0.88 1.74 -0.96 1.71 -1.13 1.82 -1.31 1.9 -1.45 1.89 -1.66 1.94 -1.82 1.89 -2.06 1.9 -2.24 1.81 -2.35 1.68 -2.48 1.54 -2.51 1.36 -2.56 1.2 -2.51 1.01 -2.43 0.84 -2.37 0.7 -2.27 0.57 -2.13 0.44 -2.02 0.35 -1.91 0.27 -1.77 0.2 -1.68 0.15 -1.61 0.11 -1.49 0.08 -1.48 0.06 -1.39 0.03 -1.32 0.02 -1.32 0.01 -0.3 -68.43 0.64 -0.01 0.57 -0.01 0.42 -0.01 0.25 -0.01 0.17 -0.01 -0.02 0 -0.17 0.02 -0.32 0.04 -0.52 0.07 -0.69 0.12 -0.86 0.18 -1.06 0.27 -1.22 0.36 -1.33 0.46 -1.46 0.59 -1.56 0.73 -1.55 0.84 -1.56 0.97 -1.48 1.06 -1.4 1.14 -1.27 1.17 -1.06 1.1 -0.93 1.09 -0.75 0.97 -0.63 0.93 -0.48 0.77 -0.33 0.6 -0.28 0.55 -0.17 0.36 -0.08 0.2 -0.03 0.07 0.01 -0.04 -0.06 0.17zm0.06 -0.17c6.34,-18.03 27.83,-28.05 48.01,-22.39 20.18,5.66 31.4,24.87 25.06,42.9l-73.07 -20.5zm87.7 -21.89l-14.57 42.22 -73.19 -20.16 14.57 -42.22 73.44 19.42 -0.25 0.74zm-73.19 -20.16c6.23,-18.06 27.66,-28.18 47.88,-22.62 20.21,5.57 31.54,24.72 25.32,42.78l-73.19 -20.16zm0.01 -0.05l73.37 19.62 0.02 -0.04 -0 0.01 -0 0.01 -0 0.01 -0 0.01 -0 0.01 -0 0.01 -0 0.01 -0 0.01 -0 0.01 -0 0.01 -0 0.01 -0 0.01 0.67 -2.3 -0 0.01 -0.96 3.12 -0 0.01 0.28 -0.8 -0 0.01 -0 0.01 -0 0.01 -0 0.01 -0 0.01 -0 0.01 -0 0.01 -0 0.01 -0 0.01 0.67 -2.3 -0 0.01 -0.68 2.32 -0 0.01 -0 0.01 0.14 -0.42 -73.69 -18.67 0.14 -0.44 0 -0.01 0 -0.01 -0.67 2.3 0 -0.01 0.68 -2.32 0 -0.01 0 -0.01 0 -0.01 0 -0.01 0 -0.01 0 -0.01 0 -0.01 0 -0.01 0 -0.01 0.28 -0.82 0 -0.01 -0.95 3.1 0 -0.01 0.68 -2.32 0 -0.01 0 -0.01 0 -0.01 0 -0.01 0 -0.01 0 -0.01 0 -0.01 0 -0.01 0 -0.01 0 -0.01 0 -0.01 0 -0.01 0.02 -0.04zm-0.02 0.04c6.04,-18.11 27.36,-28.42 47.63,-23.03 20.27,5.39 31.81,24.45 25.77,42.56l-73.4 -19.53zm75.31 13.84l-1.92 5.74 -73.37 -19.62 1.92 -5.74 0.17 -0.48 73.21 20.1zm-73.37 -19.62c6.06,-18.1 27.41,-28.39 47.67,-22.97 20.26,5.42 31.77,24.49 25.71,42.59l-73.37 -19.62zm2.5 -6.42l74.9 14.32 -7.78 14.48 3.25 -4.17 1.29 -2.13 0.64 -1.24 0.31 -0.64 0.23 -0.53 0.12 -0.28 0.03 -0.07 0.04 -0.09 -0.04 0.1 -0.04 0.1 -0.07 0.18 -0.08 0.21 -0.07 0.21 -0.09 0.27 -0.1 0.28 -0.1 0.29 -0.09 0.28 -0.11 0.34 -0.11 0.33 -0.1 0.31 -0.11 0.34 -0.13 0.4 -0.11 0.32 -0.09 0.28 -0.09 0.26 -0.13 0.39 -0.12 0.36 -0.08 0.23 -0.1 0.3 -0.1 0.29 -0.13 0.37 -0.15 0.42 -73.04 -20.59 -0.04 0.1 -0 0.01 0.05 -0.14 0.06 -0.18 0.1 -0.29 0.07 -0.21 0.07 -0.21 0.12 -0.37 0.12 -0.38 0.12 -0.37 0.1 -0.32 0.13 -0.39 0.14 -0.43 0.14 -0.42 0.14 -0.42 0.16 -0.48 0.16 -0.46 0.16 -0.46 0.16 -0.45 0.17 -0.49 0.17 -0.47 0.17 -0.47 0.19 -0.53 0.19 -0.5 0.25 -0.64 0.23 -0.58 0.31 -0.74 0.41 -0.94 0.47 -0.99 0.79 -1.52 1.43 -2.36 3.37 -4.32 -7.78 14.48zm7.78 -14.48c13.37,-14.64 37.5,-16.82 53.88,-4.87 16.39,11.95 18.83,33.5 5.45,48.14l-59.34 -43.27zm-5.07 13.29l76.55 -2.38 -9.81 24.08 2.57 -2.85 1.41 -1.9 0.87 -1.35 0.61 -1.06 0.43 -0.81 0.2 -0.42 0.13 -0.29 0.12 -0.28 0.04 -0.09 -0.01 0.04 -0.01 0.02 -0 0.01 -0.04 0.1 -0.07 0.2 -0.06 0.17 -0.06 0.18 -0.1 0.29 -0.07 0.21 -0.07 0.2 -0.07 0.23 -0.08 0.27 -0.07 0.23 -0.06 0.2 -0.07 0.24 -0.05 0.16 -0.03 0.11 -0.05 0.16 -0.05 0.17 -0.02 0.07 0.02 -0.06 0.02 -0.07 0.07 -0.28 -74.9 -14.32 0.14 -0.56 0.1 -0.41 0.12 -0.46 0.1 -0.38 0.1 -0.34 0.11 -0.39 0.14 -0.49 0.14 -0.47 0.13 -0.43 0.15 -0.49 0.15 -0.49 0.15 -0.47 0.17 -0.53 0.18 -0.57 0.19 -0.57 0.16 -0.49 0.21 -0.6 0.21 -0.6 0.2 -0.57 0.24 -0.65 0.27 -0.72 0.27 -0.69 0.26 -0.65 0.31 -0.74 0.39 -0.89 0.4 -0.86 0.46 -0.95 0.68 -1.3 0.86 -1.49 1.11 -1.72 1.64 -2.22 2.79 -3.1 -9.81 24.08zm9.81 -24.08c14.15,-14.05 38.37,-15.18 54.08,-2.54 15.72,12.64 16.99,34.28 2.84,48.32l-56.93 -45.78zm-6 5.86l73.29 19.87 -3.5 7.21 0.59 -0.95 0.41 -0.7 0.31 -0.57 0.26 -0.52 0.16 -0.33 0.1 -0.22 0.1 -0.22 0.1 -0.24 0.07 -0.16 0.04 -0.09 0.02 -0.04 0.03 -0.07 0.03 -0.08 0 -0.01 0.03 -0.09 0.03 -0.09 0.01 -0.03 0.02 -0.06 0.02 -0.07 0.03 -0.11 0.03 -0.11 0.03 -0.12 0.05 -0.19 0.06 -0.3 0.06 -0.3 0.06 -0.33 0.08 -0.5 0.08 -0.56 0.08 -0.76 0.06 -0.88 0.04 -1.05 -0.02 -1.47 -76.55 2.38 -0.02 -1.8 0.05 -1.4 0.09 -1.26 0.12 -1.16 0.13 -0.99 0.15 -0.95 0.15 -0.79 0.16 -0.78 0.17 -0.79 0.16 -0.69 0.16 -0.63 0.16 -0.62 0.18 -0.64 0.17 -0.59 0.18 -0.59 0.17 -0.55 0.2 -0.61 0.21 -0.61 0.18 -0.52 0.21 -0.59 0.21 -0.57 0.2 -0.52 0.22 -0.56 0.25 -0.61 0.29 -0.67 0.29 -0.64 0.28 -0.61 0.34 -0.7 0.44 -0.86 0.48 -0.89 0.57 -0.99 0.75 -1.21 -3.5 7.21zm3.5 -7.21c10.6,-16.35 34.03,-21.93 52.33,-12.47 18.3,9.47 24.55,30.4 13.95,46.75l-66.28 -34.29zm75.86 9.21l-6.07 17.87 -73.29 -19.87 6.07 -17.87 2.2 -5.01 71.09 24.89zm-73.29 -19.87c6.14,-18.08 27.53,-28.29 47.77,-22.8 20.24,5.49 31.66,24.6 25.52,42.68l-73.29 -19.87zm0.99 20.16l72.5 -22.07 -7.59 33.73 -0.45 0.45 -0.07 0.06 0.31 -0.31 -0.45 0.44 -0.57 0.54 -0.15 0.13 -0.12 0.11 -0.14 0.13 0.59 -0.55 -0.1 0.1 -0.12 0.11 0.88 -0.85 0.9 -0.94 -0.01 0.01 0.92 -1.03 1.62 -2.04 0.35 -0.49 0.5 -0.73 0.44 -0.68 0.15 -0.24 0.44 -0.73 0.33 -0.58 -0.15 0.27 0.08 -0.14 0.37 -0.69 0.01 -0.02 -0.26 0.48 -0.09 0.16 0.04 -0.07 0.21 -0.4 -0.18 0.34 -0.12 0.23 -68.89 -29.9 -0.06 0.1 -0.12 0.22 0.27 -0.5 0.09 -0.16 -0.04 0.08 -0.22 0.4 0.05 -0.09 0.41 -0.75 0.11 -0.2 -0.12 0.22 0.35 -0.62 0.46 -0.76 0.17 -0.27 0.46 -0.71 0.52 -0.76 0.37 -0.51 1.64 -2.06 0.94 -1.06 0.01 -0.01 0.93 -0.96 0.91 -0.87 -0.1 0.09 -0.07 0.07 0.63 -0.58 -0.1 0.09 -0.08 0.07 -0.1 0.09 -0.52 0.49 -0.39 0.39 0.37 -0.37 0 0 -0.37 0.37 -7.59 33.73zm7.59 -33.73c14.03,-14.14 38.23,-15.45 54.06,-2.92 15.83,12.53 17.29,34.16 3.26,48.3l-57.32 -45.39zm64.75 11.22l0.17 0.43 -72.5 22.07 -0.17 -0.43 -1.87 -14.31 74.37 -7.76zm-72.5 22.07c-6.82,-17.89 3.88,-37.33 23.9,-43.42 20.02,-6.09 41.78,3.47 48.6,21.35l-72.5 22.07zm4.04 0.97l59.61 -42.97 -0.03 -0.03 0.91 1.04 0.88 1.07 0.91 1.17 0.84 1.16 0.8 1.19 0.72 1.14 0.71 1.22 0.72 1.33 0.6 1.21 0.56 1.24 0.55 1.33 0.46 1.23 0.42 1.22 0.39 1.28 0.34 1.26 0.28 1.18 0.25 1.22 0.2 1.18 0.15 1.02 0.13 1.1 0.1 1.09 0.07 1.08 0.05 0.98 0.02 0.9 0.01 0.97 -0.01 0.87 -0.03 0.79 -0.04 0.86 -0.05 0.77 -0.06 0.76 -0.07 0.75 -0.07 0.68 -76.24 -6.55 0 -0.02 -0.01 0.06 -0.01 0.08 -0.01 0.1 -0.01 0.19 -0.01 0.13 -0 0.23 0 0.32 0.01 0.26 0.02 0.36 0.03 0.46 0.05 0.48 0.06 0.49 0.06 0.42 0.1 0.59 0.13 0.63 0.14 0.6 0.18 0.69 0.22 0.71 0.22 0.66 0.25 0.67 0.32 0.77 0.31 0.69 0.33 0.67 0.43 0.79 0.4 0.68 0.38 0.61 0.44 0.66 0.46 0.64 0.5 0.65 0.46 0.55 0.46 0.52 -0.03 -0.03zm0.03 0.03c-13.3,-14.69 -10.75,-36.24 5.69,-48.12 16.44,-11.88 40.56,-9.61 53.86,5.09l-59.55 43.04zm-0.47 -0.45l58.72 -43.94 0.06 0.07 -0.25 -0.26 -0.23 -0.24 0.71 0.75 -0.25 -0.26 -1.07 -1.08 0.41 0.4 0.03 0.03 -0.43 -0.42 0.47 0.47 0.02 0.02 -0.48 -0.47 -0.51 -0.49 0.54 0.51 0.02 0.02 0.02 0.02 0.02 0.02 0.02 0.02 0.55 0.53 -0.46 -0.45 -0.45 -0.43 0.99 0.95 0.02 0.03 0.03 0.03 0.78 0.81 -0.01 -0.02 -0.35 -0.36 0.32 0.33 0.28 0.3 -0.02 -0.02 0.23 0.25 0.22 0.24 0.1 0.11 -59.61 42.97 0.02 0.02 0.14 0.16 0.15 0.16 -0.09 -0.1 0.22 0.23 0.26 0.27 -0.41 -0.42 -0.07 -0.07 0.72 0.75 -0.03 -0.03 -0.02 -0.03 0.94 0.9 -0.5 -0.47 -0.51 -0.5 0.5 0.49 -0.02 -0.02 -0.02 -0.02 -0.02 -0.02 -0.02 -0.02 0.49 0.47 -0.56 -0.53 -0.53 -0.51 -0.02 -0.02 0.43 0.42 -0.48 -0.47 -0.03 -0.03 0.35 0.35 -1.12 -1.14 -0.3 -0.33 0.64 0.68 -0.31 -0.32 -0.32 -0.34 0.06 0.07zm-0.06 -0.07c-13.54,-14.52 -11.34,-36.09 4.91,-48.19 16.25,-12.1 40.4,-10.13 53.94,4.38l-58.84 43.81zm20.57 10.52l15.91 -66.94 24.58 15.42 0.09 0.13 0.06 0.09 0.06 0.09 0.14 0.2 -0.08 -0.11 -0.03 -0.05 0.07 0.1 -0.16 -0.22 0.23 0.33 -0.63 -0.88 -0.65 -0.85 0.53 0.69 -1.26 -1.58 -0.91 -1.03 -1.06 -1.11 -1.37 -1.3 0.15 0.13 -2.32 -1.94 1.54 1.25 0.3 0.26 -1.23 -1.03 1.18 0.99 0.87 0.78 -0.26 -0.24 0.21 0.19 0.83 0.78 0.35 0.34 0.27 0.27 0.02 0.02 0.21 0.21 0.48 0.51 0.1 0.11 -58.72 43.94 -0.04 -0.04 0.36 0.37 0.09 0.1 -0.08 -0.08 0.18 0.19 0.27 0.27 0.76 0.72 0.16 0.14 -0.31 -0.29 0.83 0.74 1.14 0.96 -1.26 -1.06 0.27 0.23 1.51 1.23 -2.34 -1.95 0.13 0.11 -1.39 -1.32 -1.08 -1.13 -0.93 -1.06 -1.27 -1.6 0.51 0.66 -0.68 -0.88 -0.66 -0.93 0.19 0.28 -0.2 -0.28 0.02 0.03 -0.09 -0.13 -0.14 -0.21 0.06 0.09 -0.03 -0.04 -0.04 -0.06 -0.02 -0.03 24.58 15.42zm-24.58 -15.42c-11.15,-16.05 -5.63,-37.15 12.34,-47.12 17.97,-9.97 41.58,-5.03 52.73,11.02l-65.07 36.09zm14.56 12.31l32.94 -61.78 0.02 0.01 0.39 0.17 0.38 0.17 0.16 0.07 0.33 0.15 0.59 0.27 0.14 0.07 0.18 0.08 0.98 0.48 0.4 0.2 0.12 0.07 0.15 0.08 0.72 0.39 0.27 0.15 -1.09 -0.59 -0.65 -0.33 -0.96 -0.46 -2.07 -0.89 -2.99 -1.06 -0.66 -0.2 -1.14 -0.32 -3.17 -0.7 -1.12 -0.19 0.33 0.05 0.06 0.01 0.06 0.01 -0.2 -0.03 0.45 0.07 0.25 0.04 0.12 0.02 0.56 0.1 -0 0 0.38 0.07 -15.91 66.94 0.19 0.04 -0.17 -0.03 0.41 0.07 -0.01 0 0.14 0.02 0.35 0.06 -0.28 -0.05 -0.01 0 0.01 0 0.28 0.04 -1.16 -0.19 -3.2 -0.71 -1.17 -0.33 -0.68 -0.21 -3.02 -1.07 -2.09 -0.9 -0.99 -0.48 -0.68 -0.35 -1.12 -0.61 0.23 0.13 0.67 0.36 0.09 0.05 0.05 0.03 0.31 0.16 0.87 0.43 0.06 0.03 0.01 0 0.43 0.2 0.16 0.07 -0.04 -0.02 0.16 0.07 0.14 0.06 0.02 0.01zm-0.02 -0.01c-19.09,-8.14 -27.18,-28.56 -18.07,-45.62 9.11,-17.05 31.97,-24.28 51.05,-16.15l-32.98 61.76zm12.21 2.04l0.17 -68.43 5.18 0.32 0.6 0.08 0.6 0.08 0.59 0.09 0.65 0.1 0.87 0.15 0.64 0.12 0.42 0.08 0.87 0.19 0.9 0.21 0.44 0.11 0.64 0.17 0.84 0.23 0.86 0.25 0.61 0.19 0.54 0.17 0.8 0.27 0.46 0.16 0.37 0.13 0.71 0.27 0.61 0.24 0.4 0.16 0.25 0.1 0.25 0.1 0.38 0.16 0.37 0.16 0.27 0.12 -0.03 -0.02 0.09 0.04 0.19 0.08 0.19 0.08 0.03 0.01 -0.03 -0.01 -32.94 61.78 -0.32 -0.14 -0.25 -0.11 -0.08 -0.04 -0.08 -0.03 -0.16 -0.07 -0.28 -0.12 0.03 0.01 0.14 0.06 0.15 0.06 0.02 0.01 0.03 0.01 0.18 0.07 0.38 0.15 0.48 0.18 0.14 0.05 0.23 0.08 0.57 0.2 0.31 0.1 0.38 0.12 0.62 0.18 0.6 0.16 0.39 0.1 0.18 0.04 0.63 0.15 0.6 0.13 0.14 0.03 0.34 0.06 0.56 0.1 0.33 0.05 0.26 0.04 0.25 0.04 0.24 0.03 5.18 0.32zm-5.18 -0.32c-20.95,-2.59 -35.58,-19.87 -32.67,-38.59 2.9,-18.72 22.25,-31.79 43.19,-29.19l-10.52 67.78zm-47.57 -68.21l52.91 0.1 -0.17 68.43 -52.91 -0.1 0.08 -68.43 0.09 0zm-0.17 68.43c-21.15,-0.04 -38.26,-15.4 -38.21,-34.29 0.05,-18.9 17.23,-34.18 38.38,-34.14l-0.17 68.43zm-60.62 -0.01l0.47 -68.43 0 0 1.86 0.01 1.85 0.01 1.87 0.01 1.87 0.01 1.87 0.01 1.87 0.01 1.85 0 1.89 0 1.87 0 1.85 0 1.89 0 1.89 0 1.87 0 1.87 -0 1.89 -0 1.87 -0 1.89 -0 1.89 -0 1.87 -0 1.89 -0 1.89 -0 1.89 -0 1.89 -0 1.89 -0 1.91 -0 1.89 -0 1.89 -0 1.91 -0 1.89 -0 1.89 -0 1.91 -0 1.9 0 0.01 68.43 -1.87 0 -1.87 0 -1.89 0 -1.89 0 -1.87 0 -1.89 0 -1.89 0 -1.87 0 -1.89 0 -1.89 0 -1.89 0 -1.89 0 -1.89 0 -1.91 0 -1.89 0 -1.89 0 -1.91 0 -1.89 0 -1.91 0 -1.91 0 -1.89 0 -1.89 0 -1.93 0 -1.91 -0 -1.89 -0 -1.93 -0 -1.91 -0.01 -1.91 -0.01 -1.91 -0.01 -1.91 -0.01 -1.93 -0.01 -1.91 -0.01 0 0zm0 0c-21.15,-0.12 -38.19,-15.53 -38.06,-34.43 0.13,-18.9 17.38,-34.12 38.53,-34l-0.47 68.43zm-154.78 -17.89l67.28 -32.7 -33.29 -17.86 3.73 0.03 3.74 0.02 3.74 0.02 3.74 0.02 3.75 0.01 3.75 0.01 3.75 0.01 3.75 0 3.76 -0 3.78 -0 3.77 -0.01 3.77 -0.01 3.78 -0.01 3.78 -0.01 3.78 -0.01 3.79 -0.01 3.8 -0.01 3.79 -0.01 3.8 -0.01 3.8 -0.01 3.79 -0.01 3.81 -0.01 3.81 -0.01 3.81 -0.01 3.82 -0 3.82 -0 3.82 0 3.83 0 3.83 0.01 3.83 0.01 3.84 0.02 3.84 0.02 -0.47 68.43 -3.75 -0.02 -3.74 -0.02 -3.75 -0.01 -3.75 -0.01 -3.75 -0 -3.76 -0 -3.76 0 -3.76 0 -3.78 0.01 -3.78 0.01 -3.77 0.01 -3.79 0.01 -3.79 0.01 -3.78 0.01 -3.79 0.01 -3.8 0.01 -3.79 0.01 -3.81 0.01 -3.8 0.01 -3.8 0.01 -3.82 0.01 -3.81 0.01 -3.81 0 -3.82 0 -3.83 -0 -3.83 -0.01 -3.83 -0.01 -3.83 -0.01 -3.84 -0.02 -3.84 -0.02 -3.84 -0.02 -3.85 -0.03 -33.29 -17.86zm33.29 17.86c-21.15,-0.17 -38.13,-15.64 -37.94,-34.53 0.19,-18.9 17.5,-34.07 38.65,-33.9l-0.71 68.43zm-32.78 -26.02l52.7 -49.66 11.9 23.15 -0.41 -3.51 -0.35 -1.66 -0.21 -0.8 -0.11 -0.37 -0.06 -0.17 0.02 0.05 0.08 0.22 0.08 0.22 0.13 0.35 0.17 0.45 0.18 0.47 0.2 0.51 0.2 0.51 0.23 0.58 0.25 0.61 0.23 0.57 0.24 0.58 0.25 0.58 0.25 0.59 0.26 0.6 0.24 0.56 0.22 0.49 0.23 0.52 0.2 0.46 0.16 0.34 0.17 0.36 0.15 0.31 0.08 0.16 0.01 0.02 -0.1 -0.19 -0.26 -0.48 -0.57 -0.98 -67.28 32.7 -0.81 -1.4 -0.54 -1.01 -0.43 -0.84 -0.36 -0.74 -0.33 -0.7 -0.3 -0.64 -0.31 -0.67 -0.34 -0.76 -0.32 -0.71 -0.31 -0.7 -0.34 -0.78 -0.33 -0.76 -0.32 -0.74 -0.33 -0.78 -0.34 -0.8 -0.34 -0.81 -0.34 -0.82 -0.32 -0.78 -0.32 -0.79 -0.33 -0.82 -0.31 -0.8 -0.31 -0.79 -0.29 -0.76 -0.3 -0.8 -0.31 -0.86 -0.28 -0.79 -0.3 -0.87 -0.32 -1.01 -0.33 -1.1 -0.38 -1.43 -0.46 -2.17 -0.45 -3.89 11.9 23.15zm-11.9 -23.15c-1.03,-18.87 15.25,-34.93 36.37,-35.85 21.12,-0.93 39.09,13.62 40.12,32.5l-76.5 3.35zm-1.98 0.99l71.89 -23.62 -0.01 -0.02 0.22 0.56 0.13 0.33 0.18 0.46 0.16 0.43 0.11 0.29 0.15 0.4 0.1 0.28 0.1 0.26 0.14 0.36 0.1 0.27 0.09 0.23 0.11 0.29 0.09 0.23 0.05 0.12 0.07 0.18 0.07 0.17 0.05 0.12 0.05 0.12 0.01 0.02 0 0.01 -0.03 -0.07 -0.05 -0.1 -0.1 -0.2 -0.17 -0.32 -0.17 -0.31 -0.34 -0.57 -0.4 -0.64 -0.49 -0.73 -0.83 -1.13 -1.11 -1.35 -1.48 -1.59 -2.14 -1.97 -52.7 49.66 -2.43 -2.24 -1.76 -1.9 -1.4 -1.71 -1.13 -1.53 -0.79 -1.17 -0.7 -1.12 -0.63 -1.08 -0.47 -0.85 -0.47 -0.88 -0.4 -0.8 -0.35 -0.72 -0.33 -0.71 -0.29 -0.65 -0.29 -0.65 -0.24 -0.56 -0.24 -0.57 -0.21 -0.52 -0.21 -0.52 -0.23 -0.57 -0.18 -0.46 -0.15 -0.4 -0.17 -0.45 -0.15 -0.4 -0.11 -0.3 -0.14 -0.37 -0.13 -0.34 -0.08 -0.2 -0.11 -0.28 -0.04 -0.12 -0.02 -0.05 -0.06 -0.15 0.05 0.11 -0.01 -0.02zm0.01 0.02c-7.31,-17.73 2.85,-37.4 22.69,-43.94 19.84,-6.53 41.86,2.54 49.18,20.28l-71.87 23.66zm25.02 12.84l13.23 -67.4 28 19.06 0.16 0.3 0.16 0.31 0.2 0.37 0.16 0.3 0.16 0.3 0.17 0.34 0.17 0.34 0.14 0.27 0.17 0.33 0.21 0.41 0.19 0.37 0.17 0.34 0.13 0.26 0.2 0.41 0.2 0.41 0.16 0.34 0.16 0.34 0.18 0.38 0.21 0.45 0.18 0.38 0.16 0.34 0.19 0.41 0.17 0.38 0.18 0.41 0.21 0.48 0.15 0.34 0.15 0.35 0.23 0.54 0.17 0.41 0.16 0.38 0.18 0.44 0.18 0.43 -71.89 23.62 -0.1 -0.25 -0.09 -0.22 -0.11 -0.26 -0.09 -0.22 -0.03 -0.08 -0.11 -0.26 -0.11 -0.26 -0.05 -0.1 -0.08 -0.17 -0.09 -0.19 -0.07 -0.15 -0.1 -0.21 -0.08 -0.17 -0.04 -0.09 -0.08 -0.16 -0.09 -0.19 -0.09 -0.19 -0.06 -0.11 -0.06 -0.11 -0.13 -0.26 -0.09 -0.19 -0.08 -0.15 -0.06 -0.11 -0.1 -0.19 -0.14 -0.27 -0.1 -0.2 -0.11 -0.2 -0.13 -0.24 -0.13 -0.25 -0.1 -0.18 -0.14 -0.26 -0.15 -0.28 28 19.06zm-28 -19.06c-9.05,-17.08 -0.89,-37.48 18.22,-45.57 19.11,-8.09 41.95,-0.8 51,16.28l-69.22 29.29zm8.55 10.71l48.32 -53.1 -0.03 -0.02 0.56 0.42 0.63 0.48 0.7 0.55 0.64 0.53 0.74 0.64 0.47 0.42 0.53 0.49 0.61 0.59 0.47 0.47 0.3 0.31 0.32 0.34 0.36 0.38 -0.16 -0.17 -0.22 -0.23 -0.27 -0.28 -0.99 -0.98 -1.14 -1.03 -0.84 -0.7 -1.17 -0.91 -2.03 -1.42 -2.04 -1.24 -2.31 -1.2 -1.85 -0.83 -1.29 -0.51 -2.16 -0.74 -1.67 -0.48 -0.91 -0.23 -0.75 -0.17 -0.39 -0.08 -0.66 -0.13 -0.92 -0.16 -0.19 -0.03 -13.23 67.4 -0.41 -0.06 -1.12 -0.2 -0.84 -0.17 -0.55 -0.12 -0.9 -0.21 -1.05 -0.27 -1.78 -0.52 -2.27 -0.78 -1.39 -0.56 -1.93 -0.87 -2.39 -1.25 -2.12 -1.29 -2.1 -1.47 -1.23 -0.96 -0.9 -0.76 -1.2 -1.09 -1.06 -1.04 -0.33 -0.34 -0.28 -0.3 -0.23 -0.25 0.28 0.3 0.24 0.25 0.21 0.21 0.37 0.37 0.5 0.48 0.41 0.37 0.33 0.3 0.59 0.51 0.47 0.39 0.51 0.4 0.42 0.32 0.34 0.25 -0.03 -0.02zm0.03 0.02c-16.42,-11.91 -18.93,-33.46 -5.61,-48.13 13.33,-14.67 37.45,-16.91 53.87,-5.01l-48.26 53.13zm12.58 5.32l19.7 -66.13 17.03 8.69 -0.27 -0.23 -0.24 -0.21 -0.54 -0.44 -0.3 -0.24 -0.02 -0.01 -0.66 -0.5 -0.38 -0.28 0.05 0.04 -0.66 -0.47 -0.07 -0.05 0.05 0.03 -0.73 -0.48 -0.36 -0.23 0.05 0.03 0.05 0.03 0.2 0.12 -0.2 -0.13 -0.35 -0.22 0.21 0.13 0.2 0.12 0.05 0.03 -0.04 -0.03 0.33 0.21 0.53 0.34 0.17 0.11 -0.05 -0.03 0.28 0.18 0.27 0.18 0.25 0.17 0.52 0.36 0.48 0.34 0.17 0.12 -48.32 53.1 0.03 0.02 0.35 0.25 0.39 0.27 0.13 0.09 0.14 0.1 0.16 0.1 -0.16 -0.1 0.06 0.04 0.42 0.27 0.22 0.14 -0.15 -0.09 -0.05 -0.03 0.1 0.06 0.11 0.07 -0.45 -0.28 -0.3 -0.19 0.1 0.06 -0.05 -0.03 -0.05 -0.03 -0.45 -0.29 -0.82 -0.55 -0.05 -0.03 -0.17 -0.11 -0.76 -0.54 -0.05 -0.04 -0.48 -0.35 -0.76 -0.58 -0.12 -0.09 -0.4 -0.32 -0.64 -0.53 -0.35 -0.3 -0.38 -0.33 17.03 8.69zm-17.03 -8.69c-15.07,-13.26 -15.25,-34.92 -0.41,-48.39 14.84,-13.46 39.09,-13.63 54.16,-0.37l-53.75 48.76zm3.98 8.81l0 -68.43 0 0 0.51 -0 0.57 -0 0.62 -0.01 0.63 -0.01 0.63 -0.01 0.69 -0.01 0.74 -0.01 0.79 -0.01 0.79 -0.01 0.79 -0.01 0.88 -0.01 0.89 -0.01 0.89 -0 0.94 0 0.98 0.01 0.98 0.01 1.03 0.02 1.08 0.03 1.08 0.04 1.13 0.05 1.13 0.06 1.18 0.07 1.19 0.09 1.25 0.1 1.34 0.13 1.3 0.15 1.36 0.17 1.41 0.21 1.41 0.23 1.48 0.27 1.49 0.3 1.55 0.35 -19.7 66.13 0.26 0.06 0.18 0.04 0.15 0.03 0.07 0.01 0.06 0.01 -0.01 -0 -0.09 -0.01 -0.05 -0.01 -0.17 -0.01 -0.24 -0.02 -0.25 -0.02 -0.31 -0.02 -0.32 -0.01 -0.37 -0.01 -0.38 -0.01 -0.44 -0.01 -0.49 -0.01 -0.49 -0 -0.54 0 -0.59 0 -0.59 0 -0.59 0.01 -0.69 0.01 -0.69 0.01 -0.69 0.01 -0.73 0.01 -0.78 0.01 -0.83 0.01 -0.83 0.01 -0.82 0.01 -0.87 0.01 -0.92 0 0 0zm0 0c-21.15,0 -38.3,-15.32 -38.3,-34.22 0,-18.9 17.15,-34.22 38.3,-34.22l0 68.43zm-5.5 -4.03l-36.92 -59.96 14.34 -4.04 1.18 -0.11 1.17 -0.09 1.06 -0.07 1.06 -0.06 1.1 -0.06 1.05 -0.04 1.05 -0.04 1.05 -0.03 0.96 -0.02 0.96 -0.02 1.01 -0.01 0.96 -0.01 0.92 -0 0.97 0 0.88 0 0.93 0 0.93 0.01 0.84 0.01 0.83 0.01 0.84 0.01 0.83 0.01 0.83 0.01 0.78 0.01 0.73 0.01 0.77 0.01 0.71 0.01 0.71 0.01 0.69 0.01 0.59 0.01 0.57 0 0.6 0 0.53 0 0 68.43 -0.84 -0 -0.8 -0 -0.86 -0.01 -0.87 -0.01 -0.78 -0.01 -0.79 -0.01 -0.8 -0.01 -0.76 -0.01 -0.81 -0.01 -0.77 -0.01 -0.73 -0.01 -0.73 -0.01 -0.74 -0.01 -0.74 -0.01 -0.74 -0.01 -0.65 -0.01 -0.65 -0 -0.7 -0 -0.6 0 -0.64 0 -0.59 0 -0.53 0.01 -0.57 0.01 -0.56 0.01 -0.44 0.01 -0.42 0.02 -0.4 0.02 -0.33 0.02 -0.35 0.02 -0.32 0.02 -0.18 0.01 -0.14 0.01 14.34 -4.04zm-14.34 4.04c-21.03,2.03 -39.92,-11.54 -42.2,-30.33 -2.28,-18.79 12.92,-35.67 33.95,-37.7l8.25 68.03zm12.9 -3.51l-44.25 -55.86 -1.36 0.9 0.47 -0.32 0.47 -0.32 0.52 -0.35 0.47 -0.31 0.53 -0.34 0.64 -0.4 0.59 -0.36 0.67 -0.4 0.73 -0.42 0.78 -0.43 0.9 -0.47 1.04 -0.51 0.95 -0.44 0.68 -0.3 0.97 -0.4 1.16 -0.45 0.57 -0.21 0.2 -0.07 0.69 -0.24 0.2 -0.07 -0.16 0.05 -0.04 0.02 -0.32 0.11 -0.31 0.11 -0.36 0.14 -0.31 0.12 -0.32 0.13 -0.4 0.17 -0.3 0.13 -0.27 0.12 -0.18 0.08 -0.14 0.07 36.92 59.96 -0.63 0.3 -0.63 0.3 -0.68 0.31 -0.68 0.3 -0.75 0.32 -0.65 0.26 -0.61 0.24 -0.64 0.24 -0.57 0.21 -0.56 0.2 -0.27 0.09 -0.37 0.13 -0.01 0 0.49 -0.17 0 -0 0.37 -0.14 0.96 -0.37 0.76 -0.31 0.46 -0.2 0.72 -0.33 0.8 -0.39 0.64 -0.33 0.51 -0.28 0.43 -0.25 0.35 -0.2 0.24 -0.15 0.26 -0.16 0.11 -0.07 0.02 -0.01 0.03 -0.02 -0.06 0.04 -0.1 0.07 -1.36 0.9zm1.36 -0.9c-16.71,11.59 -40.77,8.88 -53.74,-6.04 -12.97,-14.92 -9.94,-36.42 6.76,-48.01l46.97 54.05zm-46.84 -54.18l1.23 -0.78 44.25 55.86 -1.23 0.78 -58.35 -39.02 14.1 -16.84zm44.25 55.86c-17.26,10.92 -41.16,7.26 -53.38,-8.16 -12.22,-15.42 -8.13,-36.78 9.14,-47.7l44.25 55.86z"/>
   <path id="1" class="fil1" d="M307.2 237.55c-0.89,3.85 -4.26,6.6 -8.98,7.25 -10.3,1.76 -16.79,-10.68 -8.84,-17.12 8.6,-6.97 21.28,1.76 17.83,9.87zm-149.78 -11.99c13.56,-3.4 19.42,14.92 6.12,18.94 -13.7,4.13 -20.88,-15.24 -6.12,-18.94zm94.19 -77.12c0.54,1.63 0.04,3.98 -0.1,5.72 -0.2,1.89 -0.35,8.58 -1.3,10.09l0.14 1.93c-0.79,0.99 1.12,0.93 -5.16,0.85l-37.61 -0.08c-1.14,-0.18 -0.59,-0.08 -1.27,-0.31l-1.18 -14.58 -0.59 -8.99c-0.77,-0.87 -0.73,-3.91 -0.48,-5.4l48.75 0.1 -0.77 9.65c-0.35,1.22 -0.15,0.59 -0.42,1.01zm60.37 -2.21l-6.96 20.78 -42.58 -0.05 0.53 -2.96 -0.28 -0.72c0.1,-2.02 0.26,-4.02 0.44,-6.03l0.39 -3.86c0.27,-1.08 0.11,-0.52 0.4,-0.95 -0.39,-1.46 -0.24,-1.75 -0.06,-3.29l1.13 -11.47 49.75 0.02c0.06,1.81 -0.11,0.94 -0.49,1.27 0.02,2.06 -1.4,5.82 -2.28,7.27zm-120.4 -8.18c0.97,1.4 2.82,25.45 2.73,28.95l-40.74 0.02c-2.1,-0.88 -2.89,-5.17 -3.72,-7.08 -1.51,-3.44 -9.05,-20.78 -9.08,-22.23 10.89,-0.37 27.08,-0.07 38.85,-0.04 2.72,0.01 10.33,-0.62 11.97,0.37zm9.79 -28.8l0.27 -0.53c-1.1,-1.52 -1.41,-11.84 -1.58,-14.64l56.64 -0.03 -2.96 32.9 -50.86 -0.01 -1.51 -17.69zm125.1 -6.1l-0.17 1.33c-0.45,2.13 -2.43,8.87 -3.66,10.04 0.04,1.61 -1.23,5.47 -2.06,6.51 -0.32,1.7 -1.26,4.63 -2.05,5.93l-52.6 -0.1c-0.18,-1.79 0.02,-8.03 0.89,-9.06l0.15 -4.4 1.66 -19.33 61.29 0.08c-0.29,1.36 -2.31,7.82 -3.45,9zm-192.86 17.85c-0.89,-0.86 -6.25,-13.81 -6.3,-15.26 -1.25,-1.02 -4.63,-9.52 -5.15,-11.66 3.92,-0.06 62.76,-0.35 65.82,0.21 0.62,1.78 2.99,31.14 2.63,32.66l-54.68 -0 -2.32 -5.95zm-92.66 -83.06c-1.39,3.63 -4.44,6.31 -1.26,11.87 5.74,10.04 21.77,5.13 40.76,6.03l3.01 7.5c0.75,0.83 6.02,13.25 6.13,14.94 1.38,1.09 3.96,8.19 4.4,10.08 0.84,0.86 6.25,13.7 6.3,15.25 1.34,1.12 9.99,22.72 11.23,25.73 3.48,8.49 31.39,73.04 32.68,77.57 -1.09,1.2 -3.42,2.15 -4.87,3.07 -17.17,10.93 -20.5,38.64 2.9,51.92 8.07,4.58 15.92,5.16 26.68,3.64l8.31 -2.79c0.5,-0.66 -0.24,-0.4 1.46,-0.94l7.89 -6.06c0.49,-1.04 0.05,-0.55 0.96,-1.49 1.04,-1.08 0.31,-0.32 1.14,-0.82 0.24,-1.46 8.31,-11.05 5.84,-22.02l-1.29 -6.2 70.35 -0.12c-0.78,6.83 -2.48,9.33 -0.61,17.09 1.17,4.87 4.13,9.54 7.01,12.82 6.27,7.14 16.84,12 31.04,11.23l5.05 -0.61c1.43,-1.08 0.57,-0.47 2.31,-1.03 0.77,-0.25 1.4,-0.44 2.01,-0.67 1.5,-0.56 2.63,-1.13 3.98,-1.9 2.56,-1.47 4.56,-2.71 6.59,-4.48 6.55,-5.71 7.18,-10.92 9.1,-12.74l1.22 -6.73 -0.45 -9.14c-0.55,-1.44 -2.2,-5.94 -2.19,-6.99l-2.83 -3.93c-4.81,-6.52 -8.06,-7.44 -9.48,-9.2 -1.39,-0.26 -5.52,-2.52 -8.11,-3.38 -3.11,-1.04 -5.53,-1.19 -9.05,-1.71l-129.28 -0.07c-1.5,-0.31 -0.89,0.52 -1.27,-0.64 -0.8,-0.43 -0.02,0.24 -0.71,-0.59 -1.12,-1.34 -5.64,-13.17 -5.77,-13.96l146.33 0.02c10.72,-0.04 14.36,-1.19 17.25,-9.4l14.57 -42.22c0.03,-0.11 0.07,-0.22 0.1,-0.32l1.92 -5.74c0.52,-1.48 2.69,-8.45 3.27,-9.07 0.32,-1.32 2.39,-8.4 3.53,-9.53 -0.07,-1.69 1.34,-5.8 2.18,-7.09l6.07 -17.87c0.37,-0.68 0.19,-0.4 0.6,-0.81l-0.17 -0.43c0.41,-3.76 0.07,-6.73 -2.41,-9.48 -0.47,-0.52 -0.49,-0.48 -0.88,-0.9 -0.79,-0.84 -0.26,-0.13 -0.9,-1.05 -1.06,-0.2 -0.12,0.06 -1.51,-0.53 -1.55,-0.66 -2.23,-1.05 -4.2,-1.29l-52.91 -0.1c-20.14,0 -40.33,0.11 -60.46,-0.01 -40.44,-0.22 -80.95,0.31 -121.38,-0.03 -1.14,-1.87 -6.69,-14.95 -6.79,-16.64 -1.51,-1.28 -3.35,-6.89 -4.28,-9.14 -1.5,-3.64 -2.67,-5.94 -4.3,-9.03 -1.21,-0.19 -0.64,-0.29 -1.9,-1.2 -0.73,-0.53 -1.11,-0.66 -1.71,-1.18 -6.82,-1.62 -15.31,-1.03 -22.9,-1.03 -7.27,0 -16.99,-0.46 -23.97,0.21 -2.72,1.34 -1.91,0.37 -5.1,2.58l-1.23 0.78z"/>
  </g>
 </g>
</svg>
