<?xml version="1.0" encoding="UTF-8"?>
<!DOCTYPE svg PUBLIC "-//W3C//DTD SVG 1.1//EN" "http://www.w3.org/Graphics/SVG/1.1/DTD/svg11.dtd">
<!-- Creator: CorelDRAW 2019 (64-Bit) -->
<svg xmlns="http://www.w3.org/2000/svg" xml:space="preserve" width="0.876902in" height="0.735835in" version="1.1" style="shape-rendering:geometricPrecision; text-rendering:geometricPrecision; image-rendering:optimizeQuality; fill-rule:evenodd; clip-rule:evenodd"
viewBox="0 0 356.91 299.5"
 xmlns:xlink="http://www.w3.org/1999/xlink">
 <defs>
  <style type="text/css">
   <![CDATA[
    .fil1 {fill:#FEFEFE}
    .fil0 {fill:#088A4E;fill-rule:nonzero}
   ]]>
  </style>
 </defs>
 <g id="Layer_x0020_1">
  <metadata id="CorelCorpID_0Corel-Layer"/>
  <g>
   <path class="fil0" d="M133.53 169.81l11.1 -13.02 57.83 39.36 -11.1 13.02 -54.54 3.36 -3.29 -42.71zm57.83 39.36c-12.16,14.27 -34.97,17.02 -50.94,6.15 -15.97,-10.87 -19.05,-31.25 -6.89,-45.51l57.83 39.36zm-46.24 10.72l-8.3 -7.37 51.25 -46.07 8.3 7.37 9.32 31.96 -60.57 14.11zm51.25 -46.07c14.24,12.64 14.31,33.21 0.16,45.93 -14.15,12.72 -37.17,12.78 -51.4,0.14l51.25 -46.07zm2.82 46.55l-72.25 -7.15 0 -0 0.21 -1.57 0.26 -1.58 0.29 -1.54 0.33 -1.51 0.37 -1.5 0.4 -1.45 0.42 -1.39 0.44 -1.36 0.47 -1.33 0.47 -1.25 0.48 -1.18 0.5 -1.17 0.48 -1.05 0.46 -0.99 0.45 -0.92 0.42 -0.84 0.41 -0.79 0.35 -0.67 0.33 -0.62 0.3 -0.57 0.25 -0.47 0.2 -0.37 0.17 -0.32 0.12 -0.23 0.1 -0.21 0.1 -0.2 0.04 -0.09 0.03 -0.07 0.03 -0.06 -0.01 0.02 -0 0.02 0.01 -0.02 69.89 17.85 -0.44 1.33 -0.47 1.32 -0.49 1.28 -0.48 1.17 -0.49 1.12 -0.49 1.08 -0.45 0.94 -0.44 0.91 -0.44 0.87 -0.4 0.77 -0.37 0.7 -0.32 0.6 -0.27 0.5 -0.24 0.45 -0.21 0.41 -0.15 0.3 -0.13 0.26 -0.09 0.19 -0.07 0.14 -0.05 0.1 -0 0.01 -0.01 0.03 0 -0 0.02 -0.04 0.01 -0.04 0.01 -0.02 0.01 -0.03 0.01 -0.03 -0 0.01 -0.01 0.05 -0.01 0.07 -0.02 0.15 0 -0zm-0 0c-2.21,17.83 -20.18,30.67 -40.13,28.7 -19.95,-1.98 -34.33,-18.03 -32.12,-35.86l72.25 7.16zm-68.62 39.1l58.92 -38.04 -61.62 3.88 -0.7 1.27 -0.5 1.07 -0.33 0.82 -0.23 0.65 -0.15 0.49 -0.09 0.34 -0.04 0.18 -0.01 0.03 0.01 -0.04 0.02 -0.13 0.03 -0.24 0.04 -0.34 0.04 -0.41 0.04 -0.43 0.04 -0.51 0.04 -0.58 0.04 -0.6 0.03 -0.66 0.03 -0.72 0.03 -0.72 0.03 -0.75 0.03 -0.83 0.03 -0.86 0.03 -0.85 0.04 -0.9 0.04 -0.93 0.05 -0.98 0.06 -1.01 0.07 -1.01 0.09 -1.11 0.11 -1.15 0.14 -1.19 72.25 7.15 -0.01 0.14 -0.02 0.22 -0.03 0.31 -0.03 0.46 -0.03 0.49 -0.03 0.56 -0.03 0.64 -0.03 0.69 -0.03 0.77 -0.03 0.78 -0.03 0.82 -0.04 0.91 -0.04 0.94 -0.04 0.95 -0.05 1 -0.06 1.06 -0.07 1.06 -0.08 1.12 -0.1 1.18 -0.12 1.19 -0.14 1.23 -0.17 1.29 -0.21 1.37 -0.25 1.42 -0.29 1.45 -0.36 1.54 -0.44 1.66 -0.54 1.76 -0.65 1.86 -0.8 1.96 -1 2.14 -1.25 2.28 -61.62 3.88zm61.62 -3.88c-9.36,15.87 -31.34,21.95 -49.1,13.59 -17.76,-8.36 -24.57,-28.01 -15.21,-43.87l64.31 30.28zm-84.38 -41.14l68.35 -22.11 0 0 0.28 0.68 0.31 0.75 0.36 0.87 0.41 0.97 0.42 1 0.46 1.07 0.48 1.12 0.51 1.18 0.53 1.22 0.54 1.24 0.56 1.27 0.58 1.29 0.6 1.32 0.6 1.31 0.59 1.29 0.61 1.32 0.6 1.29 0.59 1.25 0.6 1.25 0.59 1.2 0.56 1.13 0.54 1.08 0.53 1.04 0.49 0.93 0.46 0.85 0.41 0.74 0.35 0.61 0.26 0.44 0.16 0.25 0.05 0.07 -0.2 -0.28 -0.5 -0.65 -58.92 38.04 -1.41 -1.84 -1.17 -1.66 -0.98 -1.49 -0.92 -1.47 -0.86 -1.45 -0.82 -1.42 -0.79 -1.43 -0.77 -1.44 -0.77 -1.47 -0.75 -1.45 -0.76 -1.5 -0.75 -1.52 -0.73 -1.51 -0.73 -1.51 -0.74 -1.55 -0.72 -1.54 -0.7 -1.51 -0.71 -1.54 -0.68 -1.51 -0.67 -1.48 -0.66 -1.47 -0.64 -1.44 -0.62 -1.42 -0.6 -1.37 -0.57 -1.32 -0.55 -1.29 -0.53 -1.24 -0.5 -1.18 -0.46 -1.09 -0.44 -1.04 -0.41 -1 -0.37 -0.91 0 0zm0 -0c-6.83,-16.86 2.93,-35.49 21.8,-41.59 18.88,-6.11 39.72,2.62 46.55,19.48l-68.35 22.11zm42.29 -31.41l-24.82 -61.05 48.67 32.74 -0.12 1.54 -0.11 1.53 -0.1 1.51 -0.09 1.49 -0.08 1.5 -0.07 1.47 -0.06 1.45 -0.05 1.43 -0.03 1.43 -0.02 1.4 -0.01 1.38 0 1.36 0.02 1.32 0.03 1.3 0.05 1.28 0.06 1.25 0.08 1.21 0.09 1.2 0.11 1.15 0.12 1.11 0.14 1.1 0.15 1.06 0.16 0.99 0.18 0.97 0.19 0.93 0.2 0.89 0.21 0.85 0.21 0.78 0.23 0.75 0.24 0.72 0.23 0.65 0.24 0.61 -68.35 22.11 -0.85 -2.18 -0.78 -2.19 -0.71 -2.15 -0.65 -2.16 -0.6 -2.17 -0.53 -2.14 -0.48 -2.13 -0.43 -2.12 -0.39 -2.11 -0.34 -2.12 -0.3 -2.08 -0.26 -2.05 -0.23 -2.08 -0.19 -2.05 -0.16 -2.03 -0.13 -2.03 -0.1 -2.01 -0.08 -2 -0.05 -1.99 -0.03 -1.97 -0.01 -1.95 0.01 -1.94 0.03 -1.93 0.05 -1.9 0.06 -1.9 0.08 -1.89 0.09 -1.86 0.1 -1.83 0.11 -1.83 0.12 -1.82 0.13 -1.79 0.13 -1.77 48.67 32.74zm-48.67 -32.74c1.37,-17.89 18.72,-31.4 38.75,-30.18 20.03,1.22 35.15,16.73 33.78,34.62l-72.53 -4.44zm10.29 46.32l-20.62 -62.28 0 0 2.28 -0.61 2.11 -0.58 1.94 -0.54 1.78 -0.52 1.62 -0.48 1.47 -0.45 1.33 -0.42 1.18 -0.39 1.05 -0.36 0.94 -0.33 0.85 -0.31 0.73 -0.27 0.64 -0.25 0.57 -0.23 0.5 -0.21 0.48 -0.21 0.44 -0.2 0.42 -0.19 0.46 -0.21 0.53 -0.25 0.53 -0.25 0.66 -0.32 0.76 -0.36 0.83 -0.39 0.95 -0.44 1.05 -0.47 1.2 -0.52 1.26 -0.52 1.3 -0.51 1.42 -0.53 1.47 -0.52 1.46 -0.49 24.82 61.05 -0.19 0.07 -0.09 0.03 -0.05 0.02 -0.1 0.04 -0.08 0.03 -0.1 0.04 -0.22 0.1 -0.31 0.14 -0.42 0.2 -0.5 0.24 -0.63 0.3 -0.79 0.38 -0.85 0.4 -0.99 0.46 -1.11 0.51 -1.18 0.52 -1.25 0.54 -1.35 0.56 -1.42 0.57 -1.5 0.58 -1.58 0.59 -1.63 0.59 -1.74 0.61 -1.83 0.62 -1.92 0.63 -2 0.63 -2.11 0.65 -2.23 0.66 -2.35 0.68 -2.47 0.7 -2.6 0.71 -2.75 0.74 0 0zm0 0c-19.25,5.09 -39.47,-4.73 -45.16,-21.93 -5.69,-17.2 5.3,-35.27 24.54,-40.35l20.62 62.28zm-31.91 16.47l-69.6 -18.75 0 -0 0.96 -2.87 0.91 -2.72 0.88 -2.61 0.88 -2.54 0.9 -2.51 0.96 -2.52 1.06 -2.58 1.2 -2.65 1.4 -2.79 1.68 -2.94 2.03 -3.06 2.42 -3.13 2.83 -3.09 3.19 -2.93 3.43 -2.65 3.57 -2.32 3.55 -1.95 3.44 -1.61 3.28 -1.33 3.1 -1.1 2.98 -0.95 2.89 -0.84 2.83 -0.76 2.83 -0.72 2.89 -0.71 2.98 -0.72 3.12 -0.75 3.28 -0.79 3.48 -0.85 3.71 -0.92 3.96 -1 4.24 -1.1 20.62 62.28 -4.74 1.24 -4.41 1.12 -4.09 1.01 -3.77 0.92 -3.44 0.83 -3.09 0.74 -2.76 0.67 -2.39 0.59 -2.03 0.52 -1.63 0.44 -1.19 0.34 -0.75 0.24 -0.3 0.11 0.17 -0.07 0.61 -0.29 0.97 -0.54 1.22 -0.79 1.29 -0.99 1.22 -1.12 1.01 -1.1 0.73 -0.94 0.44 -0.65 0.17 -0.29 -0.06 0.12 -0.24 0.54 -0.38 0.92 -0.5 1.31 -0.6 1.68 -0.7 2.02 -0.79 2.34 -0.89 2.65 -0.99 2.93 0 -0zm-0 0c-5.8,17.17 -26.08,26.89 -45.29,21.71 -19.22,-5.18 -30.1,-23.3 -24.3,-40.47l69.6 18.75zm-21.75 1.76l-43.38 52.12 -14.65 -26.6 0.06 -1.78 0.1 -1.76 0.13 -1.71 0.16 -1.67 0.2 -1.7 0.22 -1.64 0.24 -1.58 0.26 -1.62 0.28 -1.59 0.3 -1.56 0.32 -1.56 0.33 -1.53 0.34 -1.52 0.35 -1.5 0.36 -1.49 0.38 -1.49 0.38 -1.45 0.38 -1.42 0.39 -1.41 0.39 -1.4 0.4 -1.39 0.4 -1.36 0.4 -1.32 0.4 -1.3 0.4 -1.3 0.39 -1.24 0.38 -1.21 0.39 -1.2 0.38 -1.15 0.37 -1.11 0.36 -1.08 0.35 -1.04 69.6 18.75 -0.31 0.91 -0.31 0.94 -0.32 0.97 -0.32 0.98 -0.32 0.98 -0.33 1.02 -0.32 1.03 -0.31 1 -0.32 1.04 -0.32 1.05 -0.31 1.04 -0.3 1.04 -0.29 1.04 -0.29 1.05 -0.28 1.05 -0.27 1.03 -0.25 0.99 -0.24 1 -0.23 0.99 -0.21 0.96 -0.2 0.94 -0.18 0.9 -0.17 0.88 -0.15 0.83 -0.13 0.78 -0.12 0.78 -0.09 0.69 -0.07 0.61 -0.06 0.59 -0.04 0.5 -0.02 0.42 -0.01 0.34 -14.65 -26.6zm14.65 26.6c-0.33,17.93 -16.87,32.23 -36.94,31.93 -20.07,-0.3 -36.07,-15.08 -35.74,-33.01l72.69 1.07zm35.03 -14.13l-15.29 63.5 0 0 -1.61 -0.31 -1.74 -0.35 -1.83 -0.37 -1.95 -0.41 -2.05 -0.44 -2.14 -0.46 -2.24 -0.5 -2.3 -0.52 -2.39 -0.54 -2.45 -0.57 -2.49 -0.59 -2.56 -0.62 -2.58 -0.63 -2.6 -0.65 -2.63 -0.67 -2.63 -0.68 -2.66 -0.71 -2.63 -0.72 -2.62 -0.73 -2.62 -0.75 -2.58 -0.76 -2.57 -0.78 -2.52 -0.8 -2.5 -0.82 -2.5 -0.86 -2.45 -0.89 -2.45 -0.94 -2.46 -1.01 -2.51 -1.1 -2.65 -1.28 -2.79 -1.5 -3.09 -1.9 43.38 -52.12 -1.12 -0.7 -0.49 -0.27 -0.03 -0.02 0.4 0.18 0.72 0.29 0.99 0.38 1.22 0.44 1.39 0.48 1.58 0.52 1.73 0.55 1.84 0.56 1.96 0.58 2.02 0.58 2.11 0.59 2.17 0.59 2.19 0.58 2.24 0.58 2.25 0.57 2.26 0.56 2.26 0.55 2.21 0.53 2.21 0.52 2.16 0.5 2.1 0.48 2.05 0.46 1.95 0.43 1.86 0.4 1.76 0.38 1.63 0.34 1.52 0.31 1.34 0.27 1.18 0.23 0 0zm0 0c19.62,3.77 32.11,21.05 27.89,38.58 -4.22,17.53 -23.56,28.69 -43.18,24.92l15.29 -63.5zm140.06 0.2l15.38 63.48 -0 0 -5.49 1.03 -5.46 0.97 -5.43 0.9 -5.41 0.83 -5.38 0.77 -5.36 0.7 -5.36 0.64 -5.33 0.57 -5.32 0.5 -5.31 0.43 -5.28 0.36 -5.28 0.3 -5.28 0.23 -5.27 0.16 -5.27 0.09 -5.26 0.02 -5.26 -0.04 -5.27 -0.11 -5.27 -0.18 -5.27 -0.25 -5.27 -0.32 -5.28 -0.38 -5.29 -0.45 -5.3 -0.51 -5.32 -0.58 -5.33 -0.65 -5.34 -0.71 -5.36 -0.77 -5.38 -0.84 -5.41 -0.9 -5.43 -0.96 -5.46 -1.02 15.29 -63.5 4.68 0.88 4.62 0.82 4.57 0.76 4.52 0.7 4.48 0.64 4.44 0.59 4.39 0.53 4.36 0.47 4.33 0.42 4.3 0.37 4.28 0.31 4.26 0.25 4.24 0.2 4.22 0.15 4.21 0.09 4.22 0.04 4.22 -0.02 4.21 -0.07 4.22 -0.13 4.23 -0.18 4.25 -0.24 4.28 -0.29 4.29 -0.35 4.32 -0.41 4.35 -0.46 4.37 -0.52 4.42 -0.58 4.47 -0.64 4.51 -0.7 4.55 -0.75 4.6 -0.82 4.66 -0.88 -0 0zm0 0c19.62,-3.79 38.97,7.34 43.21,24.87 4.24,17.53 -8.22,34.82 -27.84,38.61l-15.37 -63.48zm36.45 13.81l72.69 -0.83 -15.24 26.86 -2.94 1.75 -2.76 1.45 -2.6 1.24 -2.54 1.11 -2.5 1.02 -2.49 0.95 -2.49 0.9 -2.51 0.86 -2.56 0.84 -2.55 0.8 -2.58 0.78 -2.62 0.77 -2.63 0.75 -2.65 0.73 -2.64 0.71 -2.66 0.7 -2.67 0.68 -2.64 0.66 -2.61 0.64 -2.6 0.63 -2.57 0.61 -2.54 0.59 -2.47 0.56 -2.41 0.54 -2.36 0.52 -2.28 0.49 -2.18 0.46 -2.1 0.44 -2.02 0.42 -1.89 0.38 -1.78 0.35 -1.68 0.33 -15.38 -63.48 1.36 -0.26 1.51 -0.3 1.64 -0.33 1.73 -0.36 1.85 -0.39 1.94 -0.41 2.01 -0.44 2.07 -0.46 2.15 -0.48 2.2 -0.5 2.21 -0.51 2.24 -0.53 2.26 -0.54 2.28 -0.56 2.26 -0.56 2.22 -0.57 2.2 -0.58 2.17 -0.58 2.1 -0.58 2.03 -0.58 1.94 -0.57 1.85 -0.56 1.74 -0.55 1.57 -0.51 1.45 -0.5 1.26 -0.45 1.04 -0.4 0.79 -0.32 0.5 -0.22 0.17 -0.08 -0.29 0.16 -0.78 0.47 -15.24 26.86zm15.24 -26.86c16.34,-10.41 39.04,-7.02 50.7,7.59 11.65,14.6 7.85,34.88 -8.49,45.3l-42.2 -52.88zm-22.33 -1.41l70.19 -16.92 0 0 0.27 0.9 0.29 0.97 0.3 1 0.32 1.07 0.33 1.1 0.34 1.16 0.35 1.21 0.36 1.23 0.36 1.26 0.37 1.3 0.37 1.33 0.37 1.34 0.37 1.37 0.38 1.41 0.37 1.41 0.36 1.42 0.36 1.45 0.36 1.46 0.35 1.46 0.33 1.46 0.33 1.48 0.32 1.51 0.3 1.49 0.29 1.5 0.27 1.54 0.25 1.52 0.23 1.56 0.21 1.59 0.18 1.61 0.15 1.66 0.11 1.74 0.06 1.83 -72.69 0.83 0 0.07 -0.01 -0.12 -0.02 -0.28 -0.05 -0.42 -0.07 -0.52 -0.09 -0.62 -0.12 -0.73 -0.13 -0.76 -0.16 -0.85 -0.18 -0.91 -0.2 -0.93 -0.22 -0.99 -0.24 -1.04 -0.25 -1.06 -0.26 -1.07 -0.28 -1.1 -0.29 -1.13 -0.29 -1.13 -0.3 -1.12 -0.31 -1.14 -0.32 -1.14 -0.31 -1.12 -0.32 -1.11 -0.32 -1.11 -0.32 -1.09 -0.31 -1.05 -0.31 -1.04 -0.31 -1.03 -0.29 -0.98 -0.29 -0.96 -0.27 -0.91 -0.27 -0.88 0 0zm0 -0c-5.23,-17.32 6.25,-35.14 25.63,-39.81 19.38,-4.67 39.33,5.58 44.56,22.9l-70.19 16.91zm-32.25 -16.49l21.02 -62.18 0 0 3.88 1.03 3.65 0.94 3.44 0.86 3.26 0.79 3.12 0.75 2.98 0.71 2.88 0.69 2.83 0.69 2.8 0.7 2.83 0.75 2.88 0.82 2.97 0.92 3.12 1.08 3.27 1.28 3.4 1.53 3.52 1.84 3.55 2.18 3.47 2.5 3.28 2.79 2.99 2.99 2.65 3.11 2.29 3.13 1.95 3.09 1.66 3.01 1.43 2.94 1.26 2.88 1.13 2.84 1.04 2.85 0.99 2.88 0.96 2.95 0.96 3.05 0.97 3.19 -70.19 16.92 -0.86 -2.83 -0.79 -2.52 -0.71 -2.2 -0.64 -1.87 -0.55 -1.51 -0.46 -1.16 -0.34 -0.78 -0.2 -0.4 -0.02 -0.04 0.2 0.32 0.45 0.61 0.7 0.82 0.91 0.91 1.05 0.89 1.06 0.77 0.96 0.59 0.72 0.38 0.36 0.17 -0.02 -0 -0.43 -0.15 -0.88 -0.27 -1.28 -0.36 -1.67 -0.44 -2.04 -0.51 -2.38 -0.58 -2.72 -0.65 -3.04 -0.72 -3.33 -0.8 -3.64 -0.89 -3.93 -0.98 -4.21 -1.08 -4.5 -1.2 0 0zm-0 -0c-19.22,-5.19 -30.09,-23.31 -24.28,-40.48 5.8,-17.17 26.09,-26.88 45.31,-21.7l-21.02 62.17zm11.09 -42.03l-72.51 -4.59 51.65 -27.12 1.88 0.79 1.75 0.76 1.64 0.73 1.53 0.71 1.39 0.66 1.32 0.65 1.23 0.62 1.11 0.58 0.97 0.52 0.78 0.43 0.62 0.34 0.42 0.23 0.19 0.1 -0.02 -0.01 -0.17 -0.08 -0.23 -0.11 -0.33 -0.15 -0.22 -0.09 -0.08 -0.03 0.04 0.01 0.24 0.09 0.41 0.14 0.64 0.21 0.87 0.27 1.06 0.32 1.25 0.37 1.48 0.43 1.73 0.49 1.95 0.55 2.18 0.6 2.44 0.67 2.71 0.73 -21.02 62.18 -2.86 -0.77 -2.64 -0.72 -2.43 -0.67 -2.23 -0.62 -2.05 -0.58 -1.92 -0.56 -1.79 -0.53 -1.66 -0.51 -1.56 -0.49 -1.52 -0.49 -1.5 -0.51 -1.46 -0.52 -1.47 -0.56 -1.42 -0.58 -1.43 -0.61 -1.44 -0.66 -1.26 -0.61 -1.15 -0.59 -0.98 -0.53 -0.77 -0.42 -0.57 -0.32 -0.43 -0.24 -0.35 -0.19 -0.27 -0.15 -0.27 -0.14 -0.32 -0.17 -0.42 -0.21 -0.57 -0.27 -0.68 -0.31 -0.85 -0.38 -1.05 -0.46 -1.24 -0.53 51.65 -27.12zm-51.65 27.12c-18.18,-7.6 -26.03,-26.93 -17.53,-43.17 8.5,-16.25 30.14,-23.26 48.32,-15.66l-30.79 58.83zm44.88 31.63l-68.58 -21.55 -0 0 0.42 -1.12 0.37 -1.05 0.32 -0.99 0.27 -0.92 0.23 -0.87 0.2 -0.84 0.17 -0.83 0.15 -0.79 0.12 -0.78 0.1 -0.8 0.09 -0.82 0.07 -0.84 0.05 -0.86 0.04 -0.92 0.03 -0.99 0.01 -1.04 -0 -1.11 -0.01 -1.16 -0.02 -1.26 -0.03 -1.33 -0.04 -1.41 -0.04 -1.53 -0.04 -1.58 -0.04 -1.66 -0.03 -1.77 -0.01 -1.84 0 -1.92 0.03 -2 0.05 -2.07 0.09 -2.18 0.12 -2.23 0.16 -2.29 72.51 4.59 -0.1 1.37 -0.07 1.33 -0.05 1.3 -0.03 1.32 -0.02 1.32 -0 1.32 0.01 1.33 0.02 1.34 0.03 1.4 0.04 1.43 0.04 1.45 0.04 1.53 0.04 1.58 0.03 1.63 0.02 1.71 -0 1.76 -0.02 1.82 -0.05 1.89 -0.09 1.96 -0.13 2.04 -0.18 2.09 -0.23 2.14 -0.29 2.19 -0.35 2.25 -0.42 2.3 -0.49 2.32 -0.56 2.37 -0.64 2.41 -0.72 2.44 -0.79 2.45 -0.87 2.47 -0.95 2.5 -0 0zm0 -0c-6.66,16.92 -27.41,25.81 -46.35,19.87 -18.94,-5.95 -28.89,-24.49 -22.24,-41.41l68.58 21.54zm-89.48 30.39l72.4 -5.83 -62.99 -19.03 -1.3 1.37 -0.69 0.82 -0.27 0.36 -0.03 0.04 0.15 -0.23 0.27 -0.44 0.35 -0.59 0.42 -0.75 0.47 -0.87 0.51 -0.96 0.54 -1.05 0.58 -1.15 0.59 -1.19 0.6 -1.23 0.62 -1.29 0.63 -1.33 0.62 -1.34 0.62 -1.35 0.62 -1.36 0.61 -1.35 0.6 -1.35 0.59 -1.34 0.57 -1.3 0.54 -1.26 0.53 -1.25 0.5 -1.18 0.46 -1.1 0.44 -1.07 0.4 -0.97 0.36 -0.89 0.33 -0.81 0.27 -0.68 68.58 21.55 -0.38 0.97 -0.41 1.02 -0.45 1.11 -0.49 1.19 -0.51 1.23 -0.56 1.33 -0.58 1.37 -0.6 1.4 -0.63 1.47 -0.66 1.51 -0.67 1.53 -0.69 1.57 -0.72 1.6 -0.73 1.61 -0.75 1.63 -0.76 1.63 -0.77 1.63 -0.78 1.63 -0.8 1.64 -0.81 1.62 -0.81 1.59 -0.83 1.6 -0.85 1.59 -0.86 1.57 -0.88 1.57 -0.93 1.58 -0.97 1.58 -1.05 1.62 -1.18 1.71 -1.37 1.83 -1.73 2.09 -2.28 2.41 -62.99 -19.03zm62.99 19.03c-13.56,13.22 -36.56,14.11 -51.35,2 -14.8,-12.12 -15.8,-32.66 -2.23,-45.88l53.59 43.89zm-65.33 -43.12l72.43 -5.57 0 0 0.07 0.74 0.08 0.78 0.07 0.75 0.07 0.74 0.07 0.74 0.07 0.75 0.07 0.75 0.07 0.75 0.07 0.77 0.07 0.71 0.07 0.75 0.07 0.75 0.07 0.75 0.07 0.75 0.07 0.75 0.07 0.75 0.07 0.72 0.07 0.75 0.07 0.75 0.07 0.75 0.07 0.72 0.08 0.75 0.07 0.75 0.07 0.72 0.07 0.76 0.08 0.76 0.07 0.72 0.07 0.73 0.08 0.76 0.08 0.76 0.07 0.73 0.08 0.75 -72.4 5.83 -0.08 -0.77 -0.08 -0.78 -0.08 -0.75 -0.07 -0.75 -0.08 -0.78 -0.08 -0.78 -0.07 -0.75 -0.07 -0.75 -0.08 -0.78 -0.07 -0.75 -0.07 -0.75 -0.08 -0.78 -0.07 -0.75 -0.07 -0.75 -0.07 -0.74 -0.07 -0.77 -0.07 -0.75 -0.07 -0.75 -0.07 -0.74 -0.07 -0.75 -0.07 -0.75 -0.07 -0.75 -0.07 -0.78 -0.07 -0.72 -0.07 -0.75 -0.07 -0.74 -0.07 -0.75 -0.07 -0.75 -0.07 -0.75 -0.07 -0.75 -0.07 -0.72 -0.07 -0.75 0 0zm0 0c-1.72,-17.87 13.1,-33.6 33.1,-35.14 20,-1.54 37.61,11.7 39.33,29.57l-72.43 5.57zm3.2 -45.55l51.12 46.18 9.96 -29.98 -0.05 -0.19 -0.07 -0.25 -0.09 -0.26 -0.11 -0.3 -0.13 -0.32 -0.12 -0.27 -0.14 -0.29 -0.1 -0.2 -0.05 -0.09 -0.01 -0.02 0.05 0.09 0.12 0.19 0.22 0.36 0.29 0.47 0.38 0.62 0.43 0.72 0.52 0.89 0.6 1.07 0.6 1.12 0.62 1.23 0.63 1.35 0.61 1.41 0.59 1.5 0.56 1.55 0.51 1.58 0.46 1.61 0.43 1.69 0.37 1.67 0.32 1.68 0.28 1.74 0.23 1.72 0.19 1.73 -72.43 5.57 -0.04 -0.33 -0.03 -0.22 -0.01 -0.09 -0.01 -0.04 0.01 0.05 0.04 0.17 0.05 0.18 0.07 0.23 0.1 0.28 0.12 0.29 0.12 0.27 0.12 0.26 0.09 0.19 0.06 0.12 0.06 0.1 -0.03 -0.05 -0.13 -0.21 -0.18 -0.3 -0.27 -0.43 -0.34 -0.55 -0.44 -0.73 -0.5 -0.85 -0.56 -0.98 -0.58 -1.07 -0.63 -1.22 -0.65 -1.36 -0.61 -1.38 -0.6 -1.49 -0.57 -1.54 -0.52 -1.57 -0.48 -1.63 -0.43 -1.65 9.96 -29.98zm-9.96 29.98c-4.26,-17.53 8.18,-34.82 27.8,-38.63 19.62,-3.81 38.97,7.31 43.24,24.84l-71.04 13.79zm14.65 4.78l56.95 -40.37 5.76 31.1 -0.54 1.29 -0.6 1.3 -0.6 1.2 -0.65 1.2 -0.68 1.17 -0.67 1.08 -0.71 1.08 -0.72 1.02 -0.69 0.93 -0.75 0.96 -0.69 0.83 -0.71 0.83 -0.73 0.81 -0.64 0.69 -0.66 0.68 -0.63 0.63 -0.65 0.63 -0.58 0.54 -0.55 0.5 -0.56 0.5 -0.48 0.42 -0.4 0.35 -0.44 0.38 -0.45 0.38 -0.28 0.23 -0.32 0.27 -0.28 0.23 -0.19 0.16 -0.19 0.16 -0.1 0.08 -0.09 0.08 -0.06 0.05 -51.12 -46.18 0.46 -0.4 0.43 -0.37 0.43 -0.37 0.34 -0.29 0.35 -0.29 0.26 -0.22 0.21 -0.18 0.26 -0.22 0.09 -0.08 0.1 -0.08 0.14 -0.12 0.06 -0.05 -0.03 0.02 -0.02 0.02 -0.05 0.05 -0.13 0.13 -0.12 0.12 -0.16 0.16 -0.15 0.16 -0.25 0.28 -0.24 0.27 -0.22 0.28 -0.3 0.38 -0.26 0.35 -0.29 0.42 -0.31 0.46 -0.28 0.46 -0.31 0.53 -0.29 0.54 -0.26 0.52 -0.28 0.61 -0.24 0.58 5.76 31.1zm-5.76 -31.1c6.75,-16.89 27.55,-25.7 46.45,-19.67 18.91,6.03 28.76,24.61 22.01,41.5l-68.47 -21.83zm1.23 -27.34l44.41 51.42 11.23 -38.44 -0.08 -0.17 -0.08 -0.17 -0.12 -0.21 -0.13 -0.23 -0.13 -0.21 -0.14 -0.21 -0.12 -0.17 -0.15 -0.2 -0.16 -0.2 -0.11 -0.14 -0.11 -0.13 -0.08 -0.1 -0.07 -0.08 -0.03 -0.03 0.04 0.04 0.04 0.04 0.09 0.09 0.15 0.15 0.21 0.2 0.24 0.23 0.31 0.29 0.37 0.34 0.4 0.37 0.46 0.43 0.51 0.49 0.56 0.54 0.56 0.55 0.63 0.63 0.65 0.66 0.66 0.69 0.74 0.79 0.72 0.79 -56.95 40.37 -0.02 -0.02 0 0 -0.08 -0.08 -0.09 -0.09 -0.11 -0.1 -0.17 -0.17 -0.17 -0.17 -0.22 -0.21 -0.27 -0.25 -0.33 -0.31 -0.36 -0.33 -0.42 -0.39 -0.47 -0.44 -0.5 -0.47 -0.55 -0.53 -0.6 -0.59 -0.65 -0.65 -0.64 -0.66 -0.71 -0.75 -0.74 -0.81 -0.74 -0.85 -0.76 -0.9 -0.75 -0.93 -0.79 -1.02 -0.77 -1.05 -0.73 -1.04 -0.74 -1.12 -0.72 -1.15 -0.71 -1.2 -0.69 -1.23 -0.64 -1.22 -0.62 -1.26 11.23 -38.44zm-11.23 38.44c-7.87,-16.5 0.72,-35.58 19.19,-42.61 18.47,-7.03 39.82,0.65 47.69,17.14l-66.88 25.46zm27.18 -42.39l72.54 4.2 0 0 -0.89 5.57 -1.43 4.47 -1.61 3.55 -1.64 2.9 -1.64 2.48 -1.61 2.16 -1.57 1.92 -1.55 1.78 -1.55 1.66 -1.52 1.55 -1.53 1.49 -1.54 1.44 -1.51 1.37 -1.52 1.34 -1.52 1.3 -1.51 1.27 -1.52 1.24 -1.5 1.2 -1.47 1.16 -1.46 1.13 -1.46 1.12 -1.41 1.06 -1.36 1.02 -1.34 0.99 -1.28 0.93 -1.24 0.9 -1.18 0.84 -1.1 0.78 -1.05 0.74 -0.95 0.66 -0.86 0.6 -0.79 0.55 -44.41 -51.42 0.61 -0.42 0.71 -0.5 0.78 -0.54 0.82 -0.58 0.89 -0.63 0.93 -0.67 0.96 -0.69 1.01 -0.74 1.02 -0.75 1.06 -0.79 1.06 -0.8 1.04 -0.79 1.05 -0.82 1.04 -0.82 1 -0.81 0.96 -0.79 0.92 -0.77 0.87 -0.74 0.8 -0.7 0.73 -0.66 0.62 -0.58 0.52 -0.5 0.4 -0.41 0.24 -0.26 0.09 -0.1 -0.09 0.11 -0.3 0.41 -0.52 0.8 -0.73 1.3 -0.91 2.03 -0.96 3.03 -0.67 4.24 0 0zm0 0c1.3,-17.9 18.59,-31.47 38.62,-30.31 20.03,1.16 35.22,16.61 33.92,34.51l-72.54 -4.2zm1.95 -39.5l70.36 16.33 -0 0 0.14 -0.54 0.07 -0.29 0.01 -0.07 -0.01 0.08 -0.03 0.23 -0.04 0.37 -0.04 0.51 -0.04 0.58 -0.03 0.67 -0.02 0.75 -0.01 0.81 -0 0.9 0 0.93 0.01 0.95 0.02 1.01 0.02 1.05 0.03 1.07 0.03 1.12 0.04 1.11 0.04 1.12 0.04 1.18 0.04 1.16 0.04 1.18 0.03 1.2 0.03 1.17 0.02 1.24 0.01 1.24 0 1.22 -0.01 1.28 -0.03 1.33 -0.05 1.37 -0.09 1.44 -72.54 -4.2 0 -0.1 0.01 -0.27 0.01 -0.41 0 -0.55 -0 -0.69 -0.01 -0.75 -0.02 -0.82 -0.02 -0.95 -0.03 -0.98 -0.04 -1.05 -0.04 -1.11 -0.04 -1.13 -0.04 -1.22 -0.04 -1.25 -0.04 -1.25 -0.04 -1.31 -0.03 -1.33 -0.02 -1.36 -0.01 -1.41 -0 -1.41 0.01 -1.42 0.02 -1.48 0.04 -1.49 0.07 -1.53 0.09 -1.57 0.12 -1.58 0.16 -1.65 0.21 -1.72 0.27 -1.78 0.34 -1.85 0.43 -1.98 0.56 -2.12 -0 0zm0 -0c5.05,-17.36 24.89,-27.77 44.32,-23.26 19.43,4.51 31.08,22.24 26.03,39.6l-70.36 -16.34zm10.96 -16.01l63.07 32.31 0 -0.01 -1.03 1.54 -1.16 1.61 -1.28 1.63 -1.53 1.76 -1.84 1.87 -2.08 1.86 -2.56 1.96 -3.19 2.03 -3.48 1.77 -3.82 1.5 -4.02 1.13 -3.68 0.67 -3.14 0.32 -2.3 0.09 -1.24 -0 0.36 0 1.58 -0.03 3.19 -0.27 4.66 -0.88 4.98 -1.63 5.22 -2.63 4.35 -3.13 2.92 -2.79 2.14 -2.59 1.43 -2.14 0.85 -1.51 0.55 -1.15 0.31 -0.72 0.16 -0.41 0.06 -0.17 -0.03 0.09 -0.08 0.28 -70.36 -16.33 0.38 -1.29 0.42 -1.29 0.48 -1.37 0.55 -1.45 0.69 -1.61 0.92 -1.89 1.2 -2.13 1.77 -2.64 2.47 -2.99 3.24 -3.1 4.67 -3.36 5.54 -2.78 5.3 -1.74 4.99 -0.94 3.52 -0.3 1.92 -0.04 0.72 0.01 -0.88 0 -1.91 0.08 -2.74 0.28 -3.25 0.6 -3.57 1.01 -3.34 1.31 -2.96 1.51 -2.64 1.68 -1.98 1.52 -1.46 1.31 -1.18 1.2 -0.83 0.95 -0.54 0.68 -0.37 0.51 -0.18 0.27 0 -0.01zm-0 0.01c9.98,-15.56 32.19,-20.95 49.61,-12.03 17.42,8.92 23.45,28.76 13.47,44.32l-63.07 -32.29zm-2.31 4.78l71.44 12.04 0 -0.01 -0.11 0.5 -0.11 0.49 -0.12 0.49 -0.1 0.39 -0.05 0.21 -0.14 0.53 -0.08 0.3 -0.09 0.33 -0.14 0.48 -0.07 0.25 -0.12 0.39 -0.1 0.31 -0.12 0.37 -0.12 0.37 -0.13 0.41 -0.11 0.33 -0.11 0.34 -0.17 0.47 -0.12 0.34 -0.14 0.38 -0.14 0.38 -0.16 0.43 -0.19 0.48 -0.17 0.42 -0.2 0.49 -0.3 0.68 -0.21 0.46 -0.29 0.62 -0.4 0.81 -0.43 0.82 -0.62 1.1 -0.67 1.09 -63.07 -32.31 -0.55 0.9 -0.5 0.89 -0.31 0.58 -0.27 0.55 -0.16 0.34 -0.08 0.17 -0.16 0.37 -0.07 0.16 -0.03 0.08 -0.05 0.13 -0.03 0.07 -0.01 0.01 0 0 0.02 -0.04 -0.03 0.08 0.02 -0.06 0.02 -0.06 -0 0.01 0.01 -0.02 0 -0.02 0.03 -0.08 -0 0 0.04 -0.13 -0.03 0.11 0.01 -0.03 0.01 -0.04 -0.05 0.19 0.03 -0.11 -0.02 0.08 -0.05 0.2 -0.05 0.22 -0.05 0.24 0 -0.01zm-0 0.01c3.71,-17.63 22.72,-29.22 42.45,-25.9 19.73,3.32 32.71,20.3 28.99,37.92l-71.44 -12.02zm-2.69 -18.08l72.69 0.8 0 0 -0 0.63 0.01 0.43 0.01 0.27 0 0.05 -0.01 -0.1 -0.04 -0.24 -0.07 -0.37 -0.12 -0.5 -0.16 -0.57 -0.17 -0.53 -0.2 -0.54 -0.15 -0.37 -0.04 -0.09 0.03 0.06 0.2 0.43 0.36 0.8 0.49 1.15 0.58 1.5 0.59 1.74 0.57 2 0.47 2.12 0.35 2.14 0.24 2.16 0.12 2.09 0.02 2.01 -0.07 1.96 -0.14 1.89 -0.2 1.86 -0.25 1.8 -0.29 1.8 -0.34 1.85 -0.38 1.87 -71.44 -12.04 0.18 -0.89 0.12 -0.67 0.08 -0.5 0.04 -0.29 0 -0.04 -0.01 0.17 -0.01 0.41 0 0.6 0.05 0.82 0.11 1 0.18 1.08 0.25 1.13 0.31 1.08 0.29 0.87 0.26 0.67 0.14 0.34 -0 -0.01 -0.18 -0.38 -0.35 -0.79 -0.42 -0.99 -0.53 -1.32 -0.57 -1.57 -0.53 -1.65 -0.5 -1.79 -0.43 -1.85 -0.36 -1.86 -0.29 -1.88 -0.22 -1.91 -0.16 -1.94 -0.1 -1.94 -0.05 -1.98 0 -2.02 0 0zm0 0c0.25,-17.93 16.72,-32.29 36.79,-32.07 20.07,0.22 36.14,14.94 35.9,32.87l-72.69 -0.8zm-0.02 -9.17l64.85 -29.34 0 -0 0.74 1.34 0.72 1.37 0.68 1.38 0.65 1.39 0.63 1.43 0.59 1.46 0.54 1.44 0.5 1.43 0.47 1.49 0.42 1.49 0.36 1.42 0.33 1.46 0.29 1.44 0.23 1.36 0.2 1.34 0.17 1.35 0.13 1.32 0.1 1.22 0.08 1.2 0.06 1.17 0.04 1.13 0.02 1.11 0.01 1.05 0 1 -0 1.01 -0.01 0.99 -0.01 0.92 -0.02 0.94 -0.02 0.91 -0.02 0.91 -0.02 0.92 -0.01 0.91 -72.69 -0.8 0.02 -1.07 0.02 -1 0.02 -0.95 0.02 -0.89 0.01 -0.81 0.01 -0.78 0.01 -0.67 0 -0.61 0 -0.58 -0.01 -0.49 -0.01 -0.4 -0.01 -0.34 -0.01 -0.29 -0.01 -0.23 -0.01 -0.18 -0.01 -0.07 -0 -0.02 -0 -0.02 0 0 0.02 0.09 0.02 0.11 0.02 0.07 0.04 0.13 0.04 0.12 0.02 0.06 0.02 0.06 0.02 0.06 0 0.01 -0.03 -0.05 -0.05 -0.1 -0.07 -0.13 -0.11 -0.2 0 -0zm0 0c-9.07,-16 -1.9,-35.54 16.01,-43.64 17.91,-8.1 39.78,-1.7 48.85,14.3l-64.85 29.34zm-8 -2.21l-39.06 -54.78 -0 0 4.3 -2.3 4.41 -2.07 4.5 -1.82 4.59 -1.56 4.64 -1.29 4.67 -1.02 4.7 -0.74 4.68 -0.47 4.64 -0.2 4.58 0.06 4.49 0.31 4.39 0.55 4.26 0.77 4.11 0.96 3.97 1.15 3.82 1.31 3.66 1.46 3.51 1.6 3.34 1.71 3.18 1.81 3.04 1.91 2.88 1.98 2.74 2.07 2.61 2.14 2.46 2.2 2.34 2.26 2.21 2.32 2.07 2.37 1.96 2.44 1.83 2.5 1.71 2.57 1.59 2.66 -64.85 29.34 -0.01 -0.01 -0.08 -0.12 -0.14 -0.19 -0.19 -0.23 -0.25 -0.28 -0.28 -0.29 -0.31 -0.3 -0.34 -0.31 -0.35 -0.29 -0.37 -0.27 -0.37 -0.26 -0.35 -0.22 -0.34 -0.19 -0.31 -0.16 -0.27 -0.12 -0.23 -0.09 -0.19 -0.07 -0.15 -0.04 -0.11 -0.03 -0.06 -0.01 -0.03 -0 -0.02 -0 -0.02 0 -0.03 -0 -0.07 0.01 -0.12 0.02 -0.21 0.05 -0.31 0.08 -0.41 0.14 -0.55 0.22 -0.69 0.32 -0.85 0.45 -0 0zm0 -0c-16.93,9.64 -39.4,5.19 -50.18,-9.94 -10.79,-15.13 -5.81,-35.2 11.12,-44.84l39.06 54.78zm-4.44 8.63l-72.68 1.37 0 -0 -0.04 -2.46 0.01 -2.44 0.06 -2.41 0.11 -2.41 0.17 -2.41 0.24 -2.41 0.32 -2.43 0.4 -2.46 0.51 -2.48 0.61 -2.48 0.74 -2.54 0.87 -2.52 1 -2.51 1.16 -2.54 1.29 -2.48 1.42 -2.41 1.54 -2.34 1.66 -2.25 1.77 -2.17 1.82 -2.03 1.86 -1.9 1.91 -1.8 1.92 -1.67 1.91 -1.55 1.9 -1.45 1.91 -1.38 1.87 -1.28 1.84 -1.21 1.85 -1.16 1.82 -1.1 1.81 -1.06 1.82 -1.05 39.06 54.78 -1.2 0.69 -1.08 0.64 -0.94 0.57 -0.79 0.5 -0.67 0.44 -0.53 0.36 -0.36 0.26 -0.26 0.2 -0.14 0.11 -0.01 0.01 0.09 -0.09 0.15 -0.15 0.21 -0.24 0.27 -0.33 0.26 -0.35 0.25 -0.38 0.22 -0.38 0.19 -0.37 0.16 -0.34 0.09 -0.22 0.05 -0.13 0.02 -0.05 -0.03 0.12 -0.05 0.24 -0.06 0.39 -0.07 0.56 -0.07 0.71 -0.06 0.86 -0.04 1.02 -0.03 1.18 -0 1.32 0.02 1.48 0 -0zm0 0c0.42,17.93 -15.51,32.77 -35.58,33.15 -20.07,0.38 -36.68,-13.85 -37.1,-31.79l72.68 -1.37zm0.23 7.83l-72.66 -1.98 -0 0.02 -0 0.22 -0 0.3 0 -0.02 0 -0.04 0 0.21 0 0.06 -0 -0.21 -0 -0.08 0 0.03 0 0.02 -0 -0.1 -0.01 -0.22 -0 -0.11 -0.01 -0.11 -0.01 -0.22 -0.01 -0.21 -0 -0.11 -0.01 -0.21 -0.01 -0.2 -0.01 -0.2 -0.01 -0.2 -0.01 -0.2 -0.02 -0.29 -0.02 -0.3 -0.01 -0.3 -0.01 -0.17 -0.01 -0.16 -0.02 -0.41 -0.01 -0.28 -0.01 -0.28 -0.01 -0.41 -0.01 -0.3 72.68 -1.37 0 0.04 -0 -0.06 0 0.08 0 0.09 0 -0.03 0.01 0.22 0.01 0.23 0 0.1 0 0.11 0.01 0.12 0.01 0.22 0.01 0.21 0.01 0.22 0.01 0.22 0.01 0.21 0.02 0.31 0.01 0.21 0.01 0.2 0.02 0.31 0.01 0.31 0.01 0.18 0.01 0.3 0.02 0.41 0.01 0.41 0.01 0.3 0 0.17 0.01 0.42 0.01 0.56 0 0.3 0 0.31 -0.01 0.62 -0.01 0.52 -0 0.02zm0 -0.02c-0.6,17.93 -17.36,32.02 -37.42,31.49 -20.06,-0.54 -35.84,-15.51 -35.24,-33.43l72.66 1.95zm-1.4 10.1l-70.61 -15.46 -0 0 -0 0.02 -0.05 0.18 0.03 -0.1 0 0 -0.05 0.21 -0.07 0.31 -0.04 0.21 -0.06 0.29 -0.07 0.34 -0.03 0.19 -0.09 0.56 -0.08 0.57 -0.01 0.09 -0.05 0.43 -0.04 0.48 -0.02 0.21 -0.03 0.53 -0.01 0.22 -0.01 0.22 -0 0.23 0 -0.07 -0 0.18 0 -0.08 0 -0.08 0 -0.09 0 -0.09 0 -0.1 0.01 -0.48 0.01 -0.27 0 -0.09 0.01 -0.26 0.01 -0.37 72.66 1.98 0 -0.06 0 0.03 -0 0.18 0 -0.01 0 -0.25 0 0.12 -0 0.12 0 0.11 -0 0.11 0 0.1 -0 0.36 -0 0.11 -0.01 0.39 -0.01 0.38 -0.02 0.38 -0.04 0.68 -0.03 0.37 -0.06 0.64 -0.07 0.59 -0.03 0.26 -0.1 0.74 -0.12 0.74 -0.06 0.37 -0.1 0.53 -0.1 0.49 -0.09 0.42 -0.12 0.53 -0.11 0.45 -0.06 0.25 -0.04 0.17 -0.12 0.46 -0.09 0.32 -0 0zm0 -0c-4.78,17.42 -24.45,28.08 -43.95,23.82 -19.5,-4.27 -31.43,-21.85 -26.66,-39.27l70.61 15.45zm-3.39 8.16l-66.45 -26.33 -0 0.01 0.41 -0.8 0.46 -0.86 0.71 -1.23 0.87 -1.36 1.45 -2 2.96 -3.32 5.5 -4.42 14.52 -5.68 25.64 3.99 13.08 12 3.48 7.68 0.96 4.52 0.22 2.55 0.03 1.34 -0.01 0.88 -0.02 0.57 -0.01 0.29 0.01 -0.19 0.01 -2.43 -14.59 -24.9 -54.92 12.78 -1.64 3.95 -0.25 0.78 -0.07 0.23 -0.02 0.07 -0.01 0.03 0.03 -0.1 0.07 -0.25 0.07 -0.25 0.09 -0.32 0.1 -0.37 0.13 -0.46 70.61 15.46 -0.1 0.38 -0.1 0.37 -0.08 0.31 -0.08 0.29 -0.05 0.2 -0.07 0.26 -0.09 0.33 -0.08 0.3 -0.12 0.39 -0.28 0.88 -1.66 4 -54.93 12.79 -14.59 -24.93 0.01 -2.49 0.01 -0.27 -0.01 0.2 -0.02 0.45 -0.01 0.77 0.03 1.22 0.21 2.45 0.94 4.43 3.45 7.61 13.04 11.96 25.59 3.98 14.44 -5.65 5.41 -4.35 2.84 -3.19 1.31 -1.81 0.7 -1.11 0.52 -0.9 0.24 -0.45 0.16 -0.31 -0 0.01zm0 -0.01c-8.13,16.4 -29.61,23.8 -47.96,16.53 -18.35,-7.27 -26.64,-26.45 -18.5,-42.85l66.46 26.32zm-5.65 -16l-47.54 49.13 -0.01 -0 -2.16 -1.78 -1.91 -1.77 -1.76 -1.83 -1.62 -1.87 -1.43 -1.85 -1.28 -1.83 -1.16 -1.83 -1.05 -1.85 -0.92 -1.8 -0.84 -1.82 -0.75 -1.83 -0.65 -1.78 -0.57 -1.78 -0.51 -1.83 -0.43 -1.79 -0.36 -1.8 -0.3 -1.82 -0.23 -1.78 -0.16 -1.83 -0.1 -1.83 -0.03 -1.83 0.04 -1.85 0.11 -1.88 0.18 -1.89 0.26 -1.88 0.34 -1.95 0.42 -1.93 0.51 -1.93 0.61 -1.98 0.71 -1.99 0.83 -2.02 0.94 -2 66.45 26.33 0.29 -0.61 0.25 -0.6 0.2 -0.54 0.16 -0.51 0.12 -0.44 0.09 -0.42 0.08 -0.42 0.05 -0.35 0.03 -0.35 0.02 -0.34 0.01 -0.31 -0 -0.28 -0.02 -0.29 -0.03 -0.3 -0.03 -0.26 -0.05 -0.32 -0.06 -0.31 -0.08 -0.32 -0.11 -0.39 -0.12 -0.37 -0.15 -0.4 -0.2 -0.48 -0.24 -0.52 -0.27 -0.54 -0.36 -0.62 -0.41 -0.65 -0.49 -0.7 -0.6 -0.78 -0.74 -0.86 -0.84 -0.87 -0.96 -0.88 -1.16 -0.96 -0.01 -0zm0.01 0c15.18,11.73 16.84,32.24 3.71,45.81 -13.13,13.56 -36.09,15.05 -51.27,3.32l47.55 -49.13zm17.62 30.61l-72.16 7.84 0 0 -0.1 -0.7 -0.08 -0.55 -0.07 -0.44 -0.06 -0.33 -0.03 -0.17 -0.01 -0.04 0.02 0.1 0.08 0.29 0.15 0.5 0.23 0.68 0.37 0.97 0.49 1.11 0.69 1.36 0.99 1.67 1.24 1.78 1.62 1.96 1.91 1.95 2.1 1.81 2.23 1.61 2.1 1.29 1.67 0.88 1.33 0.62 0.78 0.33 0.13 0.05 -0.37 -0.15 -0.72 -0.3 -1.12 -0.49 -1.49 -0.7 -1.74 -0.91 -1.83 -1.07 -1.78 -1.17 -1.73 -1.27 47.54 -49.13 -1.23 -0.9 -1.29 -0.85 -1.36 -0.8 -1.29 -0.68 -1.05 -0.5 -0.71 -0.31 -0.31 -0.13 0.02 0 0.5 0.2 1.15 0.49 1.68 0.78 2.01 1.06 2.43 1.49 2.55 1.85 2.42 2.08 2.21 2.26 1.91 2.33 1.53 2.2 1.28 2.15 0.97 1.91 0.77 1.74 0.64 1.68 0.5 1.49 0.41 1.4 0.34 1.3 0.29 1.21 0.25 1.19 0.23 1.19 0.21 1.16 0.19 1.18 0.18 1.21 0.17 1.22 0 0zm0 -0c2.42,17.8 -11.77,33.99 -31.7,36.16 -19.93,2.16 -38.05,-10.52 -40.47,-28.32l72.16 -7.84zm0.38 31.22l-72.68 1.21 0 0.01 -0.02 -1.22 -0.01 -1.16 0 -1.15 0.01 -1.12 0.02 -1.06 0.03 -1.06 0.03 -1.03 0.04 -1 0.04 -0.94 0.04 -0.9 0.04 -0.9 0.04 -0.84 0.04 -0.81 0.04 -0.81 0.03 -0.75 0.03 -0.69 0.02 -0.72 0.02 -0.67 0.01 -0.62 0.01 -0.65 0 -0.61 0 -0.59 -0 -0.54 -0.01 -0.56 -0.02 -0.55 -0.02 -0.51 -0.03 -0.53 -0.04 -0.51 -0.04 -0.51 -0.05 -0.53 -0.06 -0.54 -0.07 -0.52 72.16 -7.84 0.18 1.41 0.15 1.36 0.13 1.34 0.11 1.34 0.09 1.32 0.07 1.27 0.06 1.27 0.04 1.21 0.03 1.19 0.01 1.19 0 1.13 -0.01 1.1 -0.02 1.04 -0.02 1.07 -0.03 1.01 -0.03 0.95 -0.04 0.98 -0.04 0.92 -0.04 0.86 -0.04 0.86 -0.04 0.83 -0.04 0.78 -0.04 0.78 -0.03 0.76 -0.03 0.71 -0.02 0.69 -0.02 0.67 -0.01 0.68 -0.01 0.64 0 0.63 0 0.64 0.01 0.6 0 0.01zm0 -0.01c0.38,17.93 -15.58,32.75 -35.65,33.08 -20.07,0.34 -36.65,-13.93 -37.03,-31.86l72.68 -1.23zm22.49 49.39l-57.83 -39.36 4.38 43.64 -0.43 -0.34 -0.58 -0.46 -0.74 -0.57 -0.86 -0.65 -0.96 -0.73 -1.05 -0.79 -1.16 -0.87 -1.21 -0.91 -1.25 -0.94 -1.33 -1.01 -1.38 -1.06 -1.41 -1.09 -1.43 -1.12 -1.48 -1.18 -1.51 -1.22 -1.51 -1.25 -1.54 -1.31 -1.55 -1.36 -1.55 -1.4 -1.58 -1.47 -1.58 -1.54 -1.59 -1.63 -1.59 -1.72 -1.61 -1.85 -1.62 -2.02 -1.63 -2.23 -1.62 -2.49 -1.58 -2.79 -1.52 -3.25 -1.35 -3.78 -1.02 -4.37 -0.48 -5.04 72.68 -1.21 -0.32 -3.45 -0.63 -2.71 -0.73 -2.06 -0.69 -1.48 -0.55 -0.97 -0.41 -0.63 -0.24 -0.33 -0.07 -0.09 0.1 0.11 0.25 0.26 0.37 0.38 0.49 0.48 0.6 0.56 0.7 0.63 0.78 0.68 0.85 0.72 0.92 0.77 0.96 0.78 1.02 0.81 1.06 0.83 1.09 0.84 1.09 0.84 1.11 0.84 1.16 0.87 1.14 0.86 1.12 0.84 1.15 0.86 1.15 0.87 1.15 0.87 1.14 0.88 1.17 0.92 1.18 0.95 4.38 43.64zm-4.38 -43.64c14.81,12.11 15.83,32.65 2.28,45.88 -13.55,13.23 -36.54,14.14 -51.35,2.04l49.07 -47.92z"/>
   <path id="1" class="fil1" d="M173.54 176.47l-11.1 13.02 8.3 7.37c-2.34,7.31 -6.52,10.58 -7.69,19.94 -0.86,6.93 0,18.52 -3.03,23.66 -4.7,-5.81 -14.8,-29.04 -18.05,-37.05 -5.99,-14.77 -5.65,-33.26 -4.3,-50.87 -9.13,2.96 -8.57,5.63 -36.28,12.96 -49.52,13.09 -45.55,6.09 -56.4,38.23 -3.46,10.26 -8.44,26.03 -8.65,37.2 9.53,6.33 49.6,15.44 63.73,18.16 54.29,10.44 101.05,10.7 155.39,0.19 15.47,-2.99 54.47,-11.57 65.11,-18.35 -0.13,-9.09 -5.56,-27.08 -8.34,-36.3 -10.07,-33.36 -10.76,-26.69 -56.83,-39.12 -31.02,-8.37 -18.09,-5.89 -35.68,-13.23 -1.57,19.82 2.89,30.72 -4.8,50.28 -3.26,8.29 -13.92,33.31 -18.99,38.25 -0.82,-8.11 -1.55,-15.99 -2.32,-23.96 -1.09,-11.37 -5.49,-11.61 -7.45,-19.68 2.73,-2.41 6.07,-4.65 7.61,-8.51 -3.93,-4.42 -7.95,-6.59 -10.79,-12.54 7.01,-4.83 29.51,-20.73 30.01,-27.56 0.58,-7.93 -1.52,-25.27 0.86,-33.44 2.57,-8.85 2.65,-0.76 7.31,-8.03 0.62,-0.96 1.59,-4.04 1.87,-5.35 3.25,-15.42 -2.26,-8.9 -2.06,-23.7 0.15,-10.72 0.75,-15.96 -3.94,-24.24 -8.05,-14.2 -32.42,-30.61 -59.95,-14.93 -16.45,9.36 -21.75,15.24 -21.25,36.7 0.04,1.76 0.3,4.58 0.24,6.16 -0.06,1.69 0.09,1.69 -0.37,3.35 -1.32,4.82 0.11,-0.14 -1.31,2.72 -3.64,7.33 -1.63,17.52 3.81,21.72 2.72,2.1 3.87,-0.67 5.31,9.96 1.41,10.37 -0.08,18.14 0.12,27.91 0.17,8.35 21.76,22.43 29.92,29.1z"/>
  </g>
 </g>
</svg>
